SplineFontDB: 3.2
FontName: JosefinSans-Regular
FullName: Josefin Sans Regular
FamilyName: Josefin Sans
Weight: Book
Copyright: Copyright 2010 The Josefin Sans Project Authors (https://github.com/ThomasJockin/JosefinSansFont-master), with Reserved Font Name "Josefin Sans".
Version: 2.001
ItalicAngle: 0
UnderlinePosition: -128
UnderlineWidth: 51.2
Ascent: 768
Descent: 256
InvalidEm: 0
sfntRevision: 0x00020042
LayerCount: 2
Layer: 0 1 "Back" 1
Layer: 1 1 "Fore" 0
XUID: [1021 378 -1339287045 3778]
StyleMap: 0x0040
FSType: 0
OS2Version: 4
OS2_WeightWidthSlopeOnly: 0
OS2_UseTypoMetrics: 1
CreationTime: 1472227280
ModificationTime: 1707719860
PfmFamily: 81
TTFWeight: 400
TTFWidth: 5
LineGap: 0
VLineGap: 0
Panose: 0 0 0 0 0 0 0 0 0 0
OS2TypoAscent: 768
OS2TypoAOffset: 0
OS2TypoDescent: -256
OS2TypoDOffset: 0
OS2TypoLinegap: 0
OS2WinAscent: 1272
OS2WinAOffset: 0
OS2WinDescent: 332
OS2WinDOffset: 0
HheadAscent: 768
HheadAOffset: 0
HheadDescent: -256
HheadDOffset: 0
OS2SubXSize: 666
OS2SubYSize: 614
OS2SubXOff: 0
OS2SubYOff: 77
OS2SupXSize: 666
OS2SupYSize: 614
OS2SupXOff: 0
OS2SupYOff: 358
OS2StrikeYSize: 51
OS2StrikeYPos: 232
OS2CapHeight: 719
OS2XHeight: 387
OS2Vendor: 'NONE'
OS2CodePages: 20000193.00000000
OS2UnicodeRanges: a00000ff.4000204b.00000000.00000000
Lookup: 1 0 0 "'aalt' Access All Alternates in Latin lookup 0" { "'aalt' Access All Alternates in Latin lookup 0 subtable"  } ['aalt' ('DFLT' <'dflt' > 'latn' <'AZE ' 'CAT ' 'CRT ' 'KAZ ' 'MOL ' 'ROM ' 'TAT ' 'TRK ' 'dflt' > ) ]
Lookup: 3 0 0 "'aalt' Access All Alternates in Latin lookup 1" { "'aalt' Access All Alternates in Latin lookup 1 subtable"  } ['aalt' ('DFLT' <'dflt' > 'latn' <'AZE ' 'CAT ' 'CRT ' 'KAZ ' 'MOL ' 'ROM ' 'TAT ' 'TRK ' 'dflt' > ) ]

StartChar: A
Encoding: 65 65 1
Width: 717
GlyphClass: 2
Flags: W
AnchorPoint: "Anchor-3" 639 10 basechar 0
AnchorPoint: "Anchor-2" 359 0 basechar 0
AnchorPoint: "Anchor-0" 359 766 basechar 0
LayerCount: 2
Fore
SplineSet
33 0 m 1,0,-1
 356 771 l 1,1,-1
 362 771 l 1,2,-1
 685 0 l 1,3,-1
 571 0 l 1,4,-1
 330 615 l 1,5,-1
 400 662 l 1,6,-1
 130 0 l 1,7,-1
 33 0 l 1,0,-1
222 281 m 1,8,-1
 498 281 l 1,9,-1
 530 195 l 1,10,-1
 194 195 l 1,11,-1
 222 281 l 1,8,-1
EndSplineSet
Validated: 1048581
Substitution2: "Single Substitution lookup 22 subtable" ordfeminine
Substitution2: "'aalt' Access All Alternates in Latin lookup 0 subtable" ordfeminine
EndChar

StartChar: AE
Encoding: 198 198 26
Width: 972
GlyphClass: 2
Flags: W
AnchorPoint: "Anchor-2" 543 0 basechar 0
AnchorPoint: "Anchor-0" 669 753 basechar 0
LayerCount: 2
Fore
SplineSet
488 740 m 1,0,-1
 893 740 l 1,1,-1
 893 644 l 1,2,-1
 588 644 l 1,3,-1
 588 418 l 1,4,-1
 851 418 l 1,5,-1
 851 323 l 1,6,-1
 588 323 l 1,7,-1
 588 95 l 1,8,-1
 907 95 l 1,9,-1
 907 0 l 1,10,-1
 488 0 l 1,11,-1
 488 740 l 1,0,-1
503 630 m 2,12,13
 501 620 501 620 497.5 608 c 128,-1,14
 494 596 494 596 493 594 c 2,15,-1
 127 0 l 1,16,-1
 13 0 l 1,17,-1
 488 740 l 1,18,-1
 503 630 l 2,12,13
237 262 m 1,19,-1
 503 262 l 1,20,-1
 503 183 l 1,21,-1
 207 183 l 1,22,-1
 237 262 l 1,19,-1
EndSplineSet
Validated: 1048581
EndChar

StartChar: B
Encoding: 66 66 28
Width: 632
GlyphClass: 2
Flags: W
AnchorPoint: "Anchor-2" 321 0 basechar 0
AnchorPoint: "Anchor-0" 321 740 basechar 0
LayerCount: 2
Fore
SplineSet
297 740 m 2,0,1
 409 740 409 740 473 694.5 c 128,-1,2
 537 649 537 649 537 553 c 0,3,4
 537 495 537 495 510 452 c 128,-1,5
 483 409 483 409 435.5 384 c 128,-1,6
 388 359 388 359 324 356 c 1,7,-1
 309 408 l 1,8,9
 384 406 384 406 443.5 381 c 128,-1,10
 503 356 503 356 537.5 312 c 128,-1,11
 572 268 572 268 572 208 c 0,12,13
 572 153 572 153 551.5 113.5 c 128,-1,14
 531 74 531 74 496.5 49 c 128,-1,15
 462 24 462 24 418 12 c 128,-1,16
 374 0 374 0 327 0 c 2,17,-1
 106 0 l 1,18,-1
 106 740 l 1,19,-1
 297 740 l 2,0,1
317 416 m 2,20,21
 378 416 378 416 406 450 c 128,-1,22
 434 484 434 484 434 534 c 0,23,24
 434 592 434 592 398 618.5 c 128,-1,25
 362 645 362 645 302 645 c 2,26,-1
 206 645 l 1,27,-1
 206 416 l 1,28,-1
 317 416 l 2,20,21
322 92 m 2,29,30
 363 92 363 92 397 104.5 c 128,-1,31
 431 117 431 117 451 142.5 c 128,-1,32
 471 168 471 168 471 207 c 0,33,34
 471 250 471 250 448 274.5 c 128,-1,35
 425 299 425 299 389 310 c 128,-1,36
 353 321 353 321 315 321 c 2,37,-1
 206 321 l 1,38,-1
 206 92 l 1,39,-1
 322 92 l 2,29,30
EndSplineSet
Validated: 1048581
EndChar

StartChar: C
Encoding: 67 67 29
Width: 710
GlyphClass: 2
Flags: W
AnchorPoint: "Anchor-2" 415 0 basechar 0
AnchorPoint: "Anchor-0" 409 757 basechar 0
LayerCount: 2
Fore
SplineSet
650 55 m 1,0,1
 632 43 632 43 600 27.5 c 128,-1,2
 568 12 568 12 525.5 2 c 128,-1,3
 483 -8 483 -8 433 -8 c 0,4,5
 347 -7 347 -7 278 22.5 c 128,-1,6
 209 52 209 52 161 103.5 c 128,-1,7
 113 155 113 155 86.5 222 c 128,-1,8
 60 289 60 289 60 365 c 0,9,10
 60 448 60 448 87.5 518 c 128,-1,11
 115 588 115 588 164 639.5 c 128,-1,12
 213 691 213 691 280 720 c 128,-1,13
 347 749 347 749 427 749 c 0,14,15
 494 749 494 749 548 731 c 128,-1,16
 602 713 602 713 641 688 c 1,17,-1
 601 596 l 1,18,19
 570 616 570 616 526.5 634.5 c 128,-1,20
 483 653 483 653 430 653 c 0,21,22
 376 653 376 653 328 631.5 c 128,-1,23
 280 610 280 610 243 571 c 128,-1,24
 206 532 206 532 185 480.5 c 128,-1,25
 164 429 164 429 164 370 c 0,26,27
 164 310 164 310 183 258 c 128,-1,28
 202 206 202 206 237 168 c 128,-1,29
 272 130 272 130 322.5 108.5 c 128,-1,30
 373 87 373 87 435 87 c 0,31,32
 491 87 491 87 535.5 104.5 c 128,-1,33
 580 122 580 122 608 143 c 1,34,-1
 650 55 l 1,0,1
EndSplineSet
Validated: 1048577
EndChar

StartChar: D
Encoding: 68 68 35
Width: 771
GlyphClass: 2
Flags: W
AnchorPoint: "Anchor-4" 155 370 basechar 0
AnchorPoint: "Anchor-2" 389 0 basechar 0
AnchorPoint: "Anchor-0" 314 740 basechar 0
LayerCount: 2
Fore
SplineSet
106 0 m 1,0,-1
 106 740 l 1,1,-1
 308 740 l 2,2,3
 418 740 418 740 495 706.5 c 128,-1,4
 572 673 572 673 619.5 617.5 c 128,-1,5
 667 562 667 562 689 495 c 128,-1,6
 711 428 711 428 711 361 c 0,7,8
 711 277 711 277 681.5 210.5 c 128,-1,9
 652 144 652 144 601 97 c 128,-1,10
 550 50 550 50 484 25 c 128,-1,11
 418 0 418 0 344 0 c 2,12,-1
 106 0 l 1,0,-1
206 95 m 1,13,-1
 325 95 l 2,14,15
 386 95 386 95 437.5 113.5 c 128,-1,16
 489 132 489 132 527.5 167 c 128,-1,17
 566 202 566 202 587.5 252.5 c 128,-1,18
 609 303 609 303 609 368 c 0,19,20
 609 437 609 437 586.5 488.5 c 128,-1,21
 564 540 564 540 525 574.5 c 128,-1,22
 486 609 486 609 437 627 c 128,-1,23
 388 645 388 645 334 645 c 2,24,-1
 206 645 l 1,25,-1
 206 95 l 1,13,-1
EndSplineSet
Validated: 1048577
EndChar

StartChar: E
Encoding: 69 69 41
Width: 667
GlyphClass: 2
Flags: W
AnchorPoint: "Anchor-3" 554 10 basechar 0
AnchorPoint: "Anchor-2" 342 0 basechar 0
AnchorPoint: "Anchor-0" 342 753 basechar 0
LayerCount: 2
Fore
SplineSet
106 740 m 1,0,-1
 588 740 l 1,1,-1
 588 645 l 1,2,-1
 206 645 l 1,3,-1
 206 420 l 1,4,-1
 547 420 l 1,5,-1
 547 325 l 1,6,-1
 206 325 l 1,7,-1
 206 95 l 1,8,-1
 602 95 l 1,9,-1
 602 0 l 1,10,-1
 106 0 l 1,11,-1
 106 740 l 1,0,-1
EndSplineSet
Validated: 1048577
EndChar

StartChar: F
Encoding: 70 70 61
Width: 603
GlyphClass: 2
Flags: W
AnchorPoint: "Anchor-2" 311 0 basechar 0
AnchorPoint: "Anchor-0" 311 740 basechar 0
LayerCount: 2
Fore
SplineSet
106 740 m 1,0,-1
 546 740 l 1,1,-1
 546 645 l 1,2,-1
 206 645 l 1,3,-1
 206 409 l 1,4,-1
 504 409 l 1,5,-1
 504 314 l 1,6,-1
 206 314 l 1,7,-1
 206 0 l 1,8,-1
 106 0 l 1,9,-1
 106 740 l 1,0,-1
EndSplineSet
Validated: 1048577
EndChar

StartChar: G
Encoding: 71 71 62
Width: 769
GlyphClass: 2
Flags: W
AnchorPoint: "Anchor-2" 394 0 basechar 0
AnchorPoint: "Anchor-0" 417 740 basechar 0
LayerCount: 2
Fore
SplineSet
686 63 m 1,0,1
 671 50 671 50 643 37.5 c 128,-1,2
 615 25 615 25 582 14.5 c 128,-1,3
 549 4 549 4 513.5 -2 c 128,-1,4
 478 -8 478 -8 447 -8 c 0,5,6
 358 -8 358 -8 287 19.5 c 128,-1,7
 216 47 216 47 165.5 96 c 128,-1,8
 115 145 115 145 87.5 212 c 128,-1,9
 60 279 60 279 60 356 c 0,10,11
 60 448 60 448 90.5 521.5 c 128,-1,12
 121 595 121 595 173.5 645.5 c 128,-1,13
 226 696 226 696 295 722.5 c 128,-1,14
 364 749 364 749 440 749 c 0,15,16
 505 749 505 749 560 733.5 c 128,-1,17
 615 718 615 718 657 694 c 1,18,-1
 624 603 l 1,19,20
 604 615 604 615 573.5 625.5 c 128,-1,21
 543 636 543 636 511 642.5 c 128,-1,22
 479 649 479 649 452 649 c 0,23,24
 386 649 386 649 333 629 c 128,-1,25
 280 609 280 609 242 572 c 128,-1,26
 204 535 204 535 183.5 482 c 128,-1,27
 163 429 163 429 163 364 c 0,28,29
 163 304 163 304 183.5 253.5 c 128,-1,30
 204 203 204 203 242 166.5 c 128,-1,31
 280 130 280 130 332.5 110 c 128,-1,32
 385 90 385 90 449 90 c 0,33,34
 487 90 487 90 523.5 97.5 c 128,-1,35
 560 105 560 105 587 120 c 1,36,-1
 587 267 l 1,37,-1
 439 267 l 1,38,-1
 439 362 l 1,39,-1
 686 362 l 1,40,-1
 686 63 l 1,0,1
EndSplineSet
Validated: 1048577
EndChar

StartChar: H
Encoding: 72 72 68
Width: 798
GlyphClass: 2
Flags: W
AnchorPoint: "Anchor-4" 399 370 basechar 0
AnchorPoint: "Anchor-2" 399 0 basechar 0
AnchorPoint: "Anchor-0" 399 740 basechar 0
LayerCount: 2
Fore
SplineSet
692 740 m 1,0,-1
 692 0 l 1,1,-1
 594 0 l 1,2,-1
 594 325 l 1,3,-1
 206 325 l 1,4,-1
 206 0 l 1,5,-1
 106 0 l 1,6,-1
 106 740 l 1,7,-1
 206 740 l 1,8,-1
 206 419 l 1,9,-1
 594 419 l 1,10,-1
 594 740 l 1,11,-1
 692 740 l 1,0,-1
EndSplineSet
Validated: 1048577
EndChar

StartChar: Hbar
Encoding: 294 294 69
Width: 965
GlyphClass: 1
Flags: W
LayerCount: 2
Fore
SplineSet
106 583 m 1,0,-1
 859 583 l 1,1,-1
 859 508 l 1,2,-1
 106 508 l 1,3,-1
 106 583 l 1,0,-1
770 740 m 1,4,-1
 770 0 l 1,5,-1
 671 0 l 1,6,-1
 671 325 l 1,7,-1
 284 325 l 1,8,-1
 284 0 l 1,9,-1
 184 0 l 1,10,-1
 184 740 l 1,11,-1
 284 740 l 1,12,-1
 284 419 l 1,13,-1
 671 419 l 1,14,-1
 671 740 l 1,15,-1
 770 740 l 1,4,-1
EndSplineSet
Validated: 5
EndChar

StartChar: I
Encoding: 73 73 71
Width: 312
GlyphClass: 2
Flags: W
AnchorPoint: "Anchor-3" 181 10 basechar 0
AnchorPoint: "Anchor-2" 157 0 basechar 0
AnchorPoint: "Anchor-0" 157 753 basechar 0
LayerCount: 2
Fore
SplineSet
106 740 m 1,0,-1
 206 740 l 1,1,-1
 206 0 l 1,2,-1
 106 0 l 1,3,-1
 106 740 l 1,0,-1
EndSplineSet
Validated: 1048577
EndChar

StartChar: Iogonek
Encoding: 302 302 84
Width: 279
GlyphClass: 1
Flags: W
LayerCount: 2
Fore
SplineSet
134 -220 m 0,0,1
 85 -220 85 -220 49.5 -192.5 c 128,-1,2
 14 -165 14 -165 14 -115 c 0,3,4
 14 -79 14 -79 40 -46 c 128,-1,5
 66 -13 66 -13 106 5 c 1,6,-1
 184 6 l 1,7,-1
 202 0 l 1,8,9
 152 -23 152 -23 123 -46.5 c 128,-1,10
 94 -70 94 -70 94 -101 c 0,11,12
 94 -128 94 -128 109.5 -140 c 128,-1,13
 125 -152 125 -152 143 -152 c 0,14,15
 163 -152 163 -152 181 -139 c 128,-1,16
 199 -126 199 -126 213 -103 c 1,17,-1
 250 -152 l 1,18,19
 232 -182 232 -182 199.5 -201 c 128,-1,20
 167 -220 167 -220 134 -220 c 0,0,1
106 740 m 1,21,-1
 206 740 l 1,22,-1
 206 0 l 1,23,-1
 106 0 l 1,24,-1
 106 740 l 1,21,-1
EndSplineSet
Validated: 5
EndChar

StartChar: J
Encoding: 74 74 86
Width: 373
GlyphClass: 2
Flags: W
AnchorPoint: "Anchor-2" 172 0 basechar 0
AnchorPoint: "Anchor-0" 217 753 basechar 0
LayerCount: 2
Fore
SplineSet
267 134 m 2,0,1
 267 44 267 44 233 -19.5 c 128,-1,2
 199 -83 199 -83 139.5 -116.5 c 128,-1,3
 80 -150 80 -150 3 -153 c 1,4,-1
 3 -153 l 1,5,-1
 3 -56 l 1,6,7
 75 -52 75 -52 121.5 -5.5 c 128,-1,8
 168 41 168 41 168 137 c 2,9,-1
 168 740 l 1,10,-1
 267 740 l 1,11,-1
 267 134 l 2,0,1
EndSplineSet
Validated: 1048581
EndChar

StartChar: K
Encoding: 75 75 88
Width: 695
GlyphClass: 2
Flags: W
AnchorPoint: "Anchor-2" 328 0 basechar 0
AnchorPoint: "Anchor-0" 360 740 basechar 0
LayerCount: 2
Fore
SplineSet
207 442 m 1,0,-1
 204 406 l 1,1,-1
 217 424 l 1,2,-1
 520 740 l 1,3,-1
 648 740 l 1,4,-1
 342 423 l 1,5,-1
 666 0 l 1,6,-1
 540 0 l 1,7,-1
 269 359 l 1,8,-1
 207 299 l 1,9,-1
 207 0 l 1,10,-1
 106 0 l 1,11,-1
 106 740 l 1,12,-1
 207 740 l 1,13,-1
 207 442 l 1,0,-1
EndSplineSet
Validated: 1048577
EndChar

StartChar: L
Encoding: 76 76 90
Width: 636
GlyphClass: 2
Flags: W
AnchorPoint: "Anchor-4" 329 370 basechar 0
AnchorPoint: "Anchor-2" 329 0 basechar 0
AnchorPoint: "Anchor-1" 629 740 basechar 0
AnchorPoint: "Anchor-0" 155 753 basechar 0
LayerCount: 2
Fore
SplineSet
106 740 m 1,0,-1
 206 740 l 1,1,-1
 206 95 l 1,2,-1
 582 95 l 1,3,-1
 582 0 l 1,4,-1
 106 0 l 1,5,-1
 106 740 l 1,0,-1
EndSplineSet
Validated: 1048577
EndChar

StartChar: Lslash
Encoding: 321 321 97
Width: 628
GlyphClass: 1
Flags: W
LayerCount: 2
Fore
SplineSet
396 473 m 1,0,-1
 416 395 l 1,1,-1
 35 270 l 1,2,-1
 16 348 l 1,3,-1
 396 473 l 1,0,-1
106 740 m 1,4,-1
 206 740 l 1,5,-1
 206 95 l 1,6,-1
 582 95 l 1,7,-1
 582 0 l 1,8,-1
 106 0 l 1,9,-1
 106 740 l 1,4,-1
EndSplineSet
Validated: 5
EndChar

StartChar: M
Encoding: 77 77 98
Width: 949
GlyphClass: 2
Flags: W
AnchorPoint: "Anchor-2" 474 0 basechar 0
AnchorPoint: "Anchor-0" 474 740 basechar 0
LayerCount: 2
Fore
SplineSet
106 0 m 1,0,-1
 106 764 l 1,1,-1
 108 764 l 1,2,-1
 496 213 l 1,3,-1
 454 221 l 1,4,-1
 841 764 l 1,5,-1
 843 764 l 1,6,-1
 843 0 l 1,7,-1
 744 0 l 1,8,-1
 744 539 l 1,9,-1
 751 488 l 1,10,-1
 471 93 l 1,11,-1
 469 93 l 1,12,-1
 185 488 l 1,13,-1
 203 535 l 1,14,-1
 203 0 l 1,15,-1
 106 0 l 1,0,-1
EndSplineSet
Validated: 1048581
EndChar

StartChar: N
Encoding: 78 78 99
Width: 857
GlyphClass: 2
Flags: W
AnchorPoint: "Anchor-2" 429 0 basechar 0
AnchorPoint: "Anchor-0" 416 740 basechar 0
LayerCount: 2
Fore
SplineSet
748 -24 m 1,0,-1
 175 557 l 1,1,-1
 204 550 l 1,2,-1
 206 0 l 1,3,-1
 106 0 l 1,4,-1
 106 763 l 1,5,-1
 112 763 l 1,6,-1
 678 180 l 1,7,-1
 654 185 l 1,8,-1
 652 740 l 1,9,-1
 751 740 l 1,10,-1
 751 -24 l 1,11,-1
 748 -24 l 1,0,-1
EndSplineSet
Validated: 1048581
EndChar

StartChar: Eng
Encoding: 330 330 104
Width: 825
GlyphClass: 1
Flags: W
LayerCount: 2
Fore
SplineSet
731 -24 m 1,0,-1
 160 559 l 1,1,-1
 187 550 l 1,2,-1
 189 0 l 1,3,-1
 91 0 l 1,4,-1
 91 763 l 1,5,-1
 95 763 l 1,6,-1
 662 178 l 1,7,-1
 638 185 l 1,8,-1
 636 740 l 1,9,-1
 734 740 l 1,10,-1
 734 -2 l 1,11,-1
 731 -24 l 1,0,-1
734 43 m 1,12,-1
 734 -3 l 2,13,14
 734 -71 734 -71 709.5 -121.5 c 128,-1,15
 685 -172 685 -172 635 -204 c 1,16,-1
 579 -145 l 1,17,18
 608 -120 608 -120 624 -84 c 128,-1,19
 640 -48 640 -48 640 1 c 2,20,-1
 640 129 l 1,21,-1
 734 43 l 1,12,-1
EndSplineSet
Validated: 5
EndChar

StartChar: uni019D
Encoding: 413 413 105
Width: 840
GlyphClass: 1
Flags: W
LayerCount: 2
Fore
SplineSet
731 -24 m 1,0,-1
 160 558 l 1,1,-1
 187 550 l 1,2,-1
 189 0 l 1,3,-1
 91 0 l 1,4,-1
 91 763 l 1,5,-1
 95 763 l 1,6,-1
 662 180 l 1,7,-1
 638 185 l 1,8,-1
 636 740 l 1,9,-1
 734 740 l 1,10,-1
 734 -2 l 1,11,-1
 731 -24 l 1,0,-1
189 43 m 1,12,-1
 189 -3 l 2,13,14
 189 -71 189 -71 165 -121.5 c 128,-1,15
 141 -172 141 -172 90 -204 c 1,16,-1
 30 -145 l 1,17,18
 59 -120 59 -120 75 -84 c 128,-1,19
 91 -48 91 -48 91 1 c 2,20,-1
 91 129 l 1,21,-1
 189 43 l 1,12,-1
EndSplineSet
Validated: 5
EndChar

StartChar: O
Encoding: 79 79 108
Width: 877
GlyphClass: 2
Flags: W
AnchorPoint: "Anchor-4" 439 370 basechar 0
AnchorPoint: "Anchor-3" 584 10 basechar 0
AnchorPoint: "Anchor-2" 439 0 basechar 0
AnchorPoint: "Anchor-1" 525 854 basechar 0
AnchorPoint: "Anchor-0" 439 746 basechar 0
LayerCount: 2
Fore
SplineSet
60 370 m 0,0,1
 60 447 60 447 89.5 515 c 128,-1,2
 119 583 119 583 171 635.5 c 128,-1,3
 223 688 223 688 291 718.5 c 128,-1,4
 359 749 359 749 438 749 c 0,5,6
 516 749 516 749 584 718.5 c 128,-1,7
 652 688 652 688 705 635.5 c 128,-1,8
 758 583 758 583 787.5 514.5 c 128,-1,9
 817 446 817 446 817 370 c 0,10,11
 817 291 817 291 787.5 222.5 c 128,-1,12
 758 154 758 154 705.5 102 c 128,-1,13
 653 50 653 50 584.5 21 c 128,-1,14
 516 -8 516 -8 438 -8 c 0,15,16
 359 -8 359 -8 291 20.5 c 128,-1,17
 223 49 223 49 171 100.5 c 128,-1,18
 119 152 119 152 89.5 220.5 c 128,-1,19
 60 289 60 289 60 370 c 0,0,1
163 369 m 256,20,21
 163 311 163 311 184.5 260 c 128,-1,22
 206 209 206 209 244 170 c 128,-1,23
 282 131 282 131 332 109 c 128,-1,24
 382 87 382 87 440 87 c 0,25,26
 497 87 497 87 547.5 109 c 128,-1,27
 598 131 598 131 635 170 c 128,-1,28
 672 209 672 209 693.5 259.5 c 128,-1,29
 715 310 715 310 715 370 c 0,30,31
 715 428 715 428 693.5 479.5 c 128,-1,32
 672 531 672 531 634 570 c 128,-1,33
 596 609 596 609 546 631 c 128,-1,34
 496 653 496 653 438 653 c 0,35,36
 380 653 380 653 330 630.5 c 128,-1,37
 280 608 280 608 242 569 c 128,-1,38
 204 530 204 530 183.5 478.5 c 128,-1,39
 163 427 163 427 163 369 c 256,20,21
EndSplineSet
Validated: 1
Substitution2: "Single Substitution lookup 22 subtable" ordmasculine
Substitution2: "'aalt' Access All Alternates in Latin lookup 0 subtable" ordmasculine
EndChar

StartChar: uni01EA
Encoding: 490 490 133
Width: 877
GlyphClass: 1
Flags: W
LayerCount: 2
Fore
SplineSet
438 -8 m 0,0,1
 359 -8 359 -8 291 20.5 c 128,-1,2
 223 49 223 49 171 100.5 c 128,-1,3
 119 152 119 152 89.5 220.5 c 128,-1,4
 60 289 60 289 60 370 c 0,5,6
 60 447 60 447 89.5 515 c 128,-1,7
 119 583 119 583 171 635.5 c 128,-1,8
 223 688 223 688 291 718.5 c 128,-1,9
 359 749 359 749 438 749 c 0,10,11
 516 749 516 749 584 718.5 c 128,-1,12
 652 688 652 688 705 635.5 c 128,-1,13
 758 583 758 583 787.5 514.5 c 128,-1,14
 817 446 817 446 817 369 c 0,15,16
 817 294 817 294 796 236.5 c 128,-1,17
 775 179 775 179 742.5 137.5 c 128,-1,18
 710 96 710 96 673 67 c 0,19,20
 641 40 641 40 611 20 c 128,-1,21
 581 0 581 0 555 -17.5 c 128,-1,22
 529 -35 529 -35 514.5 -54.5 c 128,-1,23
 500 -74 500 -74 500 -100 c 0,24,25
 500 -128 500 -128 515 -140 c 128,-1,26
 530 -152 530 -152 549 -152 c 0,27,28
 571 -152 571 -152 587.5 -139 c 128,-1,29
 604 -126 604 -126 618 -103 c 1,30,-1
 655 -152 l 1,31,32
 637 -182 637 -182 604.5 -201 c 128,-1,33
 572 -220 572 -220 541 -220 c 0,34,35
 491 -220 491 -220 456 -192.5 c 128,-1,36
 421 -165 421 -165 421 -115 c 0,37,38
 421 -87 421 -87 434 -63.5 c 128,-1,39
 447 -40 447 -40 470 -21.5 c 128,-1,40
 493 -3 493 -3 520 8 c 2,41,-1
 603 35 l 1,42,43
 568 15 568 15 525 3.5 c 128,-1,44
 482 -8 482 -8 438 -8 c 0,0,1
441 88 m 0,45,46
 498 88 498 88 548 109.5 c 128,-1,47
 598 131 598 131 635.5 169.5 c 128,-1,48
 673 208 673 208 694 259 c 128,-1,49
 715 310 715 310 715 370 c 0,50,51
 715 427 715 427 693.5 478 c 128,-1,52
 672 529 672 529 634 567.5 c 128,-1,53
 596 606 596 606 546 628 c 128,-1,54
 496 650 496 650 438 650 c 0,55,56
 380 650 380 650 330 628 c 128,-1,57
 280 606 280 606 242 567 c 128,-1,58
 204 528 204 528 183.5 477 c 128,-1,59
 163 426 163 426 163 369 c 0,60,61
 163 311 163 311 184.5 260 c 128,-1,62
 206 209 206 209 244 170 c 128,-1,63
 282 131 282 131 332.5 109.5 c 128,-1,64
 383 88 383 88 441 88 c 0,45,46
EndSplineSet
Validated: 5
EndChar

StartChar: Oslash
Encoding: 216 216 134
Width: 878
GlyphClass: 2
Flags: W
AnchorPoint: "Anchor-2" 438 0 basechar 0
AnchorPoint: "Anchor-0" 438 740 basechar 0
LayerCount: 2
Fore
SplineSet
771 703 m 1,0,-1
 158 -14 l 1,1,-1
 95 42 l 1,2,-1
 710 761 l 1,3,-1
 771 703 l 1,0,-1
60 370 m 0,4,5
 60 447 60 447 89.5 515 c 128,-1,6
 119 583 119 583 171 635.5 c 128,-1,7
 223 688 223 688 291 718.5 c 128,-1,8
 359 749 359 749 438 749 c 0,9,10
 516 749 516 749 584 718.5 c 128,-1,11
 652 688 652 688 705 635.5 c 128,-1,12
 758 583 758 583 787.5 514.5 c 128,-1,13
 817 446 817 446 817 370 c 0,14,15
 817 291 817 291 787.5 222.5 c 128,-1,16
 758 154 758 154 705.5 102 c 128,-1,17
 653 50 653 50 584.5 21 c 128,-1,18
 516 -8 516 -8 438 -8 c 0,19,20
 359 -8 359 -8 291 20.5 c 128,-1,21
 223 49 223 49 171 100.5 c 128,-1,22
 119 152 119 152 89.5 220.5 c 128,-1,23
 60 289 60 289 60 370 c 0,4,5
163 369 m 256,24,25
 163 311 163 311 184.5 260 c 128,-1,26
 206 209 206 209 244 170 c 128,-1,27
 282 131 282 131 332 109 c 128,-1,28
 382 87 382 87 440 87 c 0,29,30
 497 87 497 87 547.5 109 c 128,-1,31
 598 131 598 131 635 170 c 128,-1,32
 672 209 672 209 693.5 259.5 c 128,-1,33
 715 310 715 310 715 370 c 0,34,35
 715 428 715 428 693.5 479.5 c 128,-1,36
 672 531 672 531 634 570 c 128,-1,37
 596 609 596 609 546 631 c 128,-1,38
 496 653 496 653 438 653 c 0,39,40
 380 653 380 653 330 630.5 c 128,-1,41
 280 608 280 608 242 569 c 128,-1,42
 204 530 204 530 183.5 478.5 c 128,-1,43
 163 427 163 427 163 369 c 256,24,25
EndSplineSet
Validated: 1048581
EndChar

StartChar: OE
Encoding: 338 338 138
Width: 1040
GlyphClass: 2
Flags: W
AnchorPoint: "Anchor-2" 520 0 basechar 0
AnchorPoint: "Anchor-0" 520 740 basechar 0
LayerCount: 2
Fore
SplineSet
507 643 m 1,0,1
 493 647 493 647 477.5 648.5 c 128,-1,2
 462 650 462 650 446 650 c 0,3,4
 389 650 389 650 339 628 c 128,-1,5
 289 606 289 606 251 567 c 128,-1,6
 213 528 213 528 191.5 477 c 128,-1,7
 170 426 170 426 170 369 c 0,8,9
 170 311 170 311 191.5 260 c 128,-1,10
 213 209 213 209 251.5 170 c 128,-1,11
 290 131 290 131 340.5 109.5 c 128,-1,12
 391 88 391 88 449 88 c 0,13,14
 480 88 480 88 509 95 c 1,15,-1
 539 3 l 1,16,17
 516 -2 516 -2 492.5 -5 c 128,-1,18
 469 -8 469 -8 445 -8 c 0,19,20
 367 -8 367 -8 298.5 21 c 128,-1,21
 230 50 230 50 178.5 102 c 128,-1,22
 127 154 127 154 98 222.5 c 128,-1,23
 69 291 69 291 69 370 c 0,24,25
 69 447 69 447 98 515 c 128,-1,26
 127 583 127 583 178.5 636 c 128,-1,27
 230 689 230 689 299 719 c 128,-1,28
 368 749 368 749 445 749 c 0,29,30
 471 749 471 749 494.5 745 c 128,-1,31
 518 741 518 741 541 735 c 1,32,-1
 507 643 l 1,0,1
500 740 m 1,33,-1
 949 740 l 1,34,-1
 949 648 l 1,35,-1
 601 648 l 1,36,-1
 601 418 l 1,37,-1
 908 418 l 1,38,-1
 908 325 l 1,39,-1
 601 325 l 1,40,-1
 601 95 l 1,41,-1
 964 95 l 1,42,-1
 964 0 l 1,43,-1
 500 0 l 1,44,-1
 500 740 l 1,33,-1
EndSplineSet
Validated: 1048581
EndChar

StartChar: P
Encoding: 80 80 139
Width: 609
GlyphClass: 2
Flags: W
AnchorPoint: "Anchor-2" 310 0 basechar 0
AnchorPoint: "Anchor-0" 310 740 basechar 0
LayerCount: 2
Fore
SplineSet
304 740 m 2,0,1
 385 740 385 740 442.5 713 c 128,-1,2
 500 686 500 686 531 635 c 128,-1,3
 562 584 562 584 562 511 c 0,4,5
 562 467 562 467 549 424.5 c 128,-1,6
 536 382 536 382 506.5 347.5 c 128,-1,7
 477 313 477 313 430 292.5 c 128,-1,8
 383 272 383 272 315 272 c 2,9,-1
 206 272 l 1,10,-1
 206 0 l 1,11,-1
 106 0 l 1,12,-1
 106 740 l 1,13,-1
 304 740 l 2,0,1
314 368 m 2,14,15
 358 368 358 368 387 382 c 128,-1,16
 416 396 416 396 432.5 418 c 128,-1,17
 449 440 449 440 456 464.5 c 128,-1,18
 463 489 463 489 463 509 c 0,19,20
 463 532 463 532 456 556 c 128,-1,21
 449 580 449 580 432 600 c 128,-1,22
 415 620 415 620 387.5 632.5 c 128,-1,23
 360 645 360 645 321 645 c 2,24,-1
 206 645 l 1,25,-1
 206 368 l 1,26,-1
 314 368 l 2,14,15
EndSplineSet
Validated: 1048577
EndChar

StartChar: Thorn
Encoding: 222 222 140
Width: 609
GlyphClass: 2
Flags: W
AnchorPoint: "Anchor-2" 284 0 basechar 0
AnchorPoint: "Anchor-0" 284 740 basechar 0
LayerCount: 2
Fore
SplineSet
323 600 m 2,0,1
 378 600 378 600 422.5 585 c 128,-1,2
 467 570 467 570 497.5 541 c 128,-1,3
 528 512 528 512 545 469.5 c 128,-1,4
 562 427 562 427 562 371 c 0,5,6
 562 327 562 327 549.5 285 c 128,-1,7
 537 243 537 243 509.5 208.5 c 128,-1,8
 482 174 482 174 435.5 153 c 128,-1,9
 389 132 389 132 322 132 c 2,10,-1
 209 132 l 1,11,-1
 209 0 l 1,12,-1
 106 0 l 1,13,-1
 106 735 l 1,14,-1
 209 735 l 1,15,-1
 209 600 l 1,16,-1
 323 600 l 2,0,1
312 228 m 2,17,18
 353 228 353 228 381 240.5 c 128,-1,19
 409 253 409 253 426 274 c 128,-1,20
 443 295 443 295 451.5 319.5 c 128,-1,21
 460 344 460 344 460 369 c 0,22,23
 460 405 460 405 444 435.5 c 128,-1,24
 428 466 428 466 396 485.5 c 128,-1,25
 364 505 364 505 313 505 c 2,26,-1
 209 505 l 1,27,-1
 209 228 l 1,28,-1
 312 228 l 2,17,18
EndSplineSet
Validated: 1048577
EndChar

StartChar: Q
Encoding: 81 81 141
Width: 908
GlyphClass: 2
Flags: W
AnchorPoint: "Anchor-2" 447 0 basechar 0
AnchorPoint: "Anchor-0" 447 740 basechar 0
LayerCount: 2
Fore
SplineSet
594 96 m 1,0,-1
 848 96 l 1,1,-1
 848 0 l 1,2,-1
 462 0 l 1,3,-1
 594 96 l 1,0,-1
60 370 m 0,4,5
 60 447 60 447 89.5 515 c 128,-1,6
 119 583 119 583 171 635.5 c 128,-1,7
 223 688 223 688 291 718.5 c 128,-1,8
 359 749 359 749 438 749 c 0,9,10
 516 749 516 749 584 718.5 c 128,-1,11
 652 688 652 688 705 635.5 c 128,-1,12
 758 583 758 583 787.5 514.5 c 128,-1,13
 817 446 817 446 817 370 c 0,14,15
 817 291 817 291 787.5 222.5 c 128,-1,16
 758 154 758 154 705.5 102 c 128,-1,17
 653 50 653 50 584.5 21 c 128,-1,18
 516 -8 516 -8 438 -8 c 0,19,20
 359 -8 359 -8 291 20.5 c 128,-1,21
 223 49 223 49 171 100.5 c 128,-1,22
 119 152 119 152 89.5 220.5 c 128,-1,23
 60 289 60 289 60 370 c 0,4,5
163 369 m 0,24,25
 163 311 163 311 184.5 260 c 128,-1,26
 206 209 206 209 244 170 c 128,-1,27
 282 131 282 131 332 109.5 c 128,-1,28
 382 88 382 88 440 88 c 0,29,30
 497 88 497 88 547.5 109.5 c 128,-1,31
 598 131 598 131 635 170 c 128,-1,32
 672 209 672 209 693.5 259.5 c 128,-1,33
 715 310 715 310 715 370 c 0,34,35
 715 427 715 427 693.5 478 c 128,-1,36
 672 529 672 529 634 567.5 c 128,-1,37
 596 606 596 606 546 628 c 128,-1,38
 496 650 496 650 438 650 c 0,39,40
 380 650 380 650 330 628 c 128,-1,41
 280 606 280 606 242 567 c 128,-1,42
 204 528 204 528 183.5 477 c 128,-1,43
 163 426 163 426 163 369 c 0,24,25
EndSplineSet
Validated: 1048581
EndChar

StartChar: R
Encoding: 82 82 142
Width: 674
GlyphClass: 2
Flags: W
AnchorPoint: "Anchor-2" 332 0 basechar 0
AnchorPoint: "Anchor-0" 306 753 basechar 0
LayerCount: 2
Fore
SplineSet
303 740 m 2,0,1
 359 740 359 740 407 725.5 c 128,-1,2
 455 711 455 711 490 681.5 c 128,-1,3
 525 652 525 652 545 609.5 c 128,-1,4
 565 567 565 567 565 511 c 0,5,6
 565 467 565 467 552.5 425 c 128,-1,7
 540 383 540 383 510 348.5 c 128,-1,8
 480 314 480 314 432.5 293 c 128,-1,9
 385 272 385 272 315 272 c 2,10,-1
 206 272 l 1,11,-1
 206 0 l 1,12,-1
 106 0 l 1,13,-1
 106 740 l 1,14,-1
 303 740 l 2,0,1
313 368 m 2,15,16
 357 368 357 368 386.5 381 c 128,-1,17
 416 394 416 394 432.5 415 c 128,-1,18
 449 436 449 436 456 460.5 c 128,-1,19
 463 485 463 485 463 507 c 0,20,21
 463 530 463 530 455 554 c 128,-1,22
 447 578 447 578 430.5 598 c 128,-1,23
 414 618 414 618 386.5 631.5 c 128,-1,24
 359 645 359 645 321 645 c 2,25,-1
 206 645 l 1,26,-1
 206 368 l 1,27,-1
 313 368 l 2,15,16
435 311 m 1,28,-1
 629 0 l 1,29,-1
 514 0 l 1,30,-1
 317 308 l 1,31,-1
 435 311 l 1,28,-1
EndSplineSet
Validated: 1048581
EndChar

StartChar: S
Encoding: 83 83 148
Width: 595
GlyphClass: 2
Flags: W
AnchorPoint: "Anchor-2" 297 -6 basechar 0
AnchorPoint: "Anchor-0" 297 748 basechar 0
LayerCount: 2
Fore
SplineSet
489 608 m 1,0,1
 451 627 451 627 406 641.5 c 128,-1,2
 361 656 361 656 318 656 c 0,3,4
 259 656 259 656 223.5 628.5 c 128,-1,5
 188 601 188 601 188 555 c 0,6,7
 188 520 188 520 210.5 496 c 128,-1,8
 233 472 233 472 270 454.5 c 128,-1,9
 307 437 307 437 347 422 c 0,10,11
 382 409 382 409 416 392.5 c 128,-1,12
 450 376 450 376 477 351.5 c 128,-1,13
 504 327 504 327 520 291 c 128,-1,14
 536 255 536 255 536 202 c 0,15,16
 536 144 536 144 506.5 95.5 c 128,-1,17
 477 47 477 47 423 19.5 c 128,-1,18
 369 -8 369 -8 294 -8 c 0,19,20
 245 -8 245 -8 200.5 3 c 128,-1,21
 156 14 156 14 118 32 c 128,-1,22
 80 50 80 50 50 70 c 1,23,-1
 94 147 l 1,24,25
 119 130 119 130 150.5 114 c 128,-1,26
 182 98 182 98 217 88.5 c 128,-1,27
 252 79 252 79 285 79 c 0,28,29
 320 79 320 79 354 91.5 c 128,-1,30
 388 104 388 104 410.5 131 c 128,-1,31
 433 158 433 158 433 202 c 0,32,33
 433 240 433 240 413 265 c 128,-1,34
 393 290 393 290 360.5 308 c 128,-1,35
 328 326 328 326 291 340 c 0,36,37
 256 353 256 353 220 369 c 128,-1,38
 184 385 184 385 153.5 408 c 128,-1,39
 123 431 123 431 104.5 465 c 128,-1,40
 86 499 86 499 86 547 c 0,41,42
 86 605 86 605 114 648.5 c 128,-1,43
 142 692 142 692 191.5 717 c 128,-1,44
 241 742 241 742 304 744 c 0,45,46
 376 744 376 744 430.5 727 c 128,-1,47
 485 710 485 710 527 685 c 1,48,-1
 489 608 l 1,0,1
EndSplineSet
Validated: 1048577
EndChar

StartChar: uni1E9E
Encoding: 7838 7838 154
Width: 859
GlyphClass: 1
Flags: W
LayerCount: 2
Fore
SplineSet
586 -8 m 0,0,1
 521 -8 521 -8 462.5 10 c 128,-1,2
 404 28 404 28 356 59 c 1,3,-1
 400 137 l 1,4,5
 437 112 437 112 486 95.5 c 128,-1,6
 535 79 535 79 579 79 c 0,7,8
 606 79 606 79 634 90 c 128,-1,9
 662 101 662 101 680.5 124.5 c 128,-1,10
 699 148 699 148 699 185 c 0,11,12
 699 215 699 215 682 235.5 c 128,-1,13
 665 256 665 256 637.5 273 c 128,-1,14
 610 290 610 290 580 307 c 0,15,16
 540 327 540 327 501.5 354 c 128,-1,17
 463 381 463 381 437.5 419 c 128,-1,18
 412 457 412 457 412 508 c 256,19,20
 412 559 412 559 432.5 598.5 c 128,-1,21
 453 638 453 638 492.5 662 c 128,-1,22
 532 686 532 686 590 689 c 0,23,24
 620 689 620 689 636.5 682 c 128,-1,25
 653 675 653 675 666 665 c 1,26,-1
 635 616 l 1,27,28
 594 656 594 656 540 676 c 128,-1,29
 486 696 486 696 430 696 c 0,30,31
 361 696 361 696 311 665 c 128,-1,32
 261 634 261 634 233.5 568 c 128,-1,33
 206 502 206 502 206 397 c 2,34,-1
 206 0 l 1,35,-1
 106 0 l 1,36,-1
 106 401 l 2,37,38
 106 512 106 512 141.5 596.5 c 128,-1,39
 177 681 177 681 247 728 c 128,-1,40
 317 775 317 775 419 775 c 0,41,42
 477 775 477 775 533 759.5 c 128,-1,43
 589 744 589 744 634 720 c 128,-1,44
 679 696 679 696 702 669 c 1,45,-1
 675 596 l 1,46,47
 668 602 668 602 649.5 612 c 128,-1,48
 631 622 631 622 604 622 c 256,49,50
 577 622 577 622 556 609 c 128,-1,51
 535 596 535 596 523 574.5 c 128,-1,52
 511 553 511 553 511 525 c 0,53,54
 511 491 511 491 529.5 467.5 c 128,-1,55
 548 444 548 444 576.5 426 c 128,-1,56
 605 408 605 408 636 389 c 0,57,58
 665 373 665 373 694.5 355.5 c 128,-1,59
 724 338 724 338 748 315.5 c 128,-1,60
 772 293 772 293 787 261.5 c 128,-1,61
 802 230 802 230 802 186 c 0,62,63
 802 134 802 134 776.5 90 c 128,-1,64
 751 46 751 46 703 19 c 128,-1,65
 655 -8 655 -8 586 -8 c 0,0,1
EndSplineSet
Validated: 5
EndChar

StartChar: uni018F
Encoding: 399 399 155
Width: 814
GlyphClass: 1
Flags: W
LayerCount: 2
Fore
SplineSet
384 748 m 0,0,1
 467 748 467 748 535 720 c 128,-1,2
 603 692 603 692 651.5 642 c 128,-1,3
 700 592 700 592 727 525 c 128,-1,4
 754 458 754 458 754 380 c 0,5,6
 754 298 754 298 725 228.5 c 128,-1,7
 696 159 696 159 644.5 107 c 128,-1,8
 593 55 593 55 526 26 c 128,-1,9
 459 -3 459 -3 383 -3 c 0,10,11
 296 -3 296 -3 228.5 33.5 c 128,-1,12
 161 70 161 70 115.5 137 c 128,-1,13
 70 204 70 204 49 295 c 1,14,-1
 658 513 l 1,15,-1
 681 439 l 1,16,-1
 134 239 l 1,17,-1
 165 270 l 1,18,19
 192 189 192 189 248.5 137 c 128,-1,20
 305 85 305 85 389 85 c 0,21,22
 442 85 442 85 489.5 107.5 c 128,-1,23
 537 130 537 130 572.5 169.5 c 128,-1,24
 608 209 608 209 628.5 261.5 c 128,-1,25
 649 314 649 314 649 375 c 0,26,27
 649 433 649 433 628 484 c 128,-1,28
 607 535 607 535 569.5 572 c 128,-1,29
 532 609 532 609 484.5 630 c 128,-1,30
 437 651 437 651 383 651 c 0,31,32
 344 651 344 651 304 639.5 c 128,-1,33
 264 628 264 628 229.5 607.5 c 128,-1,34
 195 587 195 587 171 560 c 1,35,-1
 122 640 l 1,36,37
 153 670 153 670 197.5 694.5 c 128,-1,38
 242 719 242 719 291.5 733.5 c 128,-1,39
 341 748 341 748 384 748 c 0,0,1
EndSplineSet
Validated: 5
EndChar

StartChar: T
Encoding: 84 84 156
Width: 594
GlyphClass: 2
Flags: W
AnchorPoint: "Anchor-4" 298 370 basechar 0
AnchorPoint: "Anchor-2" 298 0 basechar 0
AnchorPoint: "Anchor-0" 298 740 basechar 0
LayerCount: 2
Fore
SplineSet
52 740 m 1,0,-1
 544 740 l 1,1,-1
 544 645 l 1,2,-1
 345 645 l 1,3,-1
 345 0 l 1,4,-1
 246 0 l 1,5,-1
 246 645 l 1,6,-1
 52 645 l 1,7,-1
 52 740 l 1,0,-1
EndSplineSet
Validated: 1048577
EndChar

StartChar: U
Encoding: 85 85 161
Width: 748
GlyphClass: 2
Flags: W
AnchorPoint: "Anchor-3" 523 10 basechar 0
AnchorPoint: "Anchor-2" 375 0 basechar 0
AnchorPoint: "Anchor-1" 646 809 basechar 0
AnchorPoint: "Anchor-0" 375 753 basechar 0
LayerCount: 2
Fore
SplineSet
196 262 m 2,0,1
 196 212 196 212 220 172.5 c 128,-1,2
 244 133 244 133 284 110.5 c 128,-1,3
 324 88 324 88 374 88 c 0,4,5
 426 88 426 88 467 110.5 c 128,-1,6
 508 133 508 133 531.5 172.5 c 128,-1,7
 555 212 555 212 555 262 c 2,8,-1
 555 740 l 1,9,-1
 652 740 l 1,10,-1
 652 259 l 2,11,12
 652 178 652 178 615 117.5 c 128,-1,13
 578 57 578 57 515 24.5 c 128,-1,14
 452 -8 452 -8 374 -8 c 1,15,-1
 374 -8 l 1,16,17
 296 -8 296 -8 233.5 24.5 c 128,-1,18
 171 57 171 57 134 117.5 c 128,-1,19
 97 178 97 178 97 259 c 2,20,-1
 97 740 l 1,21,-1
 196 740 l 1,22,-1
 196 262 l 2,0,1
EndSplineSet
Validated: 1048581
EndChar

StartChar: Uogonek
Encoding: 370 370 180
Width: 748
GlyphClass: 1
Flags: W
LayerCount: 2
Fore
SplineSet
479 -220 m 0,0,1
 430 -220 430 -220 394.5 -189.5 c 128,-1,2
 359 -159 359 -159 359 -109 c 0,3,4
 359 -75 359 -75 380 -41.5 c 128,-1,5
 401 -8 401 -8 438 11 c 1,6,-1
 467 49 l 1,7,-1
 476 9 l 1,8,9
 429 -8 429 -8 374 -8 c 0,10,11
 291 -8 291 -8 229 25 c 128,-1,12
 167 58 167 58 132 118 c 128,-1,13
 97 178 97 178 97 259 c 2,14,-1
 97 740 l 1,15,-1
 196 740 l 1,16,-1
 196 262 l 2,17,18
 196 212 196 212 220 172.5 c 128,-1,19
 244 133 244 133 284 110.5 c 128,-1,20
 324 88 324 88 374 88 c 0,21,22
 426 88 426 88 467 110.5 c 128,-1,23
 508 133 508 133 531.5 172.5 c 128,-1,24
 555 212 555 212 555 262 c 2,25,-1
 555 740 l 1,26,-1
 652 740 l 1,27,-1
 652 253 l 2,28,29
 652 197 652 197 634 155 c 128,-1,30
 616 113 616 113 587.5 82 c 128,-1,31
 559 51 559 51 527 28 c 0,32,33
 489 -3 489 -3 464 -33 c 128,-1,34
 439 -63 439 -63 439 -101 c 0,35,36
 439 -128 439 -128 454.5 -140 c 128,-1,37
 470 -152 470 -152 488 -152 c 0,38,39
 508 -152 508 -152 526 -139 c 128,-1,40
 544 -126 544 -126 558 -103 c 1,41,-1
 595 -152 l 1,42,43
 577 -182 577 -182 544.5 -201 c 128,-1,44
 512 -220 512 -220 479 -220 c 0,0,1
EndSplineSet
Validated: 5
EndChar

StartChar: V
Encoding: 86 86 183
Width: 736
GlyphClass: 2
Flags: W
AnchorPoint: "Anchor-2" 368 0 basechar 0
AnchorPoint: "Anchor-0" 368 740 basechar 0
LayerCount: 2
Fore
SplineSet
160 740 m 1,0,-1
 403 128 l 1,1,-1
 347 139 l 1,2,-1
 579 740 l 1,3,-1
 694 740 l 1,4,-1
 368 -34 l 1,5,-1
 42 740 l 1,6,-1
 160 740 l 1,0,-1
EndSplineSet
Validated: 1048581
EndChar

StartChar: W
Encoding: 87 87 184
Width: 1032
GlyphClass: 2
Flags: W
AnchorPoint: "Anchor-2" 516 0 basechar 0
AnchorPoint: "Anchor-0" 516 746 basechar 0
LayerCount: 2
Fore
SplineSet
42 736 m 1,0,-1
 157 736 l 1,1,-1
 357 171 l 1,2,-1
 340 178 l 1,3,-1
 486 557 l 1,4,-1
 532 423 l 1,5,-1
 337 -34 l 1,6,-1
 42 736 l 1,0,-1
397 736 m 1,7,-1
 497 736 l 1,8,-1
 714 179 l 1,9,-1
 693 183 l 1,10,-1
 885 736 l 1,11,-1
 990 736 l 1,12,-1
 699 -33 l 1,13,-1
 397 736 l 1,7,-1
EndSplineSet
Validated: 1048581
EndChar

StartChar: X
Encoding: 88 88 189
Width: 688
GlyphClass: 2
Flags: W
AnchorPoint: "Anchor-2" 344 0 basechar 0
AnchorPoint: "Anchor-0" 344 740 basechar 0
LayerCount: 2
Fore
SplineSet
45 740 m 1,0,-1
 171 740 l 1,1,-1
 653 0 l 1,2,-1
 526 0 l 1,3,-1
 45 740 l 1,0,-1
35 0 m 1,4,-1
 292 402 l 1,5,-1
 340 306 l 1,6,-1
 158 0 l 1,7,-1
 35 0 l 1,4,-1
343 438 m 1,8,-1
 523 740 l 1,9,-1
 643 740 l 1,10,-1
 396 355 l 1,11,-1
 343 438 l 1,8,-1
EndSplineSet
Validated: 1048581
EndChar

StartChar: Y
Encoding: 89 89 190
Width: 707
GlyphClass: 2
Flags: W
AnchorPoint: "Anchor-2" 354 0 basechar 0
AnchorPoint: "Anchor-0" 367 751 basechar 0
LayerCount: 2
Fore
SplineSet
303 247 m 1,0,-1
 29 740 l 1,1,-1
 151 740 l 1,2,-1
 371 332 l 1,3,-1
 340 330 l 1,4,-1
 558 740 l 1,5,-1
 679 740 l 1,6,-1
 402 247 l 1,7,-1
 402 0 l 1,8,-1
 303 0 l 1,9,-1
 303 247 l 1,0,-1
EndSplineSet
Validated: 1048581
EndChar

StartChar: Z
Encoding: 90 90 199
Width: 729
GlyphClass: 2
Flags: W
AnchorPoint: "Anchor-2" 365 0 basechar 0
AnchorPoint: "Anchor-0" 365 740 basechar 0
LayerCount: 2
Fore
SplineSet
52 0 m 1049,0,-1
52 672 m 0,1,-1
 506 672 l 17,2,3
 495 657 495 657 472 623.5 c 128,-1,4
 449 590 449 590 418 544.5 c 128,-1,5
 387 499 387 499 351.5 446 c 128,-1,6
 316 393 316 393 279 338 c 128,-1,7
 242 283 242 283 206.5 229.5 c 128,-1,8
 171 176 171 176 140.5 130 c 128,-1,9
 110 84 110 84 86.5 50 c 128,-1,10
 63 16 63 16 52 0 c 1,11,12
 52 0 52 0 674 0 c 1,13,-1
 674 95 l 1,14,-1
 208 95 l 1,15,-1
 214 83 l 1,16,-1
 662 740 l 1,17,-1
 52 740 l 24,18,-1
 52 672 l 0,1,-1
EndSplineSet
Validated: 1048581
EndChar

StartChar: a
Encoding: 97 97 203
Width: 600
GlyphClass: 2
Flags: W
AnchorPoint: "Anchor-3" 588 10 basechar 0
AnchorPoint: "Anchor-2" 300 0 basechar 0
AnchorPoint: "Anchor-0" 313 437 basechar 0
LayerCount: 2
Fore
SplineSet
259 -10 m 0,0,1
 200 -10 200 -10 151 15.5 c 128,-1,2
 102 41 102 41 74 90.5 c 128,-1,3
 46 140 46 140 46 212 c 0,4,5
 46 283 46 283 75.5 334.5 c 128,-1,6
 105 386 105 386 155 413.5 c 128,-1,7
 205 441 205 441 264 441 c 256,8,9
 323 441 323 441 364.5 414 c 128,-1,10
 406 387 406 387 427 350 c 1,11,-1
 421 334 l 1,12,-1
 430 424 l 1,13,-1
 518 424 l 1,14,-1
 518 0 l 1,15,-1
 423 0 l 1,16,-1
 423 111 l 1,17,-1
 433 86 l 1,18,19
 429 76 429 76 415 60 c 128,-1,20
 401 44 401 44 378 27.5 c 128,-1,21
 355 11 355 11 325.5 0.5 c 128,-1,22
 296 -10 296 -10 259 -10 c 0,0,1
285 69 m 0,23,24
 321 69 321 69 349.5 82 c 128,-1,25
 378 95 378 95 397 119 c 128,-1,26
 416 143 416 143 423 177 c 1,27,-1
 423 260 l 1,28,29
 415 291 415 291 394.5 314 c 128,-1,30
 374 337 374 337 345 349.5 c 128,-1,31
 316 362 316 362 282 362 c 0,32,33
 244 362 244 362 212 344 c 128,-1,34
 180 326 180 326 161 293 c 128,-1,35
 142 260 142 260 142 216 c 0,36,37
 142 175 142 175 161.5 141.5 c 128,-1,38
 181 108 181 108 214 88.5 c 128,-1,39
 247 69 247 69 285 69 c 0,23,24
EndSplineSet
Validated: 1048581
Substitution2: "Single Substitution lookup 22 subtable" ordfeminine
Substitution2: "'aalt' Access All Alternates in Latin lookup 0 subtable" ordfeminine
EndChar

StartChar: aogonek
Encoding: 261 261 224
Width: 605
GlyphClass: 2
Flags: W
AnchorPoint: "Anchor-3" 591 10 basechar 0
AnchorPoint: "Anchor-2" 303 0 basechar 0
AnchorPoint: "Anchor-0" 315 424 basechar 0
LayerCount: 2
Fore
SplineSet
259 -10 m 0,0,1
 201 -10 201 -10 152.5 15.5 c 128,-1,2
 104 41 104 41 76 90.5 c 128,-1,3
 48 140 48 140 48 212 c 0,4,5
 48 283 48 283 77 334.5 c 128,-1,6
 106 386 106 386 154.5 413.5 c 128,-1,7
 203 441 203 441 259 441 c 0,8,9
 303 441 303 441 335 429 c 128,-1,10
 367 417 367 417 389.5 396.5 c 128,-1,11
 412 376 412 376 426 350 c 1,12,-1
 433 424 l 1,13,-1
 520 424 l 1,14,-1
 520 1 l 1,15,16
 475 -22 475 -22 446.5 -46 c 128,-1,17
 418 -70 418 -70 418 -101 c 0,18,19
 418 -128 418 -128 433.5 -140 c 128,-1,20
 449 -152 449 -152 467 -152 c 0,21,22
 487 -152 487 -152 504.5 -139 c 128,-1,23
 522 -126 522 -126 537 -103 c 1,24,-1
 573 -152 l 1,25,26
 555 -182 555 -182 522.5 -201 c 128,-1,27
 490 -220 490 -220 459 -220 c 0,28,29
 409 -220 409 -220 373.5 -189.5 c 128,-1,30
 338 -159 338 -159 338 -109 c 0,31,32
 338 -74 338 -74 363 -41 c 128,-1,33
 388 -8 388 -8 429 10 c 1,34,-1
 437 -4 l 1,35,-1
 425 -16 l 1,36,-1
 425 110 l 1,37,-1
 432 86 l 1,38,39
 420 68 420 68 396.5 45.5 c 128,-1,40
 373 23 373 23 339 6.5 c 128,-1,41
 305 -10 305 -10 259 -10 c 0,0,1
285 69 m 0,42,43
 321 69 321 69 350 82 c 128,-1,44
 379 95 379 95 398.5 119 c 128,-1,45
 418 143 418 143 425 177 c 1,46,-1
 425 260 l 1,47,48
 417 291 417 291 397 314 c 128,-1,49
 377 337 377 337 347.5 349.5 c 128,-1,50
 318 362 318 362 285 362 c 0,51,52
 247 362 247 362 214.5 344 c 128,-1,53
 182 326 182 326 163 293 c 128,-1,54
 144 260 144 260 144 216 c 0,55,56
 144 175 144 175 163 141.5 c 128,-1,57
 182 108 182 108 214.5 88.5 c 128,-1,58
 247 69 247 69 285 69 c 0,42,43
EndSplineSet
Validated: 1048581
EndChar

StartChar: ae
Encoding: 230 230 228
Width: 833
GlyphClass: 2
Flags: W
AnchorPoint: "Anchor-2" 416 0 basechar 0
AnchorPoint: "Anchor-0" 416 424 basechar 0
LayerCount: 2
Fore
SplineSet
212 -11 m 0,0,1
 154 -11 154 -11 117.5 6.5 c 128,-1,2
 81 24 81 24 63.5 53.5 c 128,-1,3
 46 83 46 83 46 120 c 0,4,5
 46 162 46 162 70.5 191 c 128,-1,6
 95 220 95 220 134.5 235.5 c 128,-1,7
 174 251 174 251 218 251 c 0,8,9
 266 251 266 251 311.5 234.5 c 128,-1,10
 357 218 357 218 382 193 c 1,11,-1
 366 137 l 1,12,13
 335 163 335 163 307 175 c 128,-1,14
 279 187 279 187 240 187 c 0,15,16
 216 187 216 187 195.5 180.5 c 128,-1,17
 175 174 175 174 163 159.5 c 128,-1,18
 151 145 151 145 151 123 c 0,19,20
 151 93 151 93 173 74.5 c 128,-1,21
 195 56 195 56 238 56 c 0,22,23
 257 56 257 56 279 62.5 c 128,-1,24
 301 69 301 69 321 80.5 c 128,-1,25
 341 92 341 92 353 106 c 1,26,-1
 353 171 l 1,27,-1
 394 171 l 1,28,-1
 395 66 l 1,29,30
 373 38 373 38 342.5 21 c 128,-1,31
 312 4 312 4 278 -3.5 c 128,-1,32
 244 -11 244 -11 212 -11 c 0,0,1
347 202 m 1,33,-1
 347 269 l 2,34,35
 347 307 347 307 330.5 327 c 128,-1,36
 314 347 314 347 292 354 c 128,-1,37
 270 361 270 361 251 361 c 0,38,39
 211 361 211 361 178 342.5 c 128,-1,40
 145 324 145 324 121 295 c 1,41,-1
 73 355 l 1,42,43
 106 390 106 390 153 415 c 128,-1,44
 200 440 200 440 264 440 c 0,45,46
 316 440 316 440 355.5 423.5 c 128,-1,47
 395 407 395 407 417 375 c 128,-1,48
 439 343 439 343 439 295 c 2,49,-1
 439 263 l 1,50,-1
 347 202 l 1,33,-1
581 -10 m 0,51,52
 509 -10 509 -10 456.5 19 c 128,-1,53
 404 48 404 48 375.5 99 c 128,-1,54
 347 150 347 150 347 215 c 0,55,56
 347 277 347 277 379 328.5 c 128,-1,57
 411 380 411 380 464 410.5 c 128,-1,58
 517 441 517 441 583 441 c 0,59,60
 667 441 667 441 722 392 c 128,-1,61
 777 343 777 343 798 257 c 1,62,-1
 449 134 l 1,63,-1
 425 190 l 1,64,-1
 712 295 l 1,65,-1
 692 282 l 1,66,67
 679 316 679 316 651 341 c 128,-1,68
 623 366 623 366 575 366 c 0,69,70
 536 366 536 366 506 347 c 128,-1,71
 476 328 476 328 458.5 295 c 128,-1,72
 441 262 441 262 441 220 c 0,73,74
 441 176 441 176 459 143 c 128,-1,75
 477 110 477 110 509.5 91 c 128,-1,76
 542 72 542 72 583 72 c 0,77,78
 612 72 612 72 638 82 c 128,-1,79
 664 92 664 92 686 109 c 1,80,-1
 730 38 l 1,81,82
 697 16 697 16 658 3 c 128,-1,83
 619 -10 619 -10 581 -10 c 0,51,52
EndSplineSet
Validated: 1048581
EndChar

StartChar: b
Encoding: 98 98 230
Width: 607
GlyphClass: 2
Flags: W
AnchorPoint: "Anchor-2" 304 0 basechar 0
AnchorPoint: "Anchor-0" 304 424 basechar 0
LayerCount: 2
Fore
SplineSet
341 -10 m 0,0,1
 283 -10 283 -10 238.5 15.5 c 128,-1,2
 194 41 194 41 167 80 c 1,3,-1
 178 110 l 1,4,-1
 178 0 l 1,5,-1
 83 0 l 1,6,-1
 83 793 l 1,7,-1
 177 793 l 1,8,-1
 177 327 l 1,9,-1
 174 362 l 1,10,11
 200 397 200 397 247.5 419 c 128,-1,12
 295 441 295 441 353 441 c 0,13,14
 410 441 410 441 457.5 413.5 c 128,-1,15
 505 386 505 386 533 336.5 c 128,-1,16
 561 287 561 287 561 218 c 0,17,18
 561 146 561 146 531 95 c 128,-1,19
 501 44 501 44 450.5 17 c 128,-1,20
 400 -10 400 -10 341 -10 c 0,0,1
322 71 m 0,21,22
 363 71 363 71 395.5 90.5 c 128,-1,23
 428 110 428 110 446.5 143 c 128,-1,24
 465 176 465 176 465 219 c 0,25,26
 465 260 465 260 446 293.5 c 128,-1,27
 427 327 427 327 394.5 346.5 c 128,-1,28
 362 366 362 366 322 366 c 0,29,30
 287 366 287 366 257 352.5 c 128,-1,31
 227 339 227 339 206.5 316 c 128,-1,32
 186 293 186 293 178 262 c 1,33,-1
 178 177 l 1,34,35
 186 146 186 146 205.5 122 c 128,-1,36
 225 98 225 98 255 84.5 c 128,-1,37
 285 71 285 71 322 71 c 0,21,22
EndSplineSet
Validated: 1048581
EndChar

StartChar: c
Encoding: 99 99 231
Width: 466
GlyphClass: 2
Flags: W
AnchorPoint: "Anchor-2" 232 0 basechar 0
AnchorPoint: "Anchor-0" 259 430 basechar 0
LayerCount: 2
Fore
SplineSet
427 39 m 1,0,1
 398 16 398 16 358 3 c 128,-1,2
 318 -10 318 -10 279 -10 c 0,3,4
 209 -10 209 -10 156.5 17.5 c 128,-1,5
 104 45 104 45 75 94.5 c 128,-1,6
 46 144 46 144 46 212 c 256,7,8
 46 280 46 280 77.5 330 c 128,-1,9
 109 380 109 380 159.5 407 c 128,-1,10
 210 434 210 434 268 434 c 0,11,12
 319 434 319 434 359.5 420 c 128,-1,13
 400 406 400 406 429 381 c 1,14,-1
 382 319 l 1,15,16
 364 333 364 333 337 344.5 c 128,-1,17
 310 356 310 356 276 356 c 0,18,19
 239 356 239 356 208 337 c 128,-1,20
 177 318 177 318 159 285.5 c 128,-1,21
 141 253 141 253 141 212 c 0,22,23
 141 173 141 173 159.5 139.5 c 128,-1,24
 178 106 178 106 211 87.5 c 128,-1,25
 244 69 244 69 286 69 c 0,26,27
 314 69 314 69 336.5 77 c 128,-1,28
 359 85 359 85 378 99 c 1,29,-1
 427 39 l 1,0,1
EndSplineSet
Validated: 1048577
EndChar

StartChar: d
Encoding: 100 100 237
Width: 607
GlyphClass: 2
Flags: W
AnchorPoint: "Anchor-4" 474 651 basechar 0
AnchorPoint: "Anchor-2" 303 0 basechar 0
AnchorPoint: "Anchor-1" 587 424 basechar 0
AnchorPoint: "Anchor-0" 303 424 basechar 0
LayerCount: 2
Fore
SplineSet
255 -10 m 0,0,1
 197 -10 197 -10 149 18 c 128,-1,2
 101 46 101 46 73.5 98 c 128,-1,3
 46 150 46 150 46 217 c 0,4,5
 46 288 46 288 75 338 c 128,-1,6
 104 388 104 388 154.5 414.5 c 128,-1,7
 205 441 205 441 267 441 c 0,8,9
 317 441 317 441 363 419.5 c 128,-1,10
 409 398 409 398 434 360 c 1,11,-1
 430 327 l 1,12,-1
 430 793 l 1,13,-1
 524 793 l 1,14,-1
 524 0 l 1,15,-1
 429 0 l 1,16,-1
 429 105 l 1,17,-1
 439 79 l 1,18,19
 409 40 409 40 362 15 c 128,-1,20
 315 -10 315 -10 255 -10 c 0,0,1
285 71 m 256,21,22
 323 71 323 71 352.5 84.5 c 128,-1,23
 382 98 382 98 401.5 122.5 c 128,-1,24
 421 147 421 147 429 181 c 1,25,-1
 429 261 l 1,26,27
 421 292 421 292 400 315 c 128,-1,28
 379 338 379 338 350 352 c 128,-1,29
 321 366 321 366 285 366 c 0,30,31
 246 366 246 366 213.5 347 c 128,-1,32
 181 328 181 328 161.5 295 c 128,-1,33
 142 262 142 262 142 219 c 0,34,35
 142 177 142 177 161.5 144 c 128,-1,36
 181 111 181 111 214 91 c 128,-1,37
 247 71 247 71 285 71 c 256,21,22
EndSplineSet
Validated: 1048581
EndChar

StartChar: eth
Encoding: 240 240 238
Width: 558
GlyphClass: 1
Flags: W
LayerCount: 2
Fore
SplineSet
270 -10 m 0,0,1
 208 -10 208 -10 156.5 18 c 128,-1,2
 105 46 105 46 75.5 96.5 c 128,-1,3
 46 147 46 147 46 216 c 0,4,5
 46 279 46 279 74 330.5 c 128,-1,6
 102 382 102 382 150.5 411.5 c 128,-1,7
 199 441 199 441 257 441 c 0,8,9
 299 441 299 441 333 424 c 128,-1,10
 367 407 367 407 391.5 378.5 c 128,-1,11
 416 350 416 350 430 317 c 128,-1,12
 444 284 444 284 449 251 c 1,13,-1
 415 259 l 1,14,15
 412 335 412 335 391.5 400 c 128,-1,16
 371 465 371 465 336 521.5 c 128,-1,17
 301 578 301 578 254 627.5 c 128,-1,18
 207 677 207 677 150 722 c 1,19,-1
 219 784 l 1,20,21
 280 742 280 742 333.5 682 c 128,-1,22
 387 622 387 622 427 550 c 128,-1,23
 467 478 467 478 489.5 402 c 128,-1,24
 512 326 512 326 512 252 c 0,25,26
 512 202 512 202 495.5 155 c 128,-1,27
 479 108 479 108 448 70.5 c 128,-1,28
 417 33 417 33 372 11.5 c 128,-1,29
 327 -10 327 -10 270 -10 c 0,0,1
279 69 m 0,30,31
 319 69 319 69 350 88.5 c 128,-1,32
 381 108 381 108 398.5 141 c 128,-1,33
 416 174 416 174 416 215 c 256,34,35
 416 256 416 256 398.5 289.5 c 128,-1,36
 381 323 381 323 349.5 342.5 c 128,-1,37
 318 362 318 362 279 362 c 0,38,39
 240 362 240 362 208.5 342 c 128,-1,40
 177 322 177 322 159 288.5 c 128,-1,41
 141 255 141 255 141 215 c 0,42,43
 141 174 141 174 159.5 141 c 128,-1,44
 178 108 178 108 209 88.5 c 128,-1,45
 240 69 240 69 279 69 c 0,30,31
435 691 m 1,46,-1
 194 540 l 1,47,-1
 161 603 l 1,48,-1
 402 753 l 1,49,-1
 435 691 l 1,46,-1
EndSplineSet
Validated: 5
EndChar

StartChar: e
Encoding: 101 101 243
Width: 532
GlyphClass: 2
Flags: W
AnchorPoint: "Anchor-3" 463 10 basechar 0
AnchorPoint: "Anchor-2" 267 0 basechar 0
AnchorPoint: "Anchor-0" 274 437 basechar 0
LayerCount: 2
Fore
SplineSet
280 -10 m 0,0,1
 207 -10 207 -10 154.5 19 c 128,-1,2
 102 48 102 48 74 99 c 128,-1,3
 46 150 46 150 46 215 c 0,4,5
 46 277 46 277 78 328.5 c 128,-1,6
 110 380 110 380 163 410.5 c 128,-1,7
 216 441 216 441 282 441 c 0,8,9
 366 441 366 441 421 392 c 128,-1,10
 476 343 476 343 496 257 c 1,11,-1
 146 134 l 1,12,-1
 124 190 l 1,13,-1
 411 295 l 1,14,-1
 390 282 l 1,15,16
 378 316 378 316 349.5 341 c 128,-1,17
 321 366 321 366 274 366 c 0,18,19
 235 366 235 366 204.5 347 c 128,-1,20
 174 328 174 328 156.5 295 c 128,-1,21
 139 262 139 262 139 220 c 0,22,23
 139 176 139 176 157.5 143 c 128,-1,24
 176 110 176 110 208.5 91 c 128,-1,25
 241 72 241 72 282 72 c 0,26,27
 310 72 310 72 335.5 82 c 128,-1,28
 361 92 361 92 384 109 c 1,29,-1
 428 38 l 1,30,31
 396 16 396 16 357 3 c 128,-1,32
 318 -10 318 -10 280 -10 c 0,0,1
EndSplineSet
Validated: 1048581
EndChar

StartChar: eogonek
Encoding: 281 281 261
Width: 534
GlyphClass: 1
Flags: W
LayerCount: 2
Fore
SplineSet
337 -220 m 0,0,1
 280 -220 280 -220 244.5 -188.5 c 128,-1,2
 209 -157 209 -157 209 -104 c 0,3,4
 209 -72 209 -72 228.5 -41 c 128,-1,5
 248 -10 248 -10 285 9 c 1,6,-1
 382 24 l 1,7,8
 373 14 373 14 354 6.5 c 128,-1,9
 335 -1 335 -1 315.5 -5.5 c 128,-1,10
 296 -10 296 -10 282 -10 c 0,11,12
 210 -10 210 -10 157.5 19 c 128,-1,13
 105 48 105 48 76.5 99 c 128,-1,14
 48 150 48 150 48 215 c 0,15,16
 48 277 48 277 80 328.5 c 128,-1,17
 112 380 112 380 165 410.5 c 128,-1,18
 218 441 218 441 284 441 c 0,19,20
 368 441 368 441 423 392 c 128,-1,21
 478 343 478 343 499 257 c 1,22,-1
 150 134 l 1,23,-1
 128 188 l 1,24,-1
 414 293 l 1,25,-1
 393 282 l 1,26,27
 379 317 379 317 351 341.5 c 128,-1,28
 323 366 323 366 276 366 c 0,29,30
 237 366 237 366 207 347 c 128,-1,31
 177 328 177 328 159.5 295 c 128,-1,32
 142 262 142 262 142 220 c 0,33,34
 142 176 142 176 160.5 142.5 c 128,-1,35
 179 109 179 109 211.5 90.5 c 128,-1,36
 244 72 244 72 284 72 c 0,37,38
 313 72 313 72 339 82 c 128,-1,39
 365 92 365 92 387 109 c 1,40,-1
 431 38 l 1,41,42
 406 23 406 23 381 11 c 128,-1,43
 356 -1 356 -1 335 -14.5 c 128,-1,44
 314 -28 314 -28 301.5 -45.5 c 128,-1,45
 289 -63 289 -63 289 -91 c 256,46,47
 289 -119 289 -119 307 -135.5 c 128,-1,48
 325 -152 325 -152 345 -152 c 0,49,50
 364 -152 364 -152 380 -141.5 c 128,-1,51
 396 -131 396 -131 411 -110 c 1,52,-1
 445 -160 l 1,53,54
 428 -187 428 -187 397.5 -203.5 c 128,-1,55
 367 -220 367 -220 337 -220 c 0,0,1
EndSplineSet
Validated: 5
EndChar

StartChar: uni0259
Encoding: 601 601 263
Width: 532
GlyphClass: 1
Flags: W
LayerCount: 2
Fore
SplineSet
253 434 m 0,0,1
 325 434 325 434 377.5 405 c 128,-1,2
 430 376 430 376 458 324.5 c 128,-1,3
 486 273 486 273 486 209 c 0,4,5
 486 147 486 147 454.5 95.5 c 128,-1,6
 423 44 423 44 369.5 13.5 c 128,-1,7
 316 -17 316 -17 251 -17 c 0,8,9
 167 -17 167 -17 111.5 31.5 c 128,-1,10
 56 80 56 80 37 167 c 1,11,-1
 386 290 l 1,12,-1
 409 233 l 1,13,-1
 122 128 l 1,14,-1
 142 142 l 1,15,16
 154 108 154 108 182.5 83 c 128,-1,17
 211 58 211 58 258 58 c 0,18,19
 297 58 297 58 327.5 77 c 128,-1,20
 358 96 358 96 375.5 129 c 128,-1,21
 393 162 393 162 393 204 c 0,22,23
 393 248 393 248 374.5 281 c 128,-1,24
 356 314 356 314 324 333 c 128,-1,25
 292 352 292 352 251 352 c 0,26,27
 222 352 222 352 196 342.5 c 128,-1,28
 170 333 170 333 147 315 c 1,29,-1
 103 386 l 1,30,31
 136 408 136 408 175.5 421 c 128,-1,32
 215 434 215 434 253 434 c 0,0,1
EndSplineSet
Validated: 5
EndChar

StartChar: f
Encoding: 102 102 264
Width: 388
GlyphClass: 2
Flags: W
AnchorPoint: "Anchor-2" 195 0 basechar 0
AnchorPoint: "Anchor-0" 195 424 basechar 0
LayerCount: 2
Fore
SplineSet
118 0 m 1,0,-1
 118 339 l 1,1,-1
 45 339 l 1,2,-1
 45 424 l 1,3,-1
 118 424 l 1,4,-1
 118 603 l 2,5,6
 118 695 118 695 159.5 744.5 c 128,-1,7
 201 794 201 794 282 794 c 0,8,9
 304 794 304 794 329.5 787.5 c 128,-1,10
 355 781 355 781 375 767 c 1,11,-1
 335 698 l 1,12,13
 326 707 326 707 314.5 711 c 128,-1,14
 303 715 303 715 292 715 c 0,15,16
 254 715 254 715 233.5 689.5 c 128,-1,17
 213 664 213 664 213 602 c 2,18,-1
 213 424 l 1,19,-1
 347 424 l 1,20,-1
 347 339 l 1,21,-1
 213 339 l 1,22,-1
 213 0 l 1,23,-1
 118 0 l 1,0,-1
EndSplineSet
Validated: 1048577
EndChar

StartChar: g
Encoding: 103 103 265
Width: 612
GlyphClass: 2
Flags: W
AnchorPoint: "Anchor-2" 306 0 basechar 0
AnchorPoint: "Anchor-0" 306 437 basechar 0
LayerCount: 2
Fore
SplineSet
287 -210 m 0,0,1
 240 -210 240 -210 204 -199 c 128,-1,2
 168 -188 168 -188 139 -169 c 128,-1,3
 110 -150 110 -150 83 -125 c 1,4,-1
 138 -60 l 1,5,6
 172 -92 172 -92 207 -109.5 c 128,-1,7
 242 -127 242 -127 285 -127 c 0,8,9
 333 -127 333 -127 366 -111 c 128,-1,10
 399 -95 399 -95 416.5 -67 c 128,-1,11
 434 -39 434 -39 434 -2 c 2,12,-1
 435 113 l 1,13,-1
 443 94 l 1,14,15
 425 50 425 50 377 20 c 128,-1,16
 329 -10 329 -10 260 -10 c 0,17,18
 202 -10 202 -10 153 19.5 c 128,-1,19
 104 49 104 49 75 100 c 128,-1,20
 46 151 46 151 46 214 c 0,21,22
 46 281 46 281 77 331.5 c 128,-1,23
 108 382 108 382 158 411.5 c 128,-1,24
 208 441 208 441 267 441 c 0,25,26
 323 441 323 441 370 418 c 128,-1,27
 417 395 417 395 438 359 c 1,28,-1
 433 342 l 1,29,-1
 443 424 l 1,30,-1
 530 424 l 1,31,-1
 530 -3 l 2,32,33
 530 -60 530 -60 500.5 -107.5 c 128,-1,34
 471 -155 471 -155 417 -182.5 c 128,-1,35
 363 -210 363 -210 287 -210 c 0,0,1
141 216 m 0,36,37
 141 175 141 175 160.5 141.5 c 128,-1,38
 180 108 180 108 213.5 88.5 c 128,-1,39
 247 69 247 69 288 69 c 0,40,41
 326 69 326 69 356 82.5 c 128,-1,42
 386 96 386 96 406.5 120 c 128,-1,43
 427 144 427 144 435 176 c 1,44,-1
 435 260 l 1,45,46
 426 291 426 291 404.5 314 c 128,-1,47
 383 337 383 337 353.5 349.5 c 128,-1,48
 324 362 324 362 288 362 c 0,49,50
 247 362 247 362 213.5 344 c 128,-1,51
 180 326 180 326 160.5 292.5 c 128,-1,52
 141 259 141 259 141 216 c 0,36,37
EndSplineSet
Validated: 1048581
EndChar

StartChar: uni0123
Encoding: 291 291 269
Width: 580
GlyphClass: 1
Flags: W
LayerCount: 2
Fore
SplineSet
237 519 m 1,0,1
 260 573 260 573 281.5 626.5 c 128,-1,2
 303 680 303 680 326 733 c 1,3,-1
 402 733 l 1,4,5
 383 680 383 680 363 626.5 c 128,-1,6
 343 573 343 573 323 519 c 1,7,-1
 237 519 l 1,0,1
287 -210 m 0,8,9
 240 -210 240 -210 204 -199 c 128,-1,10
 168 -188 168 -188 139 -169 c 128,-1,11
 110 -150 110 -150 83 -125 c 1,12,-1
 138 -60 l 1,13,14
 172 -92 172 -92 207 -109.5 c 128,-1,15
 242 -127 242 -127 285 -127 c 0,16,17
 333 -127 333 -127 366 -111 c 128,-1,18
 399 -95 399 -95 416.5 -67 c 128,-1,19
 434 -39 434 -39 434 -2 c 2,20,-1
 435 113 l 1,21,-1
 443 94 l 1,22,23
 425 50 425 50 377 20 c 128,-1,24
 329 -10 329 -10 260 -10 c 0,25,26
 202 -10 202 -10 153 19.5 c 128,-1,27
 104 49 104 49 75 100 c 128,-1,28
 46 151 46 151 46 214 c 0,29,30
 46 281 46 281 77 331.5 c 128,-1,31
 108 382 108 382 158 411.5 c 128,-1,32
 208 441 208 441 267 441 c 0,33,34
 323 441 323 441 370 418 c 128,-1,35
 417 395 417 395 438 359 c 1,36,-1
 433 342 l 1,37,-1
 443 424 l 1,38,-1
 530 424 l 1,39,-1
 530 -3 l 2,40,41
 530 -60 530 -60 500.5 -107.5 c 128,-1,42
 471 -155 471 -155 417 -182.5 c 128,-1,43
 363 -210 363 -210 287 -210 c 0,8,9
141 216 m 0,44,45
 141 175 141 175 160.5 141.5 c 128,-1,46
 180 108 180 108 213.5 88.5 c 128,-1,47
 247 69 247 69 288 69 c 0,48,49
 326 69 326 69 356 82.5 c 128,-1,50
 386 96 386 96 406.5 120 c 128,-1,51
 427 144 427 144 435 176 c 1,52,-1
 435 260 l 1,53,54
 426 291 426 291 404.5 314 c 128,-1,55
 383 337 383 337 353.5 349.5 c 128,-1,56
 324 362 324 362 288 362 c 0,57,58
 247 362 247 362 213.5 344 c 128,-1,59
 180 326 180 326 160.5 292.5 c 128,-1,60
 141 259 141 259 141 216 c 0,44,45
EndSplineSet
Validated: 5
EndChar

StartChar: h
Encoding: 104 104 271
Width: 566
GlyphClass: 2
Flags: W
AnchorPoint: "Anchor-4" 139 615 basechar 0
AnchorPoint: "Anchor-2" 283 0 basechar 0
AnchorPoint: "Anchor-0" 127 787 basechar 0
LayerCount: 2
Fore
SplineSet
83 0 m 1,0,-1
 83 793 l 1,1,-1
 176 793 l 1,2,-1
 176 326 l 1,3,-1
 174 343 l 1,4,5
 196 385 196 385 240.5 412.5 c 128,-1,6
 285 440 285 440 345 440 c 256,7,8
 405 440 405 440 443.5 405 c 128,-1,9
 482 370 482 370 483 313 c 2,10,-1
 483 0 l 1,11,-1
 387 0 l 1,12,-1
 387 280 l 2,13,14
 386 315 386 315 367 336.5 c 128,-1,15
 348 358 348 358 308 358 c 0,16,17
 271 358 271 358 241.5 337 c 128,-1,18
 212 316 212 316 195 280.5 c 128,-1,19
 178 245 178 245 178 199 c 2,20,-1
 178 0 l 1,21,-1
 83 0 l 1,0,-1
EndSplineSet
Validated: 1048581
EndChar

StartChar: dotlessi
Encoding: 305 305 275
Width: 260
GlyphClass: 2
Flags: W
AnchorPoint: "Anchor-3" 259 10 basechar 0
AnchorPoint: "Anchor-2" 122 0 basechar 0
AnchorPoint: "Anchor-0" 131 424 basechar 0
LayerCount: 2
Fore
SplineSet
83 424 m 1,0,-1
 178 424 l 1,1,-1
 178 0 l 1,2,-1
 83 0 l 1,3,-1
 83 424 l 1,0,-1
EndSplineSet
Validated: 1048577
EndChar

StartChar: iogonek
Encoding: 303 303 288
Width: 264
GlyphClass: 1
Flags: W
LayerCount: 2
Fore
SplineSet
118 -220 m 0,0,1
 69 -220 69 -220 33.5 -189.5 c 128,-1,2
 -2 -159 -2 -159 -2 -109 c 0,3,4
 -2 -73 -2 -73 23.5 -40 c 128,-1,5
 49 -7 49 -7 90 11 c 1,6,-1
 161 8 l 1,7,-1
 179 0 l 1,8,9
 132 -23 132 -23 105 -46.5 c 128,-1,10
 78 -70 78 -70 78 -101 c 0,11,12
 78 -128 78 -128 93.5 -140 c 128,-1,13
 109 -152 109 -152 127 -152 c 0,14,15
 147 -152 147 -152 164.5 -139 c 128,-1,16
 182 -126 182 -126 197 -103 c 1,17,-1
 233 -152 l 1,18,19
 215 -182 215 -182 183 -201 c 128,-1,20
 151 -220 151 -220 118 -220 c 0,0,1
83 424 m 1,21,-1
 178 424 l 1,22,-1
 178 0 l 1,23,-1
 83 0 l 1,24,-1
 83 424 l 1,21,-1
75 563 m 0,25,26
 75 586 75 586 93 601 c 128,-1,27
 111 616 111 616 131 616 c 0,28,29
 153 616 153 616 170 601 c 128,-1,30
 187 586 187 586 187 563 c 0,31,32
 187 539 187 539 170 524.5 c 128,-1,33
 153 510 153 510 131 510 c 0,34,35
 111 510 111 510 93 524.5 c 128,-1,36
 75 539 75 539 75 563 c 0,25,26
EndSplineSet
Validated: 5
EndChar

StartChar: uni0237
Encoding: 567 567 291
Width: 265
GlyphClass: 2
Flags: W
AnchorPoint: "Anchor-2" 139 0 basechar 0
AnchorPoint: "Anchor-0" 141 424 basechar 0
LayerCount: 2
Fore
SplineSet
88 -204 m 1,0,-1
 32 -145 l 1,1,2
 61 -120 61 -120 77 -84 c 128,-1,3
 93 -48 93 -48 93 1 c 2,4,-1
 93 424 l 1,5,-1
 189 424 l 1,6,-1
 189 -3 l 2,7,8
 189 -75 189 -75 165 -124.5 c 128,-1,9
 141 -174 141 -174 88 -204 c 1,0,-1
EndSplineSet
Validated: 1048577
EndChar

StartChar: k
Encoding: 107 107 293
Width: 509
GlyphClass: 2
Flags: W
AnchorPoint: "Anchor-2" 255 0 basechar 0
AnchorPoint: "Anchor-0" 255 424 basechar 0
LayerCount: 2
Fore
SplineSet
83 0 m 1,0,-1
 83 793 l 1,1,-1
 178 793 l 1,2,-1
 178 0 l 1,3,-1
 83 0 l 1,0,-1
281 282 m 1,4,-1
 475 0 l 1,5,-1
 364 0 l 1,6,-1
 217 228 l 1,7,-1
 281 282 l 1,4,-1
148 135 m 1,8,-1
 139 226 l 1,9,-1
 396 433 l 1,10,-1
 455 383 l 1,11,-1
 148 135 l 1,8,-1
EndSplineSet
Validated: 1048581
EndChar

StartChar: kgreenlandic
Encoding: 312 312 295
Width: 519
GlyphClass: 1
Flags: W
LayerCount: 2
Fore
SplineSet
170 129 m 1,0,-1
 156 213 l 1,1,-1
 356 424 l 1,2,-1
 472 424 l 1,3,-1
 170 129 l 1,0,-1
178 0 m 1,4,-1
 83 0 l 1,5,-1
 83 424 l 1,6,-1
 178 424 l 1,7,-1
 178 0 l 1,4,-1
272 243 m 1,8,-1
 473 0 l 1,9,-1
 361 0 l 1,10,-1
 200 201 l 1,11,-1
 272 243 l 1,8,-1
EndSplineSet
Validated: 5
EndChar

StartChar: l
Encoding: 108 108 296
Width: 260
GlyphClass: 2
Flags: W
AnchorPoint: "Anchor-4" 130 212 basechar 0
AnchorPoint: "Anchor-2" 130 0 basechar 0
AnchorPoint: "Anchor-1" 240 424 basechar 0
AnchorPoint: "Anchor-0" 133 805 basechar 0
LayerCount: 2
Fore
SplineSet
83 793 m 1,0,-1
 178 793 l 1,1,-1
 178 0 l 1,2,-1
 83 0 l 1,3,-1
 83 793 l 1,0,-1
EndSplineSet
Validated: 1048577
EndChar

StartChar: lslash
Encoding: 322 322 302
Width: 273
GlyphClass: 1
Flags: W
LayerCount: 2
Fore
SplineSet
261 398 m 1,0,-1
 261 315 l 1,1,-1
 20 251 l 1,2,-1
 20 334 l 1,3,-1
 261 398 l 1,0,-1
89 793 m 1,4,-1
 184 793 l 1,5,-1
 184 0 l 1,6,-1
 89 0 l 1,7,-1
 89 793 l 1,4,-1
EndSplineSet
Validated: 5
EndChar

StartChar: m
Encoding: 109 109 303
Width: 844
GlyphClass: 2
Flags: W
AnchorPoint: "Anchor-2" 423 0 basechar 0
AnchorPoint: "Anchor-0" 423 424 basechar 0
LayerCount: 2
Fore
SplineSet
168 424 m 1,0,-1
 176 329 l 1,1,-1
 172 337 l 1,2,3
 196 385 196 385 239.5 412.5 c 128,-1,4
 283 440 283 440 339 440 c 0,5,6
 375 440 375 440 402.5 429 c 128,-1,7
 430 418 430 418 448 397 c 128,-1,8
 466 376 466 376 471 345 c 1,9,-1
 466 342 l 1,10,11
 491 388 491 388 534.5 414 c 128,-1,12
 578 440 578 440 626 440 c 0,13,14
 688 440 688 440 724.5 405 c 128,-1,15
 761 370 761 370 762 313 c 2,16,-1
 762 0 l 1,17,-1
 667 0 l 1,18,-1
 667 280 l 2,19,20
 666 313 666 313 651 334.5 c 128,-1,21
 636 356 636 356 599 358 c 0,22,23
 562 358 562 358 533 335.5 c 128,-1,24
 504 313 504 313 487.5 278 c 128,-1,25
 471 243 471 243 470 202 c 2,26,-1
 470 0 l 1,27,-1
 375 0 l 1,28,-1
 375 280 l 2,29,30
 374 313 374 313 358 334.5 c 128,-1,31
 342 356 342 356 305 358 c 0,32,33
 267 358 267 358 238.5 335.5 c 128,-1,34
 210 313 210 313 194 277.5 c 128,-1,35
 178 242 178 242 178 201 c 2,36,-1
 178 0 l 1,37,-1
 83 0 l 1,38,-1
 83 424 l 1,39,-1
 168 424 l 1,0,-1
EndSplineSet
Validated: 1048581
EndChar

StartChar: n
Encoding: 110 110 304
Width: 566
GlyphClass: 2
Flags: W
AnchorPoint: "Anchor-2" 283 0 basechar 0
AnchorPoint: "Anchor-0" 283 430 basechar 0
LayerCount: 2
Fore
SplineSet
168 424 m 1,0,-1
 176 321 l 1,1,-1
 172 337 l 1,2,3
 192 384 192 384 238.5 412 c 128,-1,4
 285 440 285 440 345 440 c 256,5,6
 405 440 405 440 443.5 405 c 128,-1,7
 482 370 482 370 483 313 c 2,8,-1
 483 0 l 1,9,-1
 387 0 l 1,10,-1
 387 280 l 2,11,12
 386 315 386 315 367 336.5 c 128,-1,13
 348 358 348 358 308 358 c 0,14,15
 271 358 271 358 241.5 337.5 c 128,-1,16
 212 317 212 317 195 281.5 c 128,-1,17
 178 246 178 246 178 199 c 2,18,-1
 178 0 l 1,19,-1
 83 0 l 1,20,-1
 83 424 l 1,21,-1
 168 424 l 1,0,-1
EndSplineSet
Validated: 1048581
EndChar

StartChar: eng
Encoding: 331 331 309
Width: 566
GlyphClass: 2
Flags: W
AnchorPoint: "Anchor-2" 283 0 basechar 0
AnchorPoint: "Anchor-0" 283 430 basechar 0
LayerCount: 2
Fore
SplineSet
483 2 m 2,0,1
 483 -66 483 -66 458.5 -119 c 128,-1,2
 434 -172 434 -172 383 -204 c 1,3,-1
 327 -145 l 1,4,5
 356 -120 356 -120 371.5 -84 c 128,-1,6
 387 -48 387 -48 387 1 c 2,7,-1
 387 280 l 2,8,9
 386 315 386 315 367 336.5 c 128,-1,10
 348 358 348 358 308 358 c 0,11,12
 271 358 271 358 241.5 337.5 c 128,-1,13
 212 317 212 317 195 281.5 c 128,-1,14
 178 246 178 246 178 199 c 2,15,-1
 178 0 l 1,16,-1
 83 0 l 1,17,-1
 83 424 l 1,18,-1
 168 424 l 1,19,-1
 176 337 l 1,20,21
 196 384 196 384 240.5 412 c 128,-1,22
 285 440 285 440 345 440 c 256,23,24
 405 440 405 440 443.5 405 c 128,-1,25
 482 370 482 370 483 313 c 2,26,-1
 483 2 l 2,0,1
EndSplineSet
Validated: 1048577
EndChar

StartChar: uni0272
Encoding: 626 626 310
Width: 566
GlyphClass: 2
Flags: W
AnchorPoint: "Anchor-2" 283 0 basechar 0
AnchorPoint: "Anchor-0" 283 430 basechar 0
LayerCount: 2
Fore
SplineSet
80 -204 m 1,0,-1
 24 -145 l 1,1,2
 53 -120 53 -120 69 -84 c 128,-1,3
 85 -48 85 -48 85 1 c 2,4,-1
 85 46 l 1,5,-1
 180 46 l 1,6,-1
 180 -3 l 2,7,8
 180 -72 180 -72 152.5 -122 c 128,-1,9
 125 -172 125 -172 80 -204 c 1,0,-1
168 424 m 1,10,-1
 176 321 l 1,11,-1
 172 337 l 1,12,13
 192 384 192 384 238.5 412 c 128,-1,14
 285 440 285 440 345 440 c 256,15,16
 405 440 405 440 443.5 405 c 128,-1,17
 482 370 482 370 483 313 c 2,18,-1
 483 0 l 1,19,-1
 387 0 l 1,20,-1
 387 280 l 2,21,22
 386 315 386 315 367 336.5 c 128,-1,23
 348 358 348 358 308 358 c 0,24,25
 271 358 271 358 241.5 337.5 c 128,-1,26
 212 317 212 317 195 281.5 c 128,-1,27
 178 246 178 246 178 199 c 2,28,-1
 178 0 l 1,29,-1
 83 0 l 1,30,-1
 83 424 l 1,31,-1
 168 424 l 1,10,-1
EndSplineSet
Validated: 1048581
EndChar

StartChar: o
Encoding: 111 111 313
Width: 558
GlyphClass: 2
Flags: W
AnchorPoint: "Anchor-4" 280 212 basechar 0
AnchorPoint: "Anchor-3" 490 10 basechar 0
AnchorPoint: "Anchor-2" 280 0 basechar 0
AnchorPoint: "Anchor-1" 421 424 basechar 0
AnchorPoint: "Anchor-0" 280 437 basechar 0
LayerCount: 2
Fore
SplineSet
46 216 m 0,0,1
 46 279 46 279 76 330.5 c 128,-1,2
 106 382 106 382 159.5 411.5 c 128,-1,3
 213 441 213 441 281 441 c 0,4,5
 351 441 351 441 403 411.5 c 128,-1,6
 455 382 455 382 483.5 331 c 128,-1,7
 512 280 512 280 512 216 c 256,8,9
 512 153 512 153 483.5 101 c 128,-1,10
 455 49 455 49 402 19.5 c 128,-1,11
 349 -10 349 -10 280 -10 c 0,12,13
 212 -10 212 -10 159 18 c 128,-1,14
 106 46 106 46 76 96.5 c 128,-1,15
 46 147 46 147 46 216 c 0,0,1
141 215 m 0,16,17
 141 174 141 174 159.5 141 c 128,-1,18
 178 108 178 108 209.5 88.5 c 128,-1,19
 241 69 241 69 279 69 c 0,20,21
 319 69 319 69 350 88.5 c 128,-1,22
 381 108 381 108 398.5 141 c 128,-1,23
 416 174 416 174 416 215 c 256,24,25
 416 256 416 256 398.5 289.5 c 128,-1,26
 381 323 381 323 349.5 342.5 c 128,-1,27
 318 362 318 362 279 362 c 0,28,29
 240 362 240 362 208.5 342 c 128,-1,30
 177 322 177 322 159 288.5 c 128,-1,31
 141 255 141 255 141 215 c 0,16,17
EndSplineSet
Validated: 1
Substitution2: "Single Substitution lookup 22 subtable" ordmasculine
Substitution2: "'aalt' Access All Alternates in Latin lookup 0 subtable" ordmasculine
EndChar

StartChar: uni1EE1
Encoding: 7905 7905 334
Width: 558
GlyphClass: 1
Flags: W
LayerCount: 2
Fore
SplineSet
335 487 m 0,0,1
 306 487 306 487 287 500.5 c 128,-1,2
 268 514 268 514 253 528 c 0,3,4
 242 538 242 538 231 546.5 c 128,-1,5
 220 555 220 555 206 555 c 0,6,7
 194 555 194 555 185 547 c 128,-1,8
 176 539 176 539 171.5 523.5 c 128,-1,9
 167 508 167 508 167 486 c 1,10,-1
 123 486 l 1,11,12
 122 522 122 522 131.5 550.5 c 128,-1,13
 141 579 141 579 161.5 594.5 c 128,-1,14
 182 610 182 610 210 610 c 0,15,16
 234 610 234 610 250.5 597.5 c 128,-1,17
 267 585 267 585 283 570 c 0,18,19
 295 558 295 558 306.5 549 c 128,-1,20
 318 540 318 540 334 540 c 0,21,22
 351 540 351 540 359.5 559 c 128,-1,23
 368 578 368 578 368 611 c 1,24,-1
 412 611 l 1,25,26
 416 572 416 572 406 544.5 c 128,-1,27
 396 517 396 517 377.5 502 c 128,-1,28
 359 487 359 487 335 487 c 0,0,1
46 216 m 0,29,30
 46 279 46 279 76 330.5 c 128,-1,31
 106 382 106 382 159.5 411.5 c 128,-1,32
 213 441 213 441 281 441 c 0,33,34
 351 441 351 441 403 411.5 c 128,-1,35
 455 382 455 382 483.5 331 c 128,-1,36
 512 280 512 280 512 216 c 256,37,38
 512 153 512 153 483.5 101 c 128,-1,39
 455 49 455 49 402 19.5 c 128,-1,40
 349 -10 349 -10 280 -10 c 0,41,42
 212 -10 212 -10 159 18 c 128,-1,43
 106 46 106 46 76 96.5 c 128,-1,44
 46 147 46 147 46 216 c 0,29,30
141 215 m 0,45,46
 141 174 141 174 159.5 141 c 128,-1,47
 178 108 178 108 209.5 88.5 c 128,-1,48
 241 69 241 69 279 69 c 0,49,50
 319 69 319 69 350 88.5 c 128,-1,51
 381 108 381 108 398.5 141 c 128,-1,52
 416 174 416 174 416 215 c 256,53,54
 416 256 416 256 398.5 289.5 c 128,-1,55
 381 323 381 323 349.5 342.5 c 128,-1,56
 318 362 318 362 279 362 c 0,57,58
 240 362 240 362 208.5 342 c 128,-1,59
 177 322 177 322 159 288.5 c 128,-1,60
 141 255 141 255 141 215 c 0,45,46
359 424 m 1,61,62
 401 424 401 424 424 446 c 128,-1,63
 447 468 447 468 454 519 c 1,64,-1
 525 519 l 1,65,66
 518 457 518 457 495 423.5 c 128,-1,67
 472 390 472 390 437.5 378 c 128,-1,68
 403 366 403 366 359 366 c 1,69,-1
 359 424 l 1,61,62
EndSplineSet
Validated: 37
EndChar

StartChar: uni01EB
Encoding: 491 491 338
Width: 562
GlyphClass: 1
Flags: W
LayerCount: 2
Fore
SplineSet
358 -220 m 0,0,1
 327 -220 327 -220 301 -206.5 c 128,-1,2
 275 -193 275 -193 259 -167 c 128,-1,3
 243 -141 243 -141 243 -103 c 0,4,5
 243 -61 243 -61 268.5 -28.5 c 128,-1,6
 294 4 294 4 335 25 c 1,7,-1
 375 26 l 1,8,9
 359 12 359 12 333.5 1 c 128,-1,10
 308 -10 308 -10 282 -10 c 0,11,12
 214 -10 214 -10 161.5 18 c 128,-1,13
 109 46 109 46 78.5 96.5 c 128,-1,14
 48 147 48 147 48 216 c 0,15,16
 48 279 48 279 78.5 330 c 128,-1,17
 109 381 109 381 162 411 c 128,-1,18
 215 441 215 441 283 441 c 0,19,20
 353 441 353 441 405 411.5 c 128,-1,21
 457 382 457 382 485.5 331 c 128,-1,22
 514 280 514 280 514 216 c 0,23,24
 514 157 514 157 486 106.5 c 128,-1,25
 458 56 458 56 410 22 c 0,26,27
 373 -7 373 -7 348 -33 c 128,-1,28
 323 -59 323 -59 323 -96 c 0,29,30
 323 -123 323 -123 338 -137.5 c 128,-1,31
 353 -152 353 -152 372 -152 c 0,32,33
 392 -152 392 -152 409.5 -139 c 128,-1,34
 427 -126 427 -126 441 -103 c 1,35,-1
 478 -152 l 1,36,37
 460 -182 460 -182 426.5 -201 c 128,-1,38
 393 -220 393 -220 358 -220 c 0,0,1
281 69 m 0,39,40
 321 69 321 69 352 88.5 c 128,-1,41
 383 108 383 108 400.5 141 c 128,-1,42
 418 174 418 174 418 215 c 256,43,44
 418 256 418 256 400.5 289.5 c 128,-1,45
 383 323 383 323 352 342.5 c 128,-1,46
 321 362 321 362 281 362 c 0,47,48
 242 362 242 362 210.5 342 c 128,-1,49
 179 322 179 322 161 288.5 c 128,-1,50
 143 255 143 255 143 215 c 0,51,52
 143 174 143 174 161.5 141 c 128,-1,53
 180 108 180 108 211 88.5 c 128,-1,54
 242 69 242 69 281 69 c 0,39,40
EndSplineSet
Validated: 5
EndChar

StartChar: oslash
Encoding: 248 248 339
Width: 533
GlyphClass: 2
Flags: W
AnchorPoint: "Anchor-0" 266 424 basechar 0
LayerCount: 2
Fore
SplineSet
485 414 m 1,0,-1
 104 -24 l 1,1,-1
 58 19 l 1,2,-1
 436 455 l 1,3,-1
 485 414 l 1,0,-1
46 216 m 0,4,5
 46 279 46 279 76 330.5 c 128,-1,6
 106 382 106 382 159.5 411.5 c 128,-1,7
 213 441 213 441 281 441 c 0,8,9
 351 441 351 441 403 411.5 c 128,-1,10
 455 382 455 382 483.5 331 c 128,-1,11
 512 280 512 280 512 216 c 256,12,13
 512 153 512 153 483.5 101 c 128,-1,14
 455 49 455 49 402 19.5 c 128,-1,15
 349 -10 349 -10 280 -10 c 0,16,17
 212 -10 212 -10 159 18 c 128,-1,18
 106 46 106 46 76 96.5 c 128,-1,19
 46 147 46 147 46 216 c 0,4,5
141 215 m 0,20,21
 141 174 141 174 159.5 141 c 128,-1,22
 178 108 178 108 209.5 88.5 c 128,-1,23
 241 69 241 69 279 69 c 0,24,25
 319 69 319 69 350 88.5 c 128,-1,26
 381 108 381 108 398.5 141 c 128,-1,27
 416 174 416 174 416 215 c 256,28,29
 416 256 416 256 398.5 289.5 c 128,-1,30
 381 323 381 323 349.5 342.5 c 128,-1,31
 318 362 318 362 279 362 c 0,32,33
 240 362 240 362 208.5 342 c 128,-1,34
 177 322 177 322 159 288.5 c 128,-1,35
 141 255 141 255 141 215 c 0,20,21
EndSplineSet
Validated: 1048581
EndChar

StartChar: p
Encoding: 112 112 344
Width: 629
GlyphClass: 2
Flags: WO
AnchorPoint: "Anchor-2" 304 0 basechar 0
AnchorPoint: "Anchor-0" 304 424 basechar 0
LayerCount: 2
Fore
SplineSet
333 -10 m 0,0,1
 285 -10 285 -10 240.5 12.5 c 128,-1,2
 196 35 196 35 171 73 c 1,3,-1
 177 102 l 1,4,-1
 177 -204 l 1,5,-1
 83 -204 l 1,6,-1
 83 430 l 1,7,-1
 165 430 l 1,8,-1
 178 322 l 1,9,-1
 168 351 l 1,10,11
 199 390 199 390 246 415.5 c 128,-1,12
 293 441 293 441 351 441 c 0,13,14
 410 441 410 441 458 412.5 c 128,-1,15
 506 384 506 384 533.5 333 c 128,-1,16
 561 282 561 282 561 213 c 256,17,18
 561 144 561 144 531.5 94 c 128,-1,19
 502 44 502 44 450.5 17 c 128,-1,20
 399 -10 399 -10 333 -10 c 0,0,1
314 66 m 0,21,22
 355 66 355 66 389.5 84.5 c 128,-1,23
 424 103 424 103 444.5 136.5 c 128,-1,24
 465 170 465 170 465 212 c 0,25,26
 465 255 465 255 445.5 288.5 c 128,-1,27
 426 322 426 322 393.5 341 c 128,-1,28
 361 360 361 360 322 360 c 0,29,30
 285 360 285 360 255 346 c 128,-1,31
 225 332 225 332 205.5 307 c 128,-1,32
 186 282 186 282 178 249 c 1,33,-1
 178 178 l 1,34,35
 183 145 183 145 202.5 119.5 c 128,-1,36
 222 94 222 94 251 80 c 128,-1,37
 280 66 280 66 314 66 c 0,21,22
EndSplineSet
EndChar

StartChar: thorn
Encoding: 254 254 345
Width: 598
GlyphClass: 1
Flags: W
LayerCount: 2
Fore
SplineSet
331 -10 m 0,0,1
 299 -10 299 -10 268 0.5 c 128,-1,2
 237 11 237 11 211.5 29.5 c 128,-1,3
 186 48 186 48 172 74 c 1,4,-1
 175 110 l 1,5,-1
 175 -204 l 1,6,-1
 81 -204 l 1,7,-1
 81 793 l 1,8,-1
 176 793 l 1,9,-1
 176 324 l 1,10,-1
 165 346 l 1,11,12
 183 374 183 374 211.5 395 c 128,-1,13
 240 416 240 416 275 428.5 c 128,-1,14
 310 441 310 441 349 441 c 0,15,16
 409 441 409 441 456.5 412.5 c 128,-1,17
 504 384 504 384 531.5 333 c 128,-1,18
 559 282 559 282 559 213 c 256,19,20
 559 144 559 144 529.5 94 c 128,-1,21
 500 44 500 44 448.5 17 c 128,-1,22
 397 -10 397 -10 331 -10 c 0,0,1
313 67 m 0,23,24
 354 67 354 67 388 85.5 c 128,-1,25
 422 104 422 104 442.5 137 c 128,-1,26
 463 170 463 170 463 212 c 256,27,28
 463 254 463 254 443 288 c 128,-1,29
 423 322 423 322 390.5 341 c 128,-1,30
 358 360 358 360 319 360 c 0,31,32
 282 360 282 360 252.5 346 c 128,-1,33
 223 332 223 332 203.5 307 c 128,-1,34
 184 282 184 282 176 249 c 1,35,-1
 176 175 l 1,36,37
 182 143 182 143 201.5 118.5 c 128,-1,38
 221 94 221 94 249.5 80.5 c 128,-1,39
 278 67 278 67 313 67 c 0,23,24
EndSplineSet
Validated: 5
EndChar

StartChar: q
Encoding: 113 113 346
Width: 607
GlyphClass: 2
Flags: W
AnchorPoint: "Anchor-2" 303 0 basechar 0
AnchorPoint: "Anchor-0" 303 424 basechar 0
LayerCount: 2
Fore
SplineSet
253 -10 m 0,0,1
 197 -10 197 -10 149.5 17.5 c 128,-1,2
 102 45 102 45 74 94.5 c 128,-1,3
 46 144 46 144 46 212 c 0,4,5
 46 282 46 282 76 333 c 128,-1,6
 106 384 106 384 157 412.5 c 128,-1,7
 208 441 208 441 268 441 c 0,8,9
 325 441 325 441 369.5 416 c 128,-1,10
 414 391 414 391 440 351 c 1,11,-1
 429 322 l 1,12,-1
 429 430 l 1,13,-1
 524 430 l 1,14,-1
 524 -204 l 1,15,-1
 430 -204 l 1,16,-1
 430 109 l 1,17,-1
 434 69 l 1,18,19
 409 34 409 34 361 12 c 128,-1,20
 313 -10 313 -10 253 -10 c 0,0,1
285 66 m 0,21,22
 322 66 322 66 352.5 80 c 128,-1,23
 383 94 383 94 403 119 c 128,-1,24
 423 144 423 144 429 177 c 1,25,-1
 429 249 l 1,26,27
 421 282 421 282 401.5 307 c 128,-1,28
 382 332 382 332 352.5 346 c 128,-1,29
 323 360 323 360 285 360 c 256,30,31
 247 360 247 360 214 341 c 128,-1,32
 181 322 181 322 161.5 288 c 128,-1,33
 142 254 142 254 142 212 c 256,34,35
 142 170 142 170 161.5 137 c 128,-1,36
 181 104 181 104 214 85 c 128,-1,37
 247 66 247 66 285 66 c 0,21,22
EndSplineSet
Validated: 1048581
EndChar

StartChar: r
Encoding: 114 114 347
Width: 385
GlyphClass: 2
Flags: W
AnchorPoint: "Anchor-2" 142 0 basechar 0
AnchorPoint: "Anchor-0" 185 424 basechar 0
LayerCount: 2
Fore
SplineSet
168 424 m 1,0,-1
 177 301 l 1,1,-1
 172 317 l 1,2,3
 188 356 188 356 219.5 383.5 c 128,-1,4
 251 411 251 411 285 425.5 c 128,-1,5
 319 440 319 440 345 440 c 1,6,-1
 340 346 l 1,7,8
 292 349 292 349 255.5 327.5 c 128,-1,9
 219 306 219 306 198 270 c 128,-1,10
 177 234 177 234 177 194 c 2,11,-1
 177 0 l 1,12,-1
 83 0 l 1,13,-1
 83 424 l 1,14,-1
 168 424 l 1,0,-1
EndSplineSet
Validated: 1048613
EndChar

StartChar: s
Encoding: 115 115 353
Width: 416
GlyphClass: 2
Flags: W
AnchorPoint: "Anchor-2" 206 -6 basechar 0
AnchorPoint: "Anchor-0" 210 430 basechar 0
LayerCount: 2
Fore
SplineSet
202 -8 m 0,0,1
 157 -8 157 -8 114.5 8 c 128,-1,2
 72 24 72 24 44 55 c 1,3,-1
 84 111 l 1,4,5
 111 85 111 85 139 72 c 128,-1,6
 167 59 167 59 195 59 c 0,7,8
 215 59 215 59 232.5 64.5 c 128,-1,9
 250 70 250 70 260.5 81.5 c 128,-1,10
 271 93 271 93 271 114 c 0,11,12
 271 137 271 137 256.5 150 c 128,-1,13
 242 163 242 163 219 171 c 128,-1,14
 196 179 196 179 170 186 c 0,15,16
 118 203 118 203 90 234 c 128,-1,17
 62 265 62 265 62 309 c 0,18,19
 62 343 62 343 79 372 c 128,-1,20
 96 401 96 401 129.5 419.5 c 128,-1,21
 163 438 163 438 212 438 c 0,22,23
 256 438 256 438 291 427.5 c 128,-1,24
 326 417 326 417 356 392 c 1,25,-1
 318 333 l 1,26,27
 300 352 300 352 274.5 361.5 c 128,-1,28
 249 371 249 371 228 372 c 0,29,30
 211 373 211 373 195 366.5 c 128,-1,31
 179 360 179 360 169 349 c 128,-1,32
 159 338 159 338 159 323 c 0,33,34
 159 301 159 301 173 287.5 c 128,-1,35
 187 274 187 274 210 266.5 c 128,-1,36
 233 259 233 259 256 251 c 0,37,38
 288 242 288 242 312.5 226.5 c 128,-1,39
 337 211 337 211 352 188.5 c 128,-1,40
 367 166 367 166 367 132 c 0,41,42
 367 94 367 94 349 62 c 128,-1,43
 331 30 331 30 294.5 11 c 128,-1,44
 258 -8 258 -8 202 -8 c 0,0,1
EndSplineSet
Validated: 1048609
EndChar

StartChar: germandbls
Encoding: 223 223 359
Width: 615
GlyphClass: 1
Flags: W
LayerCount: 2
Fore
SplineSet
112 463 m 2,0,1
 112 532 112 532 139.5 580.5 c 128,-1,2
 167 629 167 629 214.5 655 c 128,-1,3
 262 681 262 681 322 681 c 0,4,5
 385 681 385 681 428.5 661 c 128,-1,6
 472 641 472 641 494 608 c 128,-1,7
 516 575 516 575 516 537 c 0,8,9
 516 493 516 493 496.5 457.5 c 128,-1,10
 477 422 477 422 439 403 c 1,11,12
 476 390 476 390 505 364 c 128,-1,13
 534 338 534 338 549.5 298 c 128,-1,14
 565 258 565 258 565 201 c 0,15,16
 565 134 565 134 539 87 c 128,-1,17
 513 40 513 40 467.5 15.5 c 128,-1,18
 422 -9 422 -9 362 -9 c 0,19,20
 320 -9 320 -9 290.5 2.5 c 128,-1,21
 261 14 261 14 246 27 c 1,22,-1
 284 85 l 1,23,24
 300 73 300 73 317 67.5 c 128,-1,25
 334 62 334 62 352 62 c 0,26,27
 390 62 390 62 416 81.5 c 128,-1,28
 442 101 442 101 456 134 c 128,-1,29
 470 167 470 167 470 206 c 0,30,31
 470 252 470 252 454 285.5 c 128,-1,32
 438 319 438 319 409.5 337 c 128,-1,33
 381 355 381 355 342 354 c 2,34,-1
 337 354 l 1,35,-1
 336 438 l 1,36,37
 373 438 373 438 396.5 459 c 128,-1,38
 420 480 420 480 420 515 c 0,39,40
 420 541 420 541 408.5 561 c 128,-1,41
 397 581 397 581 375.5 592 c 128,-1,42
 354 603 354 603 323 603 c 0,43,44
 261 603 261 603 234 558 c 128,-1,45
 207 513 207 513 207 433 c 2,46,-1
 207 0 l 1,47,-1
 112 0 l 1,48,-1
 112 351 l 1,49,-1
 45 351 l 1,50,-1
 45 430 l 1,51,-1
 112 430 l 1,52,-1
 112 463 l 2,0,1
EndSplineSet
Validated: 33
EndChar

StartChar: t
Encoding: 116 116 360
Width: 367
GlyphClass: 2
Flags: W
AnchorPoint: "Anchor-4" 178 201 basechar 0
AnchorPoint: "Anchor-2" 166 0 basechar 0
AnchorPoint: "Anchor-1" 345 424 basechar 0
AnchorPoint: "Anchor-0" 178 424 basechar 0
LayerCount: 2
Fore
SplineSet
124 610 m 1,0,-1
 219 610 l 1,1,-1
 219 422 l 1,2,-1
 336 422 l 1,3,-1
 336 347 l 1,4,-1
 219 347 l 1,5,-1
 219 0 l 1,6,-1
 124 0 l 1,7,-1
 124 347 l 1,8,-1
 46 347 l 1,9,-1
 46 422 l 1,10,-1
 124 422 l 1,11,-1
 124 610 l 1,0,-1
EndSplineSet
Validated: 1048577
EndChar

StartChar: u
Encoding: 117 117 365
Width: 559
GlyphClass: 2
Flags: W
AnchorPoint: "Anchor-3" 555 10 basechar 0
AnchorPoint: "Anchor-2" 280 0 basechar 0
AnchorPoint: "Anchor-1" 484 424 basechar 0
AnchorPoint: "Anchor-0" 281 437 basechar 0
LayerCount: 2
Fore
SplineSet
217 -16 m 0,0,1
 160 -16 160 -16 122.5 19 c 128,-1,2
 85 54 85 54 83 111 c 2,3,-1
 83 424 l 1,4,-1
 178 424 l 1,5,-1
 178 144 l 2,6,7
 180 109 180 109 198 88 c 128,-1,8
 216 67 216 67 255 66 c 0,9,10
 291 66 291 66 319 87 c 128,-1,11
 347 108 347 108 364.5 144 c 128,-1,12
 382 180 382 180 382 226 c 2,13,-1
 382 424 l 1,14,-1
 477 424 l 1,15,-1
 477 0 l 1,16,-1
 390 0 l 1,17,-1
 382 104 l 1,18,-1
 387 86 l 1,19,20
 375 56 375 56 350 33 c 128,-1,21
 325 10 325 10 291 -3 c 128,-1,22
 257 -16 257 -16 217 -16 c 0,0,1
EndSplineSet
Validated: 1048581
EndChar

StartChar: uogonek
Encoding: 371 371 383
Width: 563
GlyphClass: 1
Flags: W
LayerCount: 2
Fore
SplineSet
425 -220 m 0,0,1
 375 -220 375 -220 339.5 -189.5 c 128,-1,2
 304 -159 304 -159 304 -109 c 0,3,4
 304 -74 304 -74 328.5 -41 c 128,-1,5
 353 -8 353 -8 393 10 c 1,6,-1
 445 16 l 1,7,-1
 479 0 l 1,8,9
 436 -22 436 -22 410 -46 c 128,-1,10
 384 -70 384 -70 384 -101 c 0,11,12
 384 -128 384 -128 399.5 -140 c 128,-1,13
 415 -152 415 -152 434 -152 c 0,14,15
 454 -152 454 -152 471 -139 c 128,-1,16
 488 -126 488 -126 503 -103 c 1,17,-1
 540 -152 l 1,18,19
 523 -182 523 -182 490 -201 c 128,-1,20
 457 -220 457 -220 425 -220 c 0,0,1
217 -16 m 0,21,22
 160 -16 160 -16 122.5 19 c 128,-1,23
 85 54 85 54 83 111 c 2,24,-1
 83 424 l 1,25,-1
 178 424 l 1,26,-1
 178 144 l 2,27,28
 180 109 180 109 198 88 c 128,-1,29
 216 67 216 67 255 66 c 0,30,31
 291 66 291 66 319 87 c 128,-1,32
 347 108 347 108 364.5 144 c 128,-1,33
 382 180 382 180 382 226 c 2,34,-1
 382 424 l 1,35,-1
 477 424 l 1,36,-1
 477 0 l 1,37,-1
 390 0 l 1,38,-1
 382 104 l 1,39,-1
 387 86 l 1,40,41
 375 56 375 56 350 33 c 128,-1,42
 325 10 325 10 291 -3 c 128,-1,43
 257 -16 257 -16 217 -16 c 0,21,22
EndSplineSet
Validated: 5
EndChar

StartChar: v
Encoding: 118 118 386
Width: 505
GlyphClass: 2
Flags: W
AnchorPoint: "Anchor-2" 253 0 basechar 0
AnchorPoint: "Anchor-0" 253 424 basechar 0
LayerCount: 2
Fore
SplineSet
255 -12 m 1,0,-1
 19 424 l 1,1,-1
 132 424 l 1,2,-1
 292 87 l 1,3,-1
 233 89 l 1,4,-1
 380 424 l 1,5,-1
 486 424 l 1,6,-1
 260 -12 l 1,7,-1
 255 -12 l 1,0,-1
EndSplineSet
Validated: 1048581
EndChar

StartChar: w
Encoding: 119 119 387
Width: 690
GlyphClass: 2
Flags: W
AnchorPoint: "Anchor-2" 345 0 basechar 0
AnchorPoint: "Anchor-0" 345 424 basechar 0
LayerCount: 2
Fore
SplineSet
354 424 m 1,0,-1
 479 138 l 1,1,-1
 461 136 l 1,2,-1
 578 424 l 1,3,-1
 671 424 l 1,4,-1
 476 -26 l 1,5,-1
 340 265 l 1,6,-1
 216 -26 l 1,7,-1
 19 424 l 1,8,-1
 113 424 l 1,9,-1
 245 125 l 1,10,-1
 212 131 l 1,11,-1
 306 350 l 1,12,-1
 272 424 l 1,13,-1
 354 424 l 1,0,-1
EndSplineSet
Validated: 1048581
EndChar

StartChar: x
Encoding: 120 120 392
Width: 476
GlyphClass: 2
Flags: W
AnchorPoint: "Anchor-2" 233 0 basechar 0
AnchorPoint: "Anchor-0" 233 424 basechar 0
LayerCount: 2
Fore
SplineSet
243 266 m 1,0,-1
 344 424 l 1,1,-1
 440 424 l 1,2,-1
 278 197 l 1,3,-1
 243 266 l 1,0,-1
457 0 m 1,4,-1
 342 0 l 1,5,-1
 19 424 l 1,6,-1
 137 424 l 1,7,-1
 457 0 l 1,4,-1
232 158 m 1,8,-1
 121 0 l 1,9,-1
 25 0 l 1,10,-1
 186 221 l 1,11,-1
 232 158 l 1,8,-1
EndSplineSet
Validated: 1048581
EndChar

StartChar: y
Encoding: 121 121 393
Width: 505
GlyphClass: 2
Flags: W
AnchorPoint: "Anchor-2" 404 -6 basechar 0
AnchorPoint: "Anchor-0" 259 424 basechar 0
LayerCount: 2
Fore
SplineSet
119 -204 m 1,0,-1
 398 424 l 1,1,-1
 486 424 l 1,2,-1
 213 -204 l 1,3,-1
 119 -204 l 1,0,-1
223 -3 m 1,4,-1
 19 424 l 1,5,-1
 127 424 l 1,6,-1
 298 45 l 1,7,-1
 223 -3 l 1,4,-1
EndSplineSet
Validated: 1048581
EndChar

StartChar: z
Encoding: 122 122 402
Width: 474
GlyphClass: 2
Flags: W
AnchorPoint: "Anchor-2" 232 0 basechar 0
AnchorPoint: "Anchor-0" 240 424 basechar 0
LayerCount: 2
Fore
SplineSet
424 424 m 17,0,-1
 170 58 l 1,1,-1
 152 79 l 1,2,-1
 421 79 l 1,3,-1
 421 0 l 1,4,-1
 29 0 l 1,5,-1
 288 373 l 1,6,-1
 304 346 l 9,7,-1
 29 346 l 29,8,-1
 29 424 l 25,9,-1
 424 424 l 17,0,-1
EndSplineSet
Validated: 1048581
EndChar

StartChar: fi
Encoding: 64257 64257 411
Width: 593
GlyphClass: 2
Flags: W
AnchorPoint: "Anchor-2" 195 0 basechar 0
AnchorPoint: "Anchor-0" 195 424 basechar 0
LayerCount: 2
Fore
SplineSet
118 0 m 1,0,-1
 118 339 l 1,1,-1
 45 339 l 1,2,-1
 45 424 l 1,3,-1
 118 424 l 1,4,-1
 118 603 l 2,5,6
 118 695 118 695 159.5 744.5 c 128,-1,7
 201 794 201 794 282 794 c 0,8,9
 304 794 304 794 329.5 787.5 c 128,-1,10
 355 781 355 781 375 767 c 1,11,-1
 335 698 l 1,12,13
 326 707 326 707 315 711 c 128,-1,14
 304 715 304 715 292 715 c 0,15,16
 254 715 254 715 233.5 689.5 c 128,-1,17
 213 664 213 664 213 602 c 2,18,-1
 213 424 l 1,19,-1
 334 424 l 1,20,-1
 334 339 l 1,21,-1
 213 339 l 1,22,-1
 213 0 l 1,23,-1
 118 0 l 1,0,-1
416 424 m 1,24,-1
 511 424 l 1,25,-1
 511 0 l 1,26,-1
 416 0 l 1,27,-1
 416 424 l 1,24,-1
409 578 m 0,28,29
 409 601 409 601 427 615.5 c 128,-1,30
 445 630 445 630 467 630 c 0,31,32
 487 630 487 630 504.5 615 c 128,-1,33
 522 600 522 600 522 577 c 256,34,35
 522 553 522 553 504.5 538 c 128,-1,36
 487 523 487 523 467 523 c 0,37,38
 445 523 445 523 427 538.5 c 128,-1,39
 409 554 409 554 409 578 c 0,28,29
EndSplineSet
Validated: 1048577
Ligature2: "'liga' Standard Ligatures in Latin lookup 26 subtable" f i
EndChar

StartChar: fl
Encoding: 64258 64258 412
Width: 593
GlyphClass: 2
Flags: W
AnchorPoint: "Anchor-2" 195 0 basechar 0
AnchorPoint: "Anchor-0" 195 424 basechar 0
LayerCount: 2
Fore
SplineSet
118 0 m 1,0,-1
 118 339 l 1,1,-1
 45 339 l 1,2,-1
 45 424 l 1,3,-1
 118 424 l 1,4,-1
 118 603 l 2,5,6
 118 695 118 695 159.5 744.5 c 128,-1,7
 201 794 201 794 282 794 c 0,8,9
 304 794 304 794 329.5 787.5 c 128,-1,10
 355 781 355 781 375 767 c 1,11,-1
 335 698 l 1,12,13
 326 707 326 707 314.5 711 c 128,-1,14
 303 715 303 715 292 715 c 0,15,16
 254 715 254 715 233.5 689.5 c 128,-1,17
 213 664 213 664 213 602 c 2,18,-1
 213 424 l 1,19,-1
 334 424 l 1,20,-1
 334 339 l 1,21,-1
 213 339 l 1,22,-1
 213 0 l 1,23,-1
 118 0 l 1,0,-1
416 793 m 1,24,-1
 511 793 l 1,25,-1
 511 0 l 1,26,-1
 416 0 l 1,27,-1
 416 793 l 1,24,-1
EndSplineSet
Validated: 1048577
Ligature2: "'liga' Standard Ligatures in Latin lookup 26 subtable" f l
EndChar

StartChar: ordfeminine
Encoding: 170 170 413
Width: 409
GlyphClass: 1
Flags: W
LayerCount: 2
Fore
SplineSet
169 432 m 0,0,1
 131 432 131 432 100.5 449.5 c 128,-1,2
 70 467 70 467 52 501.5 c 128,-1,3
 34 536 34 536 34 585 c 256,4,5
 34 634 34 634 52.5 668.5 c 128,-1,6
 71 703 71 703 101.5 722 c 128,-1,7
 132 741 132 741 167 741 c 0,8,9
 208 741 208 741 235.5 725.5 c 128,-1,10
 263 710 263 710 278 684 c 1,11,-1
 272 669 l 1,12,-1
 279 731 l 1,13,-1
 346 731 l 1,14,-1
 346 438 l 1,15,-1
 273 438 l 1,16,-1
 273 510 l 1,17,-1
 282 496 l 1,18,19
 277 486 277 486 261.5 470.5 c 128,-1,20
 246 455 246 455 223 443.5 c 128,-1,21
 200 432 200 432 169 432 c 0,0,1
191 492 m 0,22,23
 213 492 213 492 230 501 c 128,-1,24
 247 510 247 510 258.5 526.5 c 128,-1,25
 270 543 270 543 273 564 c 2,26,-1
 273 614 l 1,27,28
 266 643 266 643 243.5 662.5 c 128,-1,29
 221 682 221 682 190 682 c 0,30,31
 155 682 155 682 131.5 656.5 c 128,-1,32
 108 631 108 631 108 588 c 0,33,34
 108 561 108 561 119 539 c 128,-1,35
 130 517 130 517 148.5 504.5 c 128,-1,36
 167 492 167 492 191 492 c 0,22,23
EndSplineSet
Validated: 5
EndChar

StartChar: ordmasculine
Encoding: 186 186 414
Width: 386
GlyphClass: 1
Flags: W
LayerCount: 2
Fore
SplineSet
34 585 m 0,0,1
 34 629 34 629 54.5 663.5 c 128,-1,2
 75 698 75 698 111 718.5 c 128,-1,3
 147 739 147 739 194 739 c 0,4,5
 241 739 241 739 276.5 718.5 c 128,-1,6
 312 698 312 698 332 663.5 c 128,-1,7
 352 629 352 629 352 585 c 256,8,9
 352 541 352 541 332 505.5 c 128,-1,10
 312 470 312 470 276.5 449.5 c 128,-1,11
 241 429 241 429 194 429 c 0,12,13
 148 429 148 429 111.5 448.5 c 128,-1,14
 75 468 75 468 54.5 503 c 128,-1,15
 34 538 34 538 34 585 c 0,0,1
109 584 m 256,16,17
 109 559 109 559 120 538 c 128,-1,18
 131 517 131 517 150 505.5 c 128,-1,19
 169 494 169 494 193 494 c 0,20,21
 218 494 218 494 237 505.5 c 128,-1,22
 256 517 256 517 267 538 c 128,-1,23
 278 559 278 559 278 584 c 0,24,25
 278 610 278 610 266.5 630 c 128,-1,26
 255 650 255 650 236 662.5 c 128,-1,27
 217 675 217 675 193 675 c 256,28,29
 168 675 168 675 149.5 662 c 128,-1,30
 131 649 131 649 120 629 c 128,-1,31
 109 609 109 609 109 584 c 256,16,17
EndSplineSet
Validated: 1
EndChar

StartChar: uni0394
Encoding: 916 916 415
Width: 755
GlyphClass: 1
Flags: W
LayerCount: 2
Fore
SplineSet
33 0 m 1,0,-1
 375 771 l 1,1,-1
 380 771 l 1,2,-1
 723 0 l 1,3,-1
 33 0 l 1,0,-1
598 47 m 1,4,-1
 335 654 l 1,5,-1
 419 643 l 1,6,-1
 151 38 l 1,7,-1
 96 95 l 1,8,-1
 649 95 l 1,9,-1
 598 47 l 1,4,-1
EndSplineSet
Validated: 5
EndChar

StartChar: uni03BC
Encoding: 956 956 416
Width: 559
GlyphClass: 2
Flags: W
AnchorPoint: "Anchor-3" 555 10 basechar 0
AnchorPoint: "Anchor-2" 280 0 basechar 0
AnchorPoint: "Anchor-1" 484 424 basechar 0
AnchorPoint: "Anchor-0" 281 434 basechar 0
LayerCount: 2
Fore
SplineSet
217 -16 m 0,0,1
 160 -16 160 -16 122.5 19 c 128,-1,2
 85 54 85 54 83 111 c 2,3,-1
 83 424 l 1,4,-1
 178 424 l 1,5,-1
 178 144 l 2,6,7
 180 109 180 109 198 88 c 128,-1,8
 216 67 216 67 255 66 c 0,9,10
 291 66 291 66 319 87 c 128,-1,11
 347 108 347 108 364.5 144 c 128,-1,12
 382 180 382 180 382 226 c 2,13,-1
 382 424 l 1,14,-1
 477 424 l 1,15,-1
 477 0 l 1,16,-1
 390 0 l 1,17,-1
 382 104 l 1,18,-1
 387 86 l 1,19,20
 375 56 375 56 350 33 c 128,-1,21
 325 10 325 10 291 -3 c 128,-1,22
 257 -16 257 -16 217 -16 c 0,0,1
83 386 m 1,23,-1
 169 386 l 1,24,-1
 169 -241 l 1,25,-1
 83 -241 l 1,26,-1
 83 386 l 1,23,-1
EndSplineSet
Validated: 1048581
EndChar

StartChar: pi
Encoding: 960 960 417
Width: 391
GlyphClass: 1
Flags: W
LayerCount: 2
Fore
SplineSet
7 358 m 1,0,-1
 381 358 l 1,1,-1
 381 275 l 1,2,-1
 326 275 l 1,3,-1
 326 0 l 1,4,-1
 241 0 l 1,5,-1
 241 275 l 1,6,-1
 151 275 l 1,7,-1
 151 0 l 1,8,-1
 65 0 l 1,9,-1
 65 275 l 1,10,-1
 7 275 l 1,11,-1
 7 358 l 1,0,-1
EndSplineSet
Validated: 1
EndChar

StartChar: zero
Encoding: 48 48 418
Width: 637
GlyphClass: 1
Flags: W
LayerCount: 2
Fore
SplineSet
319 -3 m 256,0,1
 257 -3 257 -3 205 20.5 c 128,-1,2
 153 44 153 44 115.5 88.5 c 128,-1,3
 78 133 78 133 57.5 196.5 c 128,-1,4
 37 260 37 260 37 339 c 0,5,6
 37 425 37 425 56.5 489 c 128,-1,7
 76 553 76 553 113.5 596 c 128,-1,8
 151 639 151 639 203 660 c 128,-1,9
 255 681 255 681 319 681 c 0,10,11
 381 681 381 681 433 657.5 c 128,-1,12
 485 634 485 634 522.5 589.5 c 128,-1,13
 560 545 560 545 581 482 c 128,-1,14
 602 419 602 419 602 339 c 0,15,16
 602 258 602 258 581 194.5 c 128,-1,17
 560 131 560 131 522.5 87 c 128,-1,18
 485 43 485 43 433 20 c 128,-1,19
 381 -3 381 -3 319 -3 c 256,0,1
318 92 m 256,20,21
 377 92 377 92 418 123.5 c 128,-1,22
 459 155 459 155 479.5 211 c 128,-1,23
 500 267 500 267 500 341 c 256,24,25
 500 415 500 415 479.5 469.5 c 128,-1,26
 459 524 459 524 418.5 555 c 128,-1,27
 378 586 378 586 318 586 c 256,28,29
 259 586 259 586 219 554.5 c 128,-1,30
 179 523 179 523 159 468 c 128,-1,31
 139 413 139 413 139 339 c 0,32,33
 139 266 139 266 159 210.5 c 128,-1,34
 179 155 179 155 219 123.5 c 128,-1,35
 259 92 259 92 318 92 c 256,20,21
EndSplineSet
Validated: 1
Substitution2: "'zero' Slashed Zero in Latin lookup 27 subtable" zero.zero
Substitution2: "'aalt' Access All Alternates in Latin lookup 0 subtable" zero.zero
EndChar

StartChar: one
Encoding: 49 49 419
Width: 336
GlyphClass: 1
Flags: W
LayerCount: 2
Fore
SplineSet
54 674 m 1,0,-1
 230 674 l 1,1,-1
 230 0 l 1,2,-1
 131 0 l 1,3,-1
 131 579 l 1,4,-1
 54 579 l 1,5,-1
 54 674 l 1,0,-1
EndSplineSet
Validated: 1
Substitution2: "'sups' Superscript in Latin lookup 19 subtable" uni00B9
Substitution2: "'aalt' Access All Alternates in Latin lookup 0 subtable" uni00B9
EndChar

StartChar: two
Encoding: 50 50 420
Width: 558
GlyphClass: 1
Flags: W
LayerCount: 2
Fore
SplineSet
54 0 m 1,0,1
 120 63 120 63 179.5 124.5 c 128,-1,2
 239 186 239 186 286.5 243.5 c 128,-1,3
 334 301 334 301 361.5 355 c 128,-1,4
 389 409 389 409 389 459 c 0,5,6
 389 493 389 493 378 517 c 128,-1,7
 367 541 367 541 349 556 c 128,-1,8
 331 571 331 571 308.5 579 c 128,-1,9
 286 587 286 587 262 587 c 0,10,11
 228 587 228 587 204.5 576 c 128,-1,12
 181 565 181 565 166.5 547.5 c 128,-1,13
 152 530 152 530 145 511 c 128,-1,14
 138 492 138 492 138 472 c 0,15,16
 138 438 138 438 148.5 411 c 128,-1,17
 159 384 159 384 178 364 c 1,18,-1
 117 309 l 1,19,20
 93 324 93 324 76 352 c 128,-1,21
 59 380 59 380 50.5 412 c 128,-1,22
 42 444 42 444 42 470 c 0,23,24
 42 525 42 525 69 574 c 128,-1,25
 96 623 96 623 149 652.5 c 128,-1,26
 202 682 202 682 278 682 c 0,27,28
 343 682 343 682 390.5 652.5 c 128,-1,29
 438 623 438 623 465 574 c 128,-1,30
 492 525 492 525 492 467 c 0,31,32
 492 416 492 416 471.5 366.5 c 128,-1,33
 451 317 451 317 416.5 269 c 128,-1,34
 382 221 382 221 340.5 174.5 c 128,-1,35
 299 128 299 128 258 81 c 1,36,-1
 215 95 l 1,37,-1
 514 95 l 1,38,-1
 514 0 l 1,39,-1
 54 0 l 1,0,1
EndSplineSet
Validated: 5
Substitution2: "'sups' Superscript in Latin lookup 19 subtable" uni00B2
Substitution2: "'aalt' Access All Alternates in Latin lookup 0 subtable" uni00B2
EndChar

StartChar: three
Encoding: 51 51 421
Width: 535
GlyphClass: 1
Flags: W
LayerCount: 2
Fore
SplineSet
447 674 m 1,0,-1
 267 384 l 1,1,-1
 208 412 l 1,2,3
 221 419 221 419 237.5 422 c 128,-1,4
 254 425 254 425 270 425 c 0,5,6
 308 427 308 427 344 417 c 128,-1,7
 380 407 380 407 408.5 383 c 128,-1,8
 437 359 437 359 454 320.5 c 128,-1,9
 471 282 471 282 471 224 c 0,10,11
 471 152 471 152 438.5 100 c 128,-1,12
 406 48 406 48 352 20 c 128,-1,13
 298 -8 298 -8 232 -8 c 0,14,15
 183 -8 183 -8 134.5 12 c 128,-1,16
 86 32 86 32 54 65 c 1,17,-1
 104 146 l 1,18,19
 123 123 123 123 158 105 c 128,-1,20
 193 87 193 87 229 87 c 0,21,22
 268 87 268 87 299.5 104.5 c 128,-1,23
 331 122 331 122 350 154 c 128,-1,24
 369 186 369 186 369 229 c 0,25,26
 369 288 369 288 334.5 322 c 128,-1,27
 300 356 300 356 241 356 c 0,28,29
 211 356 211 356 190.5 351.5 c 128,-1,30
 170 347 170 347 154 341 c 1,31,-1
 151 345 l 1,32,-1
 309 592 l 1,33,-1
 340 579 l 1,34,-1
 93 579 l 1,35,-1
 93 674 l 1,36,-1
 447 674 l 1,0,-1
EndSplineSet
Validated: 37
Substitution2: "'sups' Superscript in Latin lookup 19 subtable" uni00B3
Substitution2: "'aalt' Access All Alternates in Latin lookup 0 subtable" uni00B3
EndChar

StartChar: four
Encoding: 52 52 422
Width: 547
GlyphClass: 1
Flags: W
LayerCount: 2
Fore
SplineSet
13 163 m 1,0,-1
 13 164 l 1,1,-1
 424 682 l 1,2,-1
 425 682 l 1,3,-1
 425 239 l 1,4,-1
 512 239 l 1,5,-1
 512 163 l 1,6,-1
 425 163 l 1,7,-1
 425 0 l 1,8,-1
 326 0 l 1,9,-1
 326 163 l 1,10,-1
 13 163 l 1,0,-1
332 458 m 1,11,-1
 159 233 l 1,12,-1
 143 239 l 1,13,-1
 326 239 l 1,14,-1
 326 476 l 1,15,-1
 332 458 l 1,11,-1
EndSplineSet
Validated: 5
Substitution2: "'sups' Superscript in Latin lookup 19 subtable" uni2074
Substitution2: "'aalt' Access All Alternates in Latin lookup 0 subtable" uni2074
EndChar

StartChar: five
Encoding: 53 53 423
Width: 535
GlyphClass: 1
Flags: W
LayerCount: 2
Fore
SplineSet
251 -8 m 0,0,1
 197 -8 197 -8 147 11.5 c 128,-1,2
 97 31 97 31 67 61 c 1,3,-1
 120 138 l 1,4,5
 140 114 140 114 174.5 100 c 128,-1,6
 209 86 209 86 243 86 c 0,7,8
 281 86 281 86 310 103 c 128,-1,9
 339 120 339 120 355.5 149 c 128,-1,10
 372 178 372 178 372 216 c 0,11,12
 372 257 372 257 357 289 c 128,-1,13
 342 321 342 321 313 338.5 c 128,-1,14
 284 356 284 356 240 356 c 0,15,16
 204 356 204 356 173 346.5 c 128,-1,17
 142 337 142 337 110 317 c 1,18,-1
 109 317 l 1,19,-1
 109 674 l 1,20,-1
 431 674 l 1,21,-1
 431 579 l 1,22,-1
 195 579 l 1,23,-1
 195 407 l 1,24,-1
 181 427 l 1,25,26
 198 433 198 433 220.5 436.5 c 128,-1,27
 243 440 243 440 263 440 c 0,28,29
 332 440 332 440 378.5 410 c 128,-1,30
 425 380 425 380 449 330 c 128,-1,31
 473 280 473 280 473 219 c 0,32,33
 473 156 473 156 444.5 104 c 128,-1,34
 416 52 416 52 366 22 c 128,-1,35
 316 -8 316 -8 251 -8 c 0,0,1
EndSplineSet
Validated: 5
EndChar

StartChar: six
Encoding: 54 54 424
Width: 558
GlyphClass: 1
Flags: W
LayerCount: 2
Fore
SplineSet
281 -8 m 0,0,1
 213 -8 213 -8 158 24 c 128,-1,2
 103 56 103 56 71 116 c 128,-1,3
 39 176 39 176 39 258 c 0,4,5
 39 325 39 325 65 384.5 c 128,-1,6
 91 444 91 444 135 497 c 128,-1,7
 179 550 179 550 235 595.5 c 128,-1,8
 291 641 291 641 349 679 c 1,9,-1
 415 607 l 1,10,11
 332 566 332 566 275.5 514.5 c 128,-1,12
 219 463 219 463 188.5 409.5 c 128,-1,13
 158 356 158 356 152 309 c 1,14,-1
 127 312 l 1,15,16
 155 369 155 369 200 400 c 128,-1,17
 245 431 245 431 313 431 c 0,18,19
 365 431 365 431 411.5 403.5 c 128,-1,20
 458 376 458 376 487 328 c 128,-1,21
 516 280 516 280 516 217 c 0,22,23
 516 148 516 148 483 97.5 c 128,-1,24
 450 47 450 47 396 19.5 c 128,-1,25
 342 -8 342 -8 281 -8 c 0,0,1
276 81 m 256,26,27
 314 81 314 81 345.5 98 c 128,-1,28
 377 115 377 115 395.5 145.5 c 128,-1,29
 414 176 414 176 414 216 c 256,30,31
 414 256 414 256 395.5 285.5 c 128,-1,32
 377 315 377 315 345.5 331.5 c 128,-1,33
 314 348 314 348 276 348 c 256,34,35
 238 348 238 348 207.5 332 c 128,-1,36
 177 316 177 316 158.5 289 c 128,-1,37
 140 262 140 262 140 229 c 2,38,-1
 140 212 l 2,39,40
 140 177 140 177 158 147 c 128,-1,41
 176 117 176 117 207 99 c 128,-1,42
 238 81 238 81 276 81 c 256,26,27
EndSplineSet
Validated: 5
EndChar

StartChar: seven
Encoding: 55 55 425
Width: 500
GlyphClass: 1
Flags: W
LayerCount: 2
Fore
SplineSet
472 674 m 1,0,-1
 203 0 l 1,1,-1
 91 0 l 1,2,-1
 334 593 l 1,3,-1
 369 579 l 1,4,-1
 32 579 l 1,5,-1
 32 674 l 1,6,-1
 472 674 l 1,0,-1
EndSplineSet
Validated: 5
EndChar

StartChar: eight
Encoding: 56 56 426
Width: 535
GlyphClass: 1
Flags: W
LayerCount: 2
Fore
SplineSet
29 212 m 1,0,1
 29 264 29 264 49 302 c 128,-1,2
 69 340 69 340 99 366 c 128,-1,3
 129 392 129 392 161 406 c 1,4,5
 130 425 130 425 110 453.5 c 128,-1,6
 90 482 90 482 90 527 c 256,7,8
 90 572 90 572 113 607 c 128,-1,9
 136 642 136 642 176 662 c 128,-1,10
 216 682 216 682 267 682 c 0,11,12
 317 682 317 682 357 662 c 128,-1,13
 397 642 397 642 420.5 608 c 128,-1,14
 444 574 444 574 444 531 c 0,15,16
 444 483 444 483 424 454.5 c 128,-1,17
 404 426 404 426 374 406 c 1,18,19
 406 392 406 392 436.5 365.5 c 128,-1,20
 467 339 467 339 487 301 c 128,-1,21
 507 263 507 263 507 212 c 0,22,23
 507 154 507 154 474.5 103.5 c 128,-1,24
 442 53 442 53 388.5 22.5 c 128,-1,25
 335 -8 335 -8 266 -8 c 256,26,27
 197 -8 197 -8 144 22.5 c 128,-1,28
 91 53 91 53 60 103.5 c 128,-1,29
 29 154 29 154 29 212 c 1,30,-1
 29 212 l 1,0,1
130 217 m 1,31,32
 130 178 130 178 148.5 146.5 c 128,-1,33
 167 115 167 115 197.5 95.5 c 128,-1,34
 228 76 228 76 266 76 c 0,35,36
 305 76 305 76 337.5 95.5 c 128,-1,37
 370 115 370 115 389 146.5 c 128,-1,38
 408 178 408 178 408 216 c 0,39,40
 408 255 408 255 389.5 286 c 128,-1,41
 371 317 371 317 339.5 336.5 c 128,-1,42
 308 356 308 356 270 356 c 0,43,44
 232 357 232 357 200.5 338 c 128,-1,45
 169 319 169 319 149.5 287.5 c 128,-1,46
 130 256 130 256 130 217 c 1,47,-1
 130 217 l 1,31,32
186 515 m 1,48,49
 186 483 186 483 211.5 461 c 128,-1,50
 237 439 237 439 269 439 c 256,51,52
 302 439 302 439 326 461 c 128,-1,53
 350 483 350 483 350 515 c 0,54,55
 350 552 350 552 326 575.5 c 128,-1,56
 302 599 302 599 269 599 c 0,57,58
 235 599 235 599 210.5 575.5 c 128,-1,59
 186 552 186 552 186 515 c 1,60,-1
 186 515 l 1,48,49
EndSplineSet
Validated: 37
EndChar

StartChar: nine
Encoding: 57 57 427
Width: 549
GlyphClass: 1
Flags: W
LayerCount: 2
Fore
SplineSet
242 221 m 0,0,1
 190 221 190 221 143.5 248.5 c 128,-1,2
 97 276 97 276 68 325 c 128,-1,3
 39 374 39 374 39 435 c 0,4,5
 39 507 39 507 72 559.5 c 128,-1,6
 105 612 105 612 158.5 641 c 128,-1,7
 212 670 212 670 273 670 c 0,8,9
 342 670 342 670 397 640 c 128,-1,10
 452 610 452 610 484 557 c 128,-1,11
 516 504 516 504 516 434 c 0,12,13
 516 354 516 354 486 288.5 c 128,-1,14
 456 223 456 223 406.5 169.5 c 128,-1,15
 357 116 357 116 298 71.5 c 128,-1,16
 239 27 239 27 179 -13 c 1,17,-1
 114 59 l 1,18,19
 199 103 199 103 261.5 151.5 c 128,-1,20
 324 200 324 200 359.5 248.5 c 128,-1,21
 395 297 395 297 401 340 c 1,22,-1
 430 339 l 1,23,24
 399 282 399 282 357 251.5 c 128,-1,25
 315 221 315 221 242 221 c 0,0,1
278 305 m 0,26,27
 338 305 338 305 376.5 340 c 128,-1,28
 415 375 415 375 415 430 c 2,29,-1
 415 449 l 2,30,31
 414 487 414 487 395.5 516.5 c 128,-1,32
 377 546 377 546 346 563.5 c 128,-1,33
 315 581 315 581 278 581 c 256,34,35
 240 581 240 581 208.5 563.5 c 128,-1,36
 177 546 177 546 159 514.5 c 128,-1,37
 141 483 141 483 141 441 c 0,38,39
 141 400 141 400 159.5 369 c 128,-1,40
 178 338 178 338 209 321.5 c 128,-1,41
 240 305 240 305 278 305 c 0,26,27
EndSplineSet
Validated: 5
EndChar

StartChar: uni00B9
Encoding: 185 185 429
Width: 276
GlyphClass: 1
Flags: W
LayerCount: 2
Fore
SplineSet
46 676 m 1,0,-1
 197 676 l 1,1,-1
 197 295 l 1,2,-1
 108 295 l 1,3,-1
 108 591 l 1,4,-1
 46 591 l 1,5,-1
 46 676 l 1,0,-1
EndSplineSet
Validated: 1
EndChar

StartChar: uni00B2
Encoding: 178 178 430
Width: 412
GlyphClass: 1
Flags: W
LayerCount: 2
Fore
SplineSet
70 651 m 1,0,1
 87 677 87 677 125 694.5 c 128,-1,2
 163 712 163 712 203 712 c 0,3,4
 265 711 265 711 303 677 c 128,-1,5
 341 643 341 643 341 583 c 0,6,7
 341 542 341 542 320 505.5 c 128,-1,8
 299 469 299 469 266 438 c 128,-1,9
 233 407 233 407 199 379 c 128,-1,10
 165 351 165 351 138 329 c 1,11,-1
 151 393 l 1,12,-1
 356 393 l 1,13,-1
 356 313 l 1,14,-1
 78 313 l 1,15,-1
 78 366 l 1,16,17
 104 384 104 384 132 406 c 128,-1,18
 160 428 160 428 185 452.5 c 128,-1,19
 210 477 210 477 226 503.5 c 128,-1,20
 242 530 242 530 242 557 c 0,21,22
 242 597 242 597 225 614 c 128,-1,23
 208 631 208 631 178 631 c 0,24,25
 153 631 153 631 132 618.5 c 128,-1,26
 111 606 111 606 99 589 c 1,27,-1
 70 651 l 1,0,1
EndSplineSet
Validated: 5
EndChar

StartChar: uni00B3
Encoding: 179 179 431
Width: 399
GlyphClass: 1
Flags: W
LayerCount: 2
Fore
SplineSet
169 310 m 0,0,1
 128 310 128 310 100 326 c 128,-1,2
 72 342 72 342 56 358 c 1,3,-1
 84 414 l 1,4,5
 94 404 94 404 113 388.5 c 128,-1,6
 132 373 132 373 159 374 c 0,7,8
 190 374 190 374 208.5 393 c 128,-1,9
 227 412 227 412 227 446 c 0,10,11
 227 483 227 483 206.5 499.5 c 128,-1,12
 186 516 186 516 158 516 c 0,13,14
 140 516 140 516 128 513 c 128,-1,15
 116 510 116 510 108 506 c 1,16,-1
 102 515 l 1,17,-1
 194 651 l 1,18,-1
 215 635 l 1,19,-1
 71 635 l 1,20,-1
 71 705 l 1,21,-1
 296 705 l 1,22,-1
 189 521 l 1,23,-1
 127 538 l 1,24,25
 139 548 139 548 156 555 c 128,-1,26
 173 562 173 562 196 562 c 0,27,28
 224 563 224 563 251 550.5 c 128,-1,29
 278 538 278 538 296 512 c 128,-1,30
 314 486 314 486 314 450 c 0,31,32
 314 411 314 411 296.5 379 c 128,-1,33
 279 347 279 347 246 328.5 c 128,-1,34
 213 310 213 310 169 310 c 0,0,1
EndSplineSet
Validated: 37
EndChar

StartChar: uni2074
Encoding: 8308 8308 432
Width: 395
GlyphClass: 1
Flags: W
LayerCount: 2
Fore
SplineSet
342 461 m 1,0,-1
 342 406 l 1,1,-1
 38 406 l 1,2,-1
 37 431 l 1,3,-1
 239 693 l 1,4,-1
 297 693 l 1,5,-1
 297 304 l 1,6,-1
 214 304 l 1,7,-1
 214 593 l 1,8,-1
 236 595 l 1,9,-1
 106 427 l 1,10,-1
 93 461 l 1,11,-1
 342 461 l 1,0,-1
EndSplineSet
Validated: 5
EndChar

StartChar: fraction
Encoding: 8260 8260 433
Width: 579
GlyphClass: 1
Flags: W
LayerCount: 2
Fore
SplineSet
518 701 m 1,0,-1
 101 0 l 1,1,-1
 12 0 l 1,2,-1
 429 701 l 1,3,-1
 518 701 l 1,0,-1
EndSplineSet
Validated: 1
EndChar

StartChar: onequarter
Encoding: 188 188 435
Width: 830
GlyphClass: 1
Flags: W
LayerCount: 2
Fore
SplineSet
652 700 m 1,0,-1
 236 0 l 1,1,-1
 145 0 l 1,2,-1
 562 700 l 1,3,-1
 652 700 l 1,0,-1
50 676 m 1,4,-1
 200 676 l 1,5,-1
 200 295 l 1,6,-1
 111 295 l 1,7,-1
 111 591 l 1,8,-1
 50 591 l 1,9,-1
 50 676 l 1,4,-1
795 157 m 1,10,-1
 795 102 l 1,11,-1
 490 102 l 1,12,-1
 488 127 l 1,13,-1
 691 389 l 1,14,-1
 750 389 l 1,15,-1
 750 0 l 1,16,-1
 667 0 l 1,17,-1
 667 290 l 1,18,-1
 688 291 l 1,19,-1
 559 123 l 1,20,-1
 546 157 l 1,21,-1
 795 157 l 1,10,-1
EndSplineSet
Validated: 5
Ligature2: "'frac' Diagonal Fractions in Latin lookup 20 subtable" one slash four
EndChar

StartChar: asterisk
Encoding: 42 42 437
Width: 343
GlyphClass: 1
Flags: W
LayerCount: 2
Fore
SplineSet
142 538 m 1,0,1
 123 527 123 527 102.5 515 c 128,-1,2
 82 503 82 503 61 492 c 1,3,4
 54 505 54 505 46.5 518 c 128,-1,5
 39 531 39 531 31 544 c 1,6,7
 53 555 53 555 72.5 567 c 128,-1,8
 92 579 92 579 113 590 c 1,9,10
 94 602 94 602 73 614.5 c 128,-1,11
 52 627 52 627 32 639 c 1,12,13
 39 651 39 651 45.5 663 c 128,-1,14
 52 675 52 675 59 687 c 1,15,16
 79 676 79 676 100.5 663.5 c 128,-1,17
 122 651 122 651 142 639 c 1,18,-1
 142 737 l 1,19,-1
 204 737 l 1,20,21
 203 712 203 712 203 688 c 128,-1,22
 203 664 203 664 202 639 c 1,23,24
 224 651 224 651 245 663 c 128,-1,25
 266 675 266 675 287 686 c 1,26,27
 294 674 294 674 300.5 662 c 128,-1,28
 307 650 307 650 314 638 c 1,29,30
 294 626 294 626 273 613.5 c 128,-1,31
 252 601 252 601 230 589 c 1,32,-1
 230 589 l 1,33,34
 250 577 250 577 271 565 c 128,-1,35
 292 553 292 553 313 541 c 1,36,37
 306 529 306 529 298.5 515.5 c 128,-1,38
 291 502 291 502 283 488 c 1,39,40
 263 500 263 500 242 512.5 c 128,-1,41
 221 525 221 525 201 538 c 1,42,43
 201 514 201 514 200.5 491 c 128,-1,44
 200 468 200 468 200 444 c 1,45,-1
 142 444 l 1,46,-1
 142 538 l 1,0,1
EndSplineSet
Validated: 5
EndChar

StartChar: backslash
Encoding: 92 92 438
Width: 398
GlyphClass: 1
Flags: W
LayerCount: 2
Fore
SplineSet
97 763 m 1,0,1
 169 567 169 567 241 371.5 c 128,-1,2
 313 176 313 176 385 -19 c 1,3,-1
 289 -19 l 1,4,5
 216 177 216 177 144.5 372 c 128,-1,6
 73 567 73 567 0 763 c 1,7,-1
 97 763 l 1,0,1
EndSplineSet
Validated: 1
EndChar

StartChar: bullet
Encoding: 8226 8226 440
Width: 495
GlyphClass: 1
Flags: W
LayerCount: 2
Fore
SplineSet
118 311 m 1,0,1
 118 348 118 348 135.5 378.5 c 128,-1,2
 153 409 153 409 182.5 426 c 128,-1,3
 212 443 212 443 248 443 c 0,4,5
 285 443 285 443 315 426 c 128,-1,6
 345 409 345 409 362.5 378.5 c 128,-1,7
 380 348 380 348 380 311 c 0,8,9
 380 275 380 275 362.5 245 c 128,-1,10
 345 215 345 215 315 197.5 c 128,-1,11
 285 180 285 180 248 180 c 0,12,13
 212 180 212 180 182.5 197.5 c 128,-1,14
 153 215 153 215 135.5 244.5 c 128,-1,15
 118 274 118 274 118 311 c 1,16,-1
 118 311 l 1,0,1
EndSplineSet
Validated: 5
EndChar

StartChar: colon
Encoding: 58 58 441
Width: 181
GlyphClass: 1
Flags: W
LayerCount: 2
Fore
SplineSet
35 333 m 1,0,1
 35 356 35 356 52 371.5 c 128,-1,2
 69 387 69 387 88 387 c 256,3,4
 107 387 107 387 124 371.5 c 128,-1,5
 141 356 141 356 141 333 c 0,6,7
 141 308 141 308 124.5 293.5 c 128,-1,8
 108 279 108 279 88 279 c 256,9,10
 69 279 69 279 52 293.5 c 128,-1,11
 35 308 35 308 35 333 c 1,12,-1
 35 333 l 1,0,1
35 54 m 1,13,14
 35 77 35 77 52 93 c 128,-1,15
 69 109 69 109 88 109 c 256,16,17
 107 109 107 109 124 93 c 128,-1,18
 141 77 141 77 141 54 c 0,19,20
 141 29 141 29 124.5 14.5 c 128,-1,21
 108 0 108 0 88 0 c 256,22,23
 69 0 69 0 52 15 c 128,-1,24
 35 30 35 30 35 54 c 1,25,-1
 35 54 l 1,13,14
EndSplineSet
Validated: 5
EndChar

StartChar: comma
Encoding: 44 44 442
Width: 207
GlyphClass: 1
Flags: W
LayerCount: 2
Fore
SplineSet
169 89 m 1,0,1
 146 36 146 36 124 -17 c 128,-1,2
 102 -70 102 -70 80 -124 c 1,3,-1
 3 -124 l 1,4,5
 23 -70 23 -70 42.5 -17 c 128,-1,6
 62 36 62 36 83 89 c 1,7,-1
 169 89 l 1,0,1
EndSplineSet
Validated: 1
EndChar

StartChar: ellipsis
Encoding: 8230 8230 443
Width: 537
GlyphClass: 1
Flags: W
LayerCount: 2
Fore
SplineSet
35 54 m 1,0,1
 35 77 35 77 52 93 c 128,-1,2
 69 109 69 109 88 109 c 256,3,4
 107 109 107 109 124 93 c 128,-1,5
 141 77 141 77 141 54 c 0,6,7
 141 29 141 29 124.5 14.5 c 128,-1,8
 108 0 108 0 88 0 c 256,9,10
 69 0 69 0 52 15 c 128,-1,11
 35 30 35 30 35 54 c 1,12,-1
 35 54 l 1,0,1
217 54 m 1,13,14
 217 77 217 77 234 93 c 128,-1,15
 251 109 251 109 271 109 c 0,16,17
 289 109 289 109 306.5 93 c 128,-1,18
 324 77 324 77 324 54 c 0,19,20
 324 29 324 29 307 14.5 c 128,-1,21
 290 0 290 0 271 0 c 0,22,23
 251 0 251 0 234 15 c 128,-1,24
 217 30 217 30 217 54 c 1,25,-1
 217 54 l 1,13,14
399 54 m 1,26,27
 399 77 399 77 416 93 c 128,-1,28
 433 109 433 109 454 109 c 0,29,30
 473 109 473 109 489.5 93 c 128,-1,31
 506 77 506 77 506 54 c 0,32,33
 506 29 506 29 489.5 14.5 c 128,-1,34
 473 0 473 0 454 0 c 0,35,36
 434 0 434 0 416.5 15 c 128,-1,37
 399 30 399 30 399 54 c 1,38,-1
 399 54 l 1,26,27
EndSplineSet
Validated: 5
EndChar

StartChar: exclam
Encoding: 33 33 444
Width: 205
GlyphClass: 1
Flags: W
LayerCount: 2
Fore
SplineSet
58 777 m 1,0,-1
 144 777 l 1,1,-1
 144 191 l 1,2,-1
 58 191 l 1,3,-1
 58 777 l 1,0,-1
103 4 m 0,4,5
 77 4 77 4 60 19.5 c 128,-1,6
 43 35 43 35 43 58 c 256,7,8
 43 82 43 82 60.5 98 c 128,-1,9
 78 114 78 114 103 114 c 0,10,11
 130 114 130 114 147 98 c 128,-1,12
 164 82 164 82 164 58 c 256,13,14
 164 34 164 34 147 19 c 128,-1,15
 130 4 130 4 103 4 c 0,4,5
EndSplineSet
Validated: 1
EndChar

StartChar: exclamdown
Encoding: 161 161 445
Width: 206
GlyphClass: 1
Flags: W
LayerCount: 2
Fore
SplineSet
58 -217 m 1,0,-1
 144 -217 l 1,1,-1
 144 369 l 1,2,-1
 58 369 l 1,3,-1
 58 -217 l 1,0,-1
103 556 m 0,4,5
 77 556 77 556 60 540.5 c 128,-1,6
 43 525 43 525 43 502 c 256,7,8
 43 478 43 478 60.5 462 c 128,-1,9
 78 446 78 446 103 446 c 0,10,11
 130 446 130 446 147 462 c 128,-1,12
 164 478 164 478 164 502 c 256,13,14
 164 526 164 526 147 541 c 128,-1,15
 130 556 130 556 103 556 c 0,4,5
EndSplineSet
Validated: 9
EndChar

StartChar: numbersign
Encoding: 35 35 446
Width: 591
GlyphClass: 1
Flags: W
LayerCount: 2
Fore
SplineSet
265 667 m 1,0,1
 258 617 258 617 252.5 567.5 c 128,-1,2
 247 518 247 518 240 468 c 1,3,-1
 345 468 l 1,4,5
 350 518 350 518 357 567 c 128,-1,6
 364 616 364 616 369 667 c 1,7,-1
 456 667 l 1,8,9
 450 617 450 617 443.5 567.5 c 128,-1,10
 437 518 437 518 431 468 c 1,11,-1
 537 468 l 1,12,13
 535 448 535 448 533 427.5 c 128,-1,14
 531 407 531 407 528 385 c 1,15,-1
 422 385 l 1,16,17
 419 359 419 359 416 332 c 128,-1,18
 413 305 413 305 410 279 c 1,19,-1
 515 279 l 1,20,21
 512 259 512 259 509.5 237.5 c 128,-1,22
 507 216 507 216 505 195 c 1,23,-1
 398 195 l 1,24,25
 393 147 393 147 387.5 98 c 128,-1,26
 382 49 382 49 376 0 c 1,27,-1
 290 0 l 1,28,29
 295 49 295 49 301 97.5 c 128,-1,30
 307 146 307 146 312 195 c 1,31,-1
 208 195 l 1,32,33
 203 147 203 147 196.5 98 c 128,-1,34
 190 49 190 49 185 0 c 1,35,-1
 98 0 l 1,36,37
 104 49 104 49 110 97.5 c 128,-1,38
 116 146 116 146 121 195 c 1,39,-1
 26 195 l 1,40,41
 29 217 29 217 31.5 237.5 c 128,-1,42
 34 258 34 258 36 279 c 1,43,-1
 132 279 l 1,44,45
 135 306 135 306 138 332.5 c 128,-1,46
 141 359 141 359 144 385 c 1,47,-1
 49 385 l 1,48,49
 52 407 52 407 53.5 427 c 128,-1,50
 55 447 55 447 58 468 c 1,51,-1
 154 468 l 1,52,53
 160 518 160 518 166 567 c 128,-1,54
 172 616 172 616 178 667 c 1,55,-1
 265 667 l 1,0,1
230 385 m 1,56,57
 228 359 228 359 224.5 332 c 128,-1,58
 221 305 221 305 218 279 c 1,59,-1
 323 279 l 1,60,61
 327 306 327 306 329.5 332.5 c 128,-1,62
 332 359 332 359 335 385 c 1,63,-1
 230 385 l 1,56,57
EndSplineSet
Validated: 1
EndChar

StartChar: period
Encoding: 46 46 447
Width: 172
GlyphClass: 1
Flags: W
LayerCount: 2
Fore
SplineSet
35 54 m 1,0,1
 35 77 35 77 52 93 c 128,-1,2
 69 109 69 109 89 109 c 0,3,4
 107 109 107 109 124 93 c 128,-1,5
 141 77 141 77 141 54 c 0,6,7
 141 29 141 29 124.5 14.5 c 128,-1,8
 108 0 108 0 89 0 c 0,9,10
 69 0 69 0 52 15 c 128,-1,11
 35 30 35 30 35 54 c 1,12,-1
 35 54 l 1,0,1
EndSplineSet
Validated: 5
EndChar

StartChar: question
Encoding: 63 63 448
Width: 470
GlyphClass: 1
Flags: W
LayerCount: 2
Fore
SplineSet
171 189 m 1,0,-1
 171 254 l 2,1,2
 171 304 171 304 184.5 334.5 c 128,-1,3
 198 365 198 365 219.5 385.5 c 128,-1,4
 241 406 241 406 263 425 c 0,5,6
 295 452 295 452 318 481 c 128,-1,7
 341 510 341 510 341 557 c 0,8,9
 341 591 341 591 325 616.5 c 128,-1,10
 309 642 309 642 283.5 656.5 c 128,-1,11
 258 671 258 671 228 671 c 0,12,13
 194 671 194 671 168 656 c 128,-1,14
 142 641 142 641 125 617 c 128,-1,15
 108 593 108 593 97 564 c 1,16,-1
 18 601 l 1,17,18
 25 624 25 624 42 651 c 128,-1,19
 59 678 59 678 86 702.5 c 128,-1,20
 113 727 113 727 150.5 743 c 128,-1,21
 188 759 188 759 238 759 c 0,22,23
 296 759 296 759 342 736.5 c 128,-1,24
 388 714 388 714 415 671 c 128,-1,25
 442 628 442 628 442 565 c 0,26,27
 442 516 442 516 428 483.5 c 128,-1,28
 414 451 414 451 392 426 c 128,-1,29
 370 401 370 401 344 378 c 0,30,31
 322 360 322 360 304.5 342 c 128,-1,32
 287 324 287 324 276.5 298.5 c 128,-1,33
 266 273 266 273 266 232 c 2,34,-1
 266 189 l 1,35,-1
 171 189 l 1,0,-1
220 4 m 0,36,37
 193 4 193 4 176 19.5 c 128,-1,38
 159 35 159 35 159 59 c 0,39,40
 159 82 159 82 176.5 98 c 128,-1,41
 194 114 194 114 220 114 c 0,42,43
 246 114 246 114 263 98 c 128,-1,44
 280 82 280 82 280 59 c 0,45,46
 280 34 280 34 263 19 c 128,-1,47
 246 4 246 4 220 4 c 0,36,37
EndSplineSet
Validated: 1
EndChar

StartChar: questiondown
Encoding: 191 191 449
Width: 446
GlyphClass: 1
Flags: W
LayerCount: 2
Fore
SplineSet
301 362 m 1,0,-1
 301 298 l 2,1,2
 301 249 301 249 287.5 218 c 128,-1,3
 274 187 274 187 253 167 c 128,-1,4
 232 147 232 147 209 127 c 0,5,6
 177 100 177 100 154 71.5 c 128,-1,7
 131 43 131 43 131 -5 c 0,8,9
 131 -39 131 -39 147 -64.5 c 128,-1,10
 163 -90 163 -90 189 -104.5 c 128,-1,11
 215 -119 215 -119 244 -119 c 0,12,13
 278 -119 278 -119 304 -104 c 128,-1,14
 330 -89 330 -89 347.5 -65 c 128,-1,15
 365 -41 365 -41 375 -12 c 1,16,-1
 454 -49 l 1,17,18
 447 -72 447 -72 430 -99 c 128,-1,19
 413 -126 413 -126 386 -150.5 c 128,-1,20
 359 -175 359 -175 321.5 -191 c 128,-1,21
 284 -207 284 -207 234 -207 c 0,22,23
 177 -207 177 -207 130.5 -184.5 c 128,-1,24
 84 -162 84 -162 57 -119 c 128,-1,25
 30 -76 30 -76 30 -13 c 0,26,27
 30 36 30 36 44 68.5 c 128,-1,28
 58 101 58 101 80.5 126.5 c 128,-1,29
 103 152 103 152 128 174 c 0,30,31
 150 192 150 192 167.5 210 c 128,-1,32
 185 228 185 228 195.5 253.5 c 128,-1,33
 206 279 206 279 206 319 c 2,34,-1
 206 362 l 1,35,-1
 301 362 l 1,0,-1
252 548 m 0,36,37
 279 548 279 548 296 532.5 c 128,-1,38
 313 517 313 517 313 493 c 0,39,40
 313 470 313 470 296 454 c 128,-1,41
 279 438 279 438 252 438 c 0,42,43
 226 438 226 438 209.5 454 c 128,-1,44
 193 470 193 470 193 493 c 0,45,46
 193 518 193 518 209.5 533 c 128,-1,47
 226 548 226 548 252 548 c 0,36,37
EndSplineSet
Validated: 1
EndChar

StartChar: quotedbl
Encoding: 34 34 450
Width: 347
GlyphClass: 1
Flags: W
LayerCount: 2
Fore
SplineSet
151 746 m 1,0,1
 150 681 150 681 148.5 617.5 c 128,-1,2
 147 554 147 554 146 488 c 1,3,-1
 65 488 l 1,4,-1
 65 746 l 1,5,-1
 151 746 l 1,0,1
289 746 m 1,6,7
 288 681 288 681 287 617.5 c 128,-1,8
 286 554 286 554 285 488 c 1,9,-1
 203 488 l 1,10,-1
 203 746 l 1,11,-1
 289 746 l 1,6,7
EndSplineSet
Validated: 1
EndChar

StartChar: quotesingle
Encoding: 39 39 451
Width: 167
GlyphClass: 1
Flags: W
LayerCount: 2
Fore
SplineSet
130 746 m 1,0,1
 129 681 129 681 128 617.5 c 128,-1,2
 127 554 127 554 126 488 c 1,3,-1
 44 488 l 1,4,-1
 44 746 l 1,5,-1
 130 746 l 1,0,1
EndSplineSet
Validated: 1
EndChar

StartChar: semicolon
Encoding: 59 59 452
Width: 207
GlyphClass: 1
Flags: W
LayerCount: 2
Fore
SplineSet
67 313 m 1,0,1
 67 336 67 336 83.5 352 c 128,-1,2
 100 368 100 368 120 368 c 0,3,4
 140 368 140 368 156.5 352.5 c 128,-1,5
 173 337 173 337 173 313 c 0,6,7
 173 288 173 288 156.5 273.5 c 128,-1,8
 140 259 140 259 120 259 c 0,9,10
 101 259 101 259 84 274 c 128,-1,11
 67 289 67 289 67 313 c 1,12,-1
 67 313 l 1,0,1
155 89 m 1,13,14
 132 36 132 36 110 -17 c 128,-1,15
 88 -70 88 -70 66 -124 c 1,16,-1
 -12 -124 l 1,17,18
 8 -71 8 -71 28 -17.5 c 128,-1,19
 48 36 48 36 68 89 c 1,20,-1
 155 89 l 1,13,14
EndSplineSet
Validated: 5
EndChar

StartChar: slash
Encoding: 47 47 453
Width: 393
GlyphClass: 1
Flags: W
LayerCount: 2
Fore
SplineSet
392 763 m 1,0,1
 320 567 320 567 248.5 371.5 c 128,-1,2
 177 176 177 176 104 -19 c 1,3,-1
 17 -19 l 1,4,5
 90 177 90 177 161.5 372 c 128,-1,6
 233 567 233 567 306 763 c 1,7,-1
 392 763 l 1,0,1
EndSplineSet
Validated: 1
EndChar

StartChar: underscore
Encoding: 95 95 454
Width: 621
GlyphClass: 1
Flags: W
LayerCount: 2
Fore
SplineSet
103 83 m 1,0,-1
 518 83 l 1,1,-1
 518 0 l 1,2,-1
 103 0 l 1,3,-1
 103 83 l 1,0,-1
EndSplineSet
Validated: 1
EndChar

StartChar: braceleft
Encoding: 123 123 457
Width: 361
GlyphClass: 1
Flags: W
LayerCount: 2
Fore
SplineSet
269 689 m 2,0,1
 247 689 247 689 235.5 681 c 128,-1,2
 224 673 224 673 219.5 650.5 c 128,-1,3
 215 628 215 628 215 583 c 2,4,-1
 215 463 l 2,5,6
 215 415 215 415 204.5 384 c 128,-1,7
 194 353 194 353 178.5 336 c 128,-1,8
 163 319 163 319 147 310 c 1,9,10
 161 301 161 301 177 284 c 128,-1,11
 193 267 193 267 204 239.5 c 128,-1,12
 215 212 215 212 215 170 c 2,13,-1
 215 36 l 2,14,15
 215 -8 215 -8 219.5 -31 c 128,-1,16
 224 -54 224 -54 236 -62.5 c 128,-1,17
 248 -71 248 -71 269 -71 c 2,18,-1
 314 -71 l 1,19,-1
 314 -155 l 1,20,-1
 249 -155 l 2,21,22
 223 -155 223 -155 199.5 -153.5 c 128,-1,23
 176 -152 176 -152 157 -140.5 c 128,-1,24
 138 -129 138 -129 127 -101 c 128,-1,25
 116 -73 116 -73 116 -18 c 2,26,-1
 116 143 l 2,27,28
 116 173 116 173 107.5 201.5 c 128,-1,29
 99 230 99 230 81 249.5 c 128,-1,30
 63 269 63 269 34 269 c 1,31,-1
 34 269 l 1,32,-1
 34 353 l 1,33,34
 64 354 64 354 81.5 373 c 128,-1,35
 99 392 99 392 107.5 421.5 c 128,-1,36
 116 451 116 451 116 480 c 2,37,-1
 116 650 l 2,38,39
 116 698 116 698 127 724 c 128,-1,40
 138 750 138 750 157 760 c 128,-1,41
 176 770 176 770 200 771.5 c 128,-1,42
 224 773 224 773 249 773 c 2,43,-1
 314 773 l 1,44,-1
 314 689 l 1,45,-1
 269 689 l 2,0,1
EndSplineSet
Validated: 5
EndChar

StartChar: braceright
Encoding: 125 125 458
Width: 379
GlyphClass: 1
Flags: W
LayerCount: 2
Fore
SplineSet
112 -71 m 2,0,1
 134 -71 134 -71 145 -62.5 c 128,-1,2
 156 -54 156 -54 160.5 -31 c 128,-1,3
 165 -8 165 -8 165 36 c 2,4,-1
 165 170 l 2,5,6
 165 213 165 213 176.5 240.5 c 128,-1,7
 188 268 188 268 204 284.5 c 128,-1,8
 220 301 220 301 232 308 c 1,9,10
 220 318 220 318 203.5 334.5 c 128,-1,11
 187 351 187 351 176 379.5 c 128,-1,12
 165 408 165 408 165 450 c 2,13,-1
 165 584 l 2,14,15
 165 629 165 629 160.5 651.5 c 128,-1,16
 156 674 156 674 144.5 681.5 c 128,-1,17
 133 689 133 689 112 689 c 2,18,-1
 66 689 l 1,19,-1
 66 773 l 1,20,-1
 130 773 l 2,21,22
 155 773 155 773 178.5 772 c 128,-1,23
 202 771 202 771 221.5 761 c 128,-1,24
 241 751 241 751 252.5 725 c 128,-1,25
 264 699 264 699 264 651 c 2,26,-1
 264 489 l 2,27,28
 264 469 264 469 267.5 445 c 128,-1,29
 271 421 271 421 280 399.5 c 128,-1,30
 289 378 289 378 305.5 364 c 128,-1,31
 322 350 322 350 346 349 c 1,32,-1
 346 349 l 1,33,-1
 346 265 l 1,34,35
 321 265 321 265 305 251 c 128,-1,36
 289 237 289 237 280 216 c 128,-1,37
 271 195 271 195 267.5 170.5 c 128,-1,38
 264 146 264 146 264 125 c 2,39,-1
 264 -32 l 2,40,41
 264 -80 264 -80 253 -105.5 c 128,-1,42
 242 -131 242 -131 222.5 -141.5 c 128,-1,43
 203 -152 203 -152 179.5 -153.5 c 128,-1,44
 156 -155 156 -155 130 -155 c 2,45,-1
 66 -155 l 1,46,-1
 66 -71 l 1,47,-1
 112 -71 l 2,0,1
EndSplineSet
Validated: 5
EndChar

StartChar: bracketleft
Encoding: 91 91 459
Width: 370
GlyphClass: 1
Flags: W
LayerCount: 2
Fore
SplineSet
106 773 m 1,0,-1
 319 773 l 1,1,-1
 319 684 l 1,2,-1
 207 684 l 1,3,-1
 207 -66 l 1,4,-1
 319 -66 l 1,5,-1
 319 -155 l 1,6,-1
 106 -155 l 1,7,-1
 106 773 l 1,0,-1
EndSplineSet
Validated: 1
EndChar

StartChar: bracketright
Encoding: 93 93 460
Width: 370
GlyphClass: 1
Flags: W
LayerCount: 2
Fore
SplineSet
264 -155 m 1,0,-1
 52 -155 l 1,1,-1
 52 -66 l 1,2,-1
 165 -66 l 1,3,-1
 165 685 l 1,4,-1
 52 685 l 1,5,-1
 52 773 l 1,6,-1
 264 773 l 1,7,-1
 264 -155 l 1,0,-1
EndSplineSet
Validated: 1
EndChar

StartChar: parenleft
Encoding: 40 40 461
Width: 412
GlyphClass: 1
Flags: W
LayerCount: 2
Fore
SplineSet
104 302 m 1,0,1
 104 405 104 405 129 495.5 c 128,-1,2
 154 586 154 586 193 656.5 c 128,-1,3
 232 727 232 727 275 773 c 1,4,-1
 350 731 l 1,5,6
 310 685 310 685 277 621.5 c 128,-1,7
 244 558 244 558 224 477 c 128,-1,8
 204 396 204 396 204 301 c 256,9,10
 204 206 204 206 224 125.5 c 128,-1,11
 244 45 244 45 277 -18 c 128,-1,12
 310 -81 310 -81 350 -127 c 1,13,-1
 275 -170 l 1,14,15
 232 -124 232 -124 193 -53 c 128,-1,16
 154 18 154 18 129 108 c 128,-1,17
 104 198 104 198 104 302 c 1,18,-1
 104 302 l 1,0,1
EndSplineSet
Validated: 5
EndChar

StartChar: parenright
Encoding: 41 41 462
Width: 414
GlyphClass: 1
Flags: W
LayerCount: 2
Fore
SplineSet
321 301 m 1,0,1
 321 198 321 198 295.5 107.5 c 128,-1,2
 270 17 270 17 232 -53.5 c 128,-1,3
 194 -124 194 -124 150 -170 c 1,4,-1
 75 -127 l 1,5,6
 115 -82 115 -82 148 -18.5 c 128,-1,7
 181 45 181 45 201 125.5 c 128,-1,8
 221 206 221 206 221 301 c 256,9,10
 221 396 221 396 201 477 c 128,-1,11
 181 558 181 558 148 621.5 c 128,-1,12
 115 685 115 685 75 730 c 1,13,-1
 150 773 l 1,14,15
 194 727 194 727 232 656 c 128,-1,16
 270 585 270 585 295.5 495.5 c 128,-1,17
 321 406 321 406 321 301 c 1,18,-1
 321 301 l 1,0,1
EndSplineSet
Validated: 5
EndChar

StartChar: emdash
Encoding: 8212 8212 463
Width: 726
GlyphClass: 1
Flags: W
LayerCount: 2
Fore
SplineSet
102 258 m 1,0,-1
 623 258 l 1,1,-1
 623 174 l 1,2,-1
 102 174 l 1,3,-1
 102 258 l 1,0,-1
EndSplineSet
Validated: 1
EndChar

StartChar: endash
Encoding: 8211 8211 464
Width: 527
GlyphClass: 1
Flags: W
LayerCount: 2
Fore
SplineSet
103 258 m 1,0,-1
 416 258 l 1,1,-1
 416 174 l 1,2,-1
 103 174 l 1,3,-1
 103 258 l 1,0,-1
EndSplineSet
Validated: 1
EndChar

StartChar: hyphen
Encoding: 45 45 465
Width: 311
GlyphClass: 1
Flags: W
LayerCount: 2
Fore
SplineSet
54 262 m 1,0,-1
 246 262 l 1,1,-1
 246 178 l 1,2,-1
 54 178 l 1,3,-1
 54 262 l 1,0,-1
EndSplineSet
Validated: 1
EndChar

StartChar: guillemotleft
Encoding: 171 171 467
Width: 620
GlyphClass: 1
Flags: W
LayerCount: 2
Fore
SplineSet
54 248 m 1,0,1
 59 253 59 253 76.5 268 c 128,-1,2
 94 283 94 283 118 303 c 128,-1,3
 142 323 142 323 168.5 344.5 c 128,-1,4
 195 366 195 366 219 386.5 c 128,-1,5
 243 407 243 407 260.5 421 c 128,-1,6
 278 435 278 435 283 440 c 1,7,-1
 283 353 l 1,8,9
 277 347 277 347 260.5 332 c 128,-1,10
 244 317 244 317 225 301 c 128,-1,11
 206 285 206 285 190.5 270 c 128,-1,12
 175 255 175 255 168 248 c 1,13,14
 175 241 175 241 190.5 226 c 128,-1,15
 206 211 206 211 225 194 c 128,-1,16
 244 177 244 177 260 162 c 128,-1,17
 276 147 276 147 283 140 c 1,18,-1
 283 54 l 1,19,-1
 54 248 l 1,0,1
281 248 m 1,20,21
 286 253 286 253 303.5 268 c 128,-1,22
 321 283 321 283 344.5 303 c 128,-1,23
 368 323 368 323 394.5 344.5 c 128,-1,24
 421 366 421 366 445 386.5 c 128,-1,25
 469 407 469 407 486.5 421 c 128,-1,26
 504 435 504 435 509 440 c 1,27,-1
 509 353 l 1,28,29
 502 347 502 347 486 332 c 128,-1,30
 470 317 470 317 451 301 c 128,-1,31
 432 285 432 285 416.5 270 c 128,-1,32
 401 255 401 255 394 248 c 1,33,34
 401 241 401 241 416.5 226 c 128,-1,35
 432 211 432 211 451 194 c 128,-1,36
 470 177 470 177 486 162 c 128,-1,37
 502 147 502 147 509 140 c 1,38,-1
 509 54 l 1,39,-1
 281 248 l 1,20,21
EndSplineSet
Validated: 1
EndChar

StartChar: guillemotright
Encoding: 187 187 468
Width: 620
GlyphClass: 1
Flags: W
LayerCount: 2
Fore
SplineSet
551 248 m 1,0,1
 546 253 546 253 528.5 268 c 128,-1,2
 511 283 511 283 487 303 c 128,-1,3
 463 323 463 323 436.5 344.5 c 128,-1,4
 410 366 410 366 385.5 386.5 c 128,-1,5
 361 407 361 407 344.5 421 c 128,-1,6
 328 435 328 435 322 440 c 1,7,-1
 322 353 l 1,8,9
 329 347 329 347 344.5 332 c 128,-1,10
 360 317 360 317 379 301 c 128,-1,11
 398 285 398 285 413.5 270 c 128,-1,12
 429 255 429 255 436 248 c 1,13,14
 429 241 429 241 413.5 226 c 128,-1,15
 398 211 398 211 379 194 c 128,-1,16
 360 177 360 177 344.5 162 c 128,-1,17
 329 147 329 147 322 140 c 1,18,-1
 322 54 l 1,19,-1
 551 248 l 1,0,1
325 248 m 1,20,21
 320 253 320 253 302.5 268 c 128,-1,22
 285 283 285 283 261 303 c 128,-1,23
 237 323 237 323 210.5 344.5 c 128,-1,24
 184 366 184 366 160 386.5 c 128,-1,25
 136 407 136 407 118.5 421 c 128,-1,26
 101 435 101 435 96 440 c 1,27,-1
 96 353 l 1,28,29
 102 347 102 347 118 332 c 128,-1,30
 134 317 134 317 153 301 c 128,-1,31
 172 285 172 285 188 270 c 128,-1,32
 204 255 204 255 210 248 c 1,33,34
 204 241 204 241 188 226 c 128,-1,35
 172 211 172 211 153 194 c 128,-1,36
 134 177 134 177 118 162 c 128,-1,37
 102 147 102 147 96 140 c 1,38,-1
 96 54 l 1,39,-1
 325 248 l 1,20,21
EndSplineSet
Validated: 9
EndChar

StartChar: guilsinglleft
Encoding: 8249 8249 469
Width: 379
GlyphClass: 1
Flags: W
LayerCount: 2
Fore
SplineSet
54 248 m 1,0,1
 59 253 59 253 76.5 268 c 128,-1,2
 94 283 94 283 118 303 c 128,-1,3
 142 323 142 323 168.5 344.5 c 128,-1,4
 195 366 195 366 219 386.5 c 128,-1,5
 243 407 243 407 260.5 421 c 128,-1,6
 278 435 278 435 283 440 c 1,7,-1
 283 353 l 1,8,9
 277 347 277 347 260.5 332 c 128,-1,10
 244 317 244 317 225 301 c 128,-1,11
 206 285 206 285 190.5 270 c 128,-1,12
 175 255 175 255 168 248 c 1,13,14
 175 241 175 241 190.5 226 c 128,-1,15
 206 211 206 211 225 194 c 128,-1,16
 244 177 244 177 260 162 c 128,-1,17
 276 147 276 147 283 140 c 1,18,-1
 283 54 l 1,19,-1
 54 248 l 1,0,1
EndSplineSet
Validated: 1
EndChar

StartChar: guilsinglright
Encoding: 8250 8250 470
Width: 373
GlyphClass: 1
Flags: W
LayerCount: 2
Fore
SplineSet
325 248 m 1,0,1
 320 253 320 253 302.5 268 c 128,-1,2
 285 283 285 283 261 303 c 128,-1,3
 237 323 237 323 210.5 344.5 c 128,-1,4
 184 366 184 366 160 386.5 c 128,-1,5
 136 407 136 407 118.5 421 c 128,-1,6
 101 435 101 435 96 440 c 1,7,-1
 96 353 l 1,8,9
 102 347 102 347 118 332 c 128,-1,10
 134 317 134 317 153 301 c 128,-1,11
 172 285 172 285 188 270 c 128,-1,12
 204 255 204 255 210 248 c 1,13,14
 204 241 204 241 188 226 c 128,-1,15
 172 211 172 211 153 194 c 128,-1,16
 134 177 134 177 118 162 c 128,-1,17
 102 147 102 147 96 140 c 1,18,-1
 96 54 l 1,19,-1
 325 248 l 1,0,1
EndSplineSet
Validated: 9
EndChar

StartChar: quoteleft
Encoding: 8216 8216 474
Width: 185
GlyphClass: 1
Flags: W
LayerCount: 2
Fore
SplineSet
104 750 m 1,0,-1
 154 725 l 1,1,2
 131 700 131 700 118.5 665.5 c 128,-1,3
 106 631 106 631 113 597 c 1,4,-1
 37 590 l 1,5,6
 31 625 31 625 38.5 655 c 128,-1,7
 46 685 46 685 63.5 709.5 c 128,-1,8
 81 734 81 734 104 750 c 1,0,-1
EndSplineSet
Validated: 33
EndChar

StartChar: quoteright
Encoding: 8217 8217 475
Width: 189
GlyphClass: 1
Flags: W
LayerCount: 2
Fore
SplineSet
84 578 m 1,0,-1
 36 602 l 1,1,2
 58 622 58 622 70.5 658 c 128,-1,3
 83 694 83 694 76 730 c 1,4,-1
 152 737 l 1,5,6
 158 708 158 708 149.5 677 c 128,-1,7
 141 646 141 646 123.5 619.5 c 128,-1,8
 106 593 106 593 84 578 c 1,9,-1
 84 578 l 1,0,-1
EndSplineSet
Validated: 37
EndChar

StartChar: cent
Encoding: 162 162 481
Width: 466
GlyphClass: 1
Flags: W
LayerCount: 2
Fore
SplineSet
243 493 m 1,0,-1
 302 493 l 1,1,-1
 302 -70 l 1,2,-1
 243 -70 l 1,3,-1
 243 493 l 1,0,-1
427 39 m 1,4,5
 398 16 398 16 358 3 c 128,-1,6
 318 -10 318 -10 279 -10 c 0,7,8
 209 -10 209 -10 156.5 17.5 c 128,-1,9
 104 45 104 45 75 94.5 c 128,-1,10
 46 144 46 144 46 212 c 256,11,12
 46 280 46 280 77.5 330 c 128,-1,13
 109 380 109 380 159.5 407 c 128,-1,14
 210 434 210 434 268 434 c 0,15,16
 319 434 319 434 359.5 420 c 128,-1,17
 400 406 400 406 429 381 c 1,18,-1
 382 319 l 1,19,20
 364 333 364 333 337 344.5 c 128,-1,21
 310 356 310 356 276 356 c 0,22,23
 239 356 239 356 208 337 c 128,-1,24
 177 318 177 318 159 285.5 c 128,-1,25
 141 253 141 253 141 212 c 0,26,27
 141 173 141 173 159.5 139.5 c 128,-1,28
 178 106 178 106 211 87.5 c 128,-1,29
 244 69 244 69 286 69 c 0,30,31
 314 69 314 69 336.5 77 c 128,-1,32
 359 85 359 85 378 99 c 1,33,-1
 427 39 l 1,4,5
EndSplineSet
Validated: 5
EndChar

StartChar: colonmonetary
Encoding: 8353 8353 482
Width: 710
GlyphClass: 1
Flags: W
LayerCount: 2
Fore
SplineSet
545 806 m 1,0,-1
 226 -56 l 1,1,-1
 140 -56 l 1,2,-1
 459 806 l 1,3,-1
 545 806 l 1,0,-1
706 807 m 1,4,-1
 388 -55 l 1,5,-1
 301 -55 l 1,6,-1
 620 807 l 1,7,-1
 706 807 l 1,4,-1
650 55 m 1,8,9
 632 43 632 43 600 27.5 c 128,-1,10
 568 12 568 12 525.5 2 c 128,-1,11
 483 -8 483 -8 433 -8 c 0,12,13
 347 -7 347 -7 278 22.5 c 128,-1,14
 209 52 209 52 161 103.5 c 128,-1,15
 113 155 113 155 86.5 222 c 128,-1,16
 60 289 60 289 60 365 c 0,17,18
 60 448 60 448 87.5 518 c 128,-1,19
 115 588 115 588 164 639.5 c 128,-1,20
 213 691 213 691 280 720 c 128,-1,21
 347 749 347 749 427 749 c 0,22,23
 494 749 494 749 548 731 c 128,-1,24
 602 713 602 713 641 688 c 1,25,-1
 601 596 l 1,26,27
 570 616 570 616 526.5 634.5 c 128,-1,28
 483 653 483 653 430 653 c 0,29,30
 376 653 376 653 328 631.5 c 128,-1,31
 280 610 280 610 243 571 c 128,-1,32
 206 532 206 532 185 480.5 c 128,-1,33
 164 429 164 429 164 370 c 0,34,35
 164 310 164 310 183 258 c 128,-1,36
 202 206 202 206 237 168 c 128,-1,37
 272 130 272 130 322.5 108.5 c 128,-1,38
 373 87 373 87 435 87 c 0,39,40
 491 87 491 87 535.5 104.5 c 128,-1,41
 580 122 580 122 608 143 c 1,42,-1
 650 55 l 1,8,9
EndSplineSet
Validated: 5
EndChar

StartChar: currency
Encoding: 164 164 483
Width: 516
GlyphClass: 1
Flags: W
LayerCount: 2
Fore
SplineSet
385 454 m 1,0,1
 412 416 412 416 412 370 c 0,2,3
 412 345 412 345 404 323 c 128,-1,4
 396 301 396 301 383 283 c 1,5,-1
 414 252 l 1,6,-1
 373 211 l 1,7,8
 365 218 365 218 357 226 c 128,-1,9
 349 234 349 234 340 243 c 1,10,11
 304 217 304 217 256 217 c 0,12,13
 232 217 232 217 211 223.5 c 128,-1,14
 190 230 190 230 173 242 c 1,15,-1
 173 242 l 1,16,-1
 141 210 l 1,17,-1
 99 251 l 1,18,-1
 130 282 l 1,19,20
 118 300 118 300 110.5 322.5 c 128,-1,21
 103 345 103 345 103 370 c 1,22,-1
 103 370 l 1,23,24
 103 394 103 394 110 414.5 c 128,-1,25
 117 435 117 435 129 454 c 1,26,27
 121 461 121 461 114.5 468 c 128,-1,28
 108 475 108 475 99 483 c 1,29,-1
 141 524 l 1,30,-1
 171 495 l 1,31,32
 189 507 189 507 210.5 514.5 c 128,-1,33
 232 522 232 522 256 522 c 0,34,35
 281 522 281 522 302.5 514.5 c 128,-1,36
 324 507 324 507 342 495 c 1,37,-1
 342 495 l 1,38,-1
 372 524 l 1,39,-1
 414 482 l 1,40,-1
 385 454 l 1,0,1
162 370 m 1,41,42
 162 343 162 343 175 321.5 c 128,-1,43
 188 300 188 300 209.5 287 c 128,-1,44
 231 274 231 274 257 274 c 0,45,46
 284 274 284 274 305.5 287 c 128,-1,47
 327 300 327 300 339.5 321.5 c 128,-1,48
 352 343 352 343 352 370 c 256,49,50
 352 397 352 397 339 418 c 128,-1,51
 326 439 326 439 305 452 c 128,-1,52
 284 465 284 465 257 465 c 0,53,54
 231 465 231 465 209 452 c 128,-1,55
 187 439 187 439 174.5 417.5 c 128,-1,56
 162 396 162 396 162 370 c 1,57,-1
 162 370 l 1,41,42
EndSplineSet
Validated: 5
EndChar

StartChar: dollar
Encoding: 36 36 484
Width: 580
GlyphClass: 1
Flags: W
LayerCount: 2
Fore
SplineSet
266 -70 m 1,0,-1
 266 379 l 1,1,-1
 287 412 l 1,2,-1
 287 808 l 1,3,-1
 346 808 l 1,4,-1
 346 398 l 1,5,-1
 327 355 l 1,6,-1
 327 -70 l 1,7,-1
 266 -70 l 1,0,-1
489 608 m 1,8,9
 451 627 451 627 406 641.5 c 128,-1,10
 361 656 361 656 318 656 c 0,11,12
 259 656 259 656 223.5 628.5 c 128,-1,13
 188 601 188 601 188 555 c 0,14,15
 188 520 188 520 210.5 496 c 128,-1,16
 233 472 233 472 270 454.5 c 128,-1,17
 307 437 307 437 347 422 c 0,18,19
 382 409 382 409 416 392.5 c 128,-1,20
 450 376 450 376 477 351.5 c 128,-1,21
 504 327 504 327 520 291 c 128,-1,22
 536 255 536 255 536 202 c 0,23,24
 536 144 536 144 506.5 95.5 c 128,-1,25
 477 47 477 47 423 19.5 c 128,-1,26
 369 -8 369 -8 294 -8 c 0,27,28
 245 -8 245 -8 200.5 3 c 128,-1,29
 156 14 156 14 118 32 c 128,-1,30
 80 50 80 50 50 70 c 1,31,-1
 94 147 l 1,32,33
 119 130 119 130 150.5 114 c 128,-1,34
 182 98 182 98 217 88.5 c 128,-1,35
 252 79 252 79 285 79 c 0,36,37
 320 79 320 79 354 91.5 c 128,-1,38
 388 104 388 104 410.5 131 c 128,-1,39
 433 158 433 158 433 202 c 0,40,41
 433 240 433 240 413 265 c 128,-1,42
 393 290 393 290 360.5 308 c 128,-1,43
 328 326 328 326 291 340 c 0,44,45
 256 353 256 353 220 369 c 128,-1,46
 184 385 184 385 153.5 408 c 128,-1,47
 123 431 123 431 104.5 465 c 128,-1,48
 86 499 86 499 86 547 c 0,49,50
 86 605 86 605 114 648.5 c 128,-1,51
 142 692 142 692 191.5 717 c 128,-1,52
 241 742 241 742 304 744 c 0,53,54
 376 744 376 744 430.5 727 c 128,-1,55
 485 710 485 710 527 685 c 1,56,-1
 489 608 l 1,8,9
EndSplineSet
Validated: 5
EndChar

StartChar: dong
Encoding: 8363 8363 485
Width: 634
GlyphClass: 1
Flags: W
LayerCount: 2
Fore
SplineSet
339 733 m 1,0,-1
 596 733 l 1,1,-1
 596 667 l 1,2,-1
 339 667 l 1,3,-1
 339 733 l 1,0,-1
92 68 m 1,4,-1
 569 68 l 1,5,-1
 569 0 l 1,6,-1
 92 0 l 1,7,-1
 92 68 l 1,4,-1
280 136 m 256,8,9
 223 136 223 136 176.5 164.5 c 128,-1,10
 130 193 130 193 103 244.5 c 128,-1,11
 76 296 76 296 76 364 c 0,12,13
 76 435 76 435 104.5 485 c 128,-1,14
 133 535 133 535 182 561.5 c 128,-1,15
 231 588 231 588 292 588 c 0,16,17
 340 588 340 588 385 565 c 128,-1,18
 430 542 430 542 454 504 c 1,19,-1
 447 473 l 1,20,-1
 447 801 l 1,21,-1
 542 801 l 1,22,-1
 542 146 l 1,23,-1
 446 146 l 1,24,-1
 446 251 l 1,25,-1
 457 224 l 1,26,27
 429 185 429 185 383 160.5 c 128,-1,28
 337 136 337 136 280 136 c 256,8,9
309 217 m 256,29,30
 346 217 346 217 373.5 231 c 128,-1,31
 401 245 401 245 420 269.5 c 128,-1,32
 439 294 439 294 446 327 c 1,33,-1
 446 408 l 1,34,35
 439 439 439 439 419 461.5 c 128,-1,36
 399 484 399 484 371 497.5 c 128,-1,37
 343 511 343 511 309 511 c 0,38,39
 272 511 272 511 241 492.5 c 128,-1,40
 210 474 210 474 191.5 441.5 c 128,-1,41
 173 409 173 409 173 366 c 0,42,43
 173 324 173 324 191.5 290.5 c 128,-1,44
 210 257 210 257 241 237 c 128,-1,45
 272 217 272 217 309 217 c 256,29,30
EndSplineSet
Validated: 5
EndChar

StartChar: Euro
Encoding: 8364 8364 486
Width: 765
GlyphClass: 1
Flags: W
LayerCount: 2
Fore
SplineSet
60 472 m 1,0,-1
 435 472 l 1,1,-1
 435 393 l 1,2,-1
 60 393 l 1,3,-1
 60 472 l 1,0,-1
61 330 m 1,4,-1
 435 330 l 1,5,-1
 435 252 l 1,6,-1
 61 252 l 1,7,-1
 61 330 l 1,4,-1
706 55 m 1,8,9
 689 43 689 43 656.5 27.5 c 128,-1,10
 624 12 624 12 581.5 2 c 128,-1,11
 539 -8 539 -8 488 -8 c 0,12,13
 402 -7 402 -7 333 22.5 c 128,-1,14
 264 52 264 52 216 103.5 c 128,-1,15
 168 155 168 155 142 222 c 128,-1,16
 116 289 116 289 116 365 c 0,17,18
 116 448 116 448 143 518 c 128,-1,19
 170 588 170 588 219 639.5 c 128,-1,20
 268 691 268 691 335 720 c 128,-1,21
 402 749 402 749 482 749 c 0,22,23
 549 749 549 749 603 731 c 128,-1,24
 657 713 657 713 696 688 c 1,25,-1
 656 596 l 1,26,27
 625 616 625 616 582 634.5 c 128,-1,28
 539 653 539 653 485 653 c 256,29,30
 432 653 432 653 383.5 631.5 c 128,-1,31
 335 610 335 610 298 571 c 128,-1,32
 261 532 261 532 240 480.5 c 128,-1,33
 219 429 219 429 219 370 c 0,34,35
 219 310 219 310 238 258 c 128,-1,36
 257 206 257 206 293 168 c 128,-1,37
 329 130 329 130 378.5 108.5 c 128,-1,38
 428 87 428 87 490 87 c 0,39,40
 546 87 546 87 590.5 104.5 c 128,-1,41
 635 122 635 122 664 143 c 1,42,-1
 706 55 l 1,8,9
EndSplineSet
Validated: 5
EndChar

StartChar: florin
Encoding: 402 402 487
Width: 342
GlyphClass: 1
Flags: W
LayerCount: 2
Fore
SplineSet
98 528 m 2,0,1
 98 616 98 616 131 674 c 128,-1,2
 164 732 164 732 221.5 761.5 c 128,-1,3
 279 791 279 791 353 793 c 1,4,-1
 353 698 l 1,5,6
 301 695 301 695 266.5 674 c 128,-1,7
 232 653 232 653 215 616 c 128,-1,8
 198 579 198 579 198 527 c 2,9,-1
 198 424 l 1,10,-1
 333 424 l 1,11,-1
 333 333 l 1,12,-1
 198 333 l 1,13,-1
 198 93 l 2,14,15
 198 6 198 6 169 -52.5 c 128,-1,16
 140 -111 140 -111 83.5 -140 c 128,-1,17
 27 -169 27 -169 -56 -172 c 1,18,-1
 -56 -77 l 1,19,20
 -4 -75 -4 -75 30.5 -53.5 c 128,-1,21
 65 -32 65 -32 81.5 5.5 c 128,-1,22
 98 43 98 43 98 95 c 2,23,-1
 98 333 l 1,24,-1
 27 333 l 1,25,-1
 27 424 l 1,26,-1
 98 424 l 1,27,-1
 98 528 l 2,0,1
EndSplineSet
Validated: 1
EndChar

StartChar: uni20AD
Encoding: 8365 8365 490
Width: 705
GlyphClass: 1
Flags: W
LayerCount: 2
Fore
SplineSet
36 449 m 1,0,-1
 581 449 l 1,1,-1
 581 353 l 1,2,-1
 36 353 l 1,3,-1
 36 449 l 1,0,-1
220 442 m 1,4,-1
 217 406 l 1,5,-1
 229 424 l 1,6,-1
 532 740 l 1,7,-1
 660 740 l 1,8,-1
 354 423 l 1,9,-1
 678 0 l 1,10,-1
 553 0 l 1,11,-1
 282 359 l 1,12,-1
 219 299 l 1,13,-1
 220 0 l 1,14,-1
 120 0 l 1,15,-1
 120 740 l 1,16,-1
 220 740 l 1,17,-1
 220 442 l 1,4,-1
EndSplineSet
Validated: 5
EndChar

StartChar: lira
Encoding: 8356 8356 491
Width: 651
GlyphClass: 1
Flags: W
LayerCount: 2
Fore
SplineSet
402 444 m 1,0,-1
 402 355 l 1,1,-1
 88 355 l 1,2,-1
 88 444 l 1,3,-1
 402 444 l 1,0,-1
402 294 m 1,4,-1
 402 206 l 1,5,-1
 88 206 l 1,6,-1
 88 294 l 1,7,-1
 402 294 l 1,4,-1
158 551 m 2,8,9
 158 599 158 599 185 636.5 c 128,-1,10
 212 674 212 674 260 695 c 128,-1,11
 308 716 308 716 372 716 c 0,12,13
 445 716 445 716 493.5 687.5 c 128,-1,14
 542 659 542 659 566 611 c 1,15,-1
 495 562 l 1,16,17
 490 569 490 569 482 578.5 c 128,-1,18
 474 588 474 588 462 597.5 c 128,-1,19
 450 607 450 607 428.5 614 c 128,-1,20
 407 621 407 621 374 621 c 0,21,22
 332 621 332 621 306 608.5 c 128,-1,23
 280 596 280 596 268.5 572.5 c 128,-1,24
 257 549 257 549 257 516 c 2,25,-1
 257 181 l 1,26,-1
 257 181 l 1,27,28
 257 185 257 185 256.5 175.5 c 128,-1,29
 256 166 256 166 254 149.5 c 128,-1,30
 252 133 252 133 248 117.5 c 128,-1,31
 244 102 244 102 236 95 c 1,32,-1
 221 95 l 1,33,-1
 437 95 l 2,34,35
 474 95 474 95 491 105.5 c 128,-1,36
 508 116 508 116 508 140 c 2,37,-1
 508 183 l 1,38,-1
 595 184 l 1,39,-1
 595 118 l 2,40,41
 595 92 595 92 589 70.5 c 128,-1,42
 583 49 583 49 567.5 33 c 128,-1,43
 552 17 552 17 525.5 8.5 c 128,-1,44
 499 0 499 0 459 0 c 2,45,-1
 58 0 l 1,46,-1
 58 95 l 1,47,-1
 103 95 l 2,48,49
 126 95 126 95 138 103 c 128,-1,50
 150 111 150 111 154 133.5 c 128,-1,51
 158 156 158 156 158 200 c 2,52,-1
 158 551 l 2,8,9
EndSplineSet
Validated: 5
EndChar

StartChar: uni20BA
Encoding: 8378 8378 492
Width: 675
GlyphClass: 1
Flags: W
LayerCount: 2
Fore
SplineSet
609 328 m 1,0,1
 612 314 612 314 613.5 297 c 128,-1,2
 615 280 615 280 615 262 c 0,3,4
 614 189 614 189 586.5 139.5 c 128,-1,5
 559 90 559 90 511.5 59.5 c 128,-1,6
 464 29 464 29 401.5 14.5 c 128,-1,7
 339 0 339 0 268 0 c 2,8,-1
 170 0 l 1,9,-1
 170 740 l 1,10,-1
 268 740 l 1,11,-1
 268 41 l 1,12,-1
 260 96 l 1,13,14
 315 96 315 96 361 105 c 128,-1,15
 407 114 407 114 440 133 c 128,-1,16
 473 152 473 152 491.5 184 c 128,-1,17
 510 216 510 216 510 264 c 0,18,19
 510 274 510 274 509.5 284 c 128,-1,20
 509 294 509 294 507 302 c 1,21,-1
 609 328 l 1,0,1
450 455 m 1,22,-1
 488 394 l 1,23,-1
 104 180 l 1,24,-1
 66 241 l 1,25,-1
 450 455 l 1,22,-1
407 585 m 1,26,-1
 444 524 l 1,27,-1
 61 312 l 1,28,-1
 24 373 l 1,29,-1
 407 585 l 1,26,-1
EndSplineSet
Validated: 5
EndChar

StartChar: uni20BC
Encoding: 8380 8380 493
Width: 768
GlyphClass: 2
Flags: W
AnchorPoint: "Anchor-3" 236 727 basechar 0
AnchorPoint: "Anchor-2" 384 -15 basechar 0
AnchorPoint: "Anchor-0" 384 737 basechar 0
LayerCount: 2
Fore
SplineSet
342 851 m 1,0,-1
 428 851 l 1,1,-1
 428 0 l 1,2,-1
 342 0 l 1,3,-1
 342 851 l 1,0,-1
563 475 m 2,4,5
 563 525 563 525 539 564.5 c 128,-1,6
 515 604 515 604 474.5 626.5 c 128,-1,7
 434 649 434 649 385 649 c 0,8,9
 334 649 334 649 293 626.5 c 128,-1,10
 252 604 252 604 228.5 564.5 c 128,-1,11
 205 525 205 525 205 475 c 2,12,-1
 205 -3 l 1,13,-1
 106 -3 l 1,14,-1
 106 477 l 2,15,16
 106 559 106 559 143.5 619 c 128,-1,17
 181 679 181 679 244 712 c 128,-1,18
 307 745 307 745 385 745 c 1,19,-1
 385 745 l 1,20,21
 463 745 463 745 525.5 712 c 128,-1,22
 588 679 588 679 625 619 c 128,-1,23
 662 559 662 559 662 477 c 2,24,-1
 662 -3 l 1,25,-1
 563 -3 l 1,26,-1
 563 475 l 2,4,5
EndSplineSet
Validated: 1048581
EndChar

StartChar: uni20A6
Encoding: 8358 8358 494
Width: 857
GlyphClass: 2
Flags: W
AnchorPoint: "Anchor-2" 429 0 basechar 0
AnchorPoint: "Anchor-0" 416 740 basechar 0
LayerCount: 2
Fore
SplineSet
445 416 m 1,0,-1
 839 416 l 1,1,-1
 839 348 l 1,2,-1
 445 348 l 1,3,-1
 445 416 l 1,0,-1
427 348 m 1,4,-1
 15 348 l 1,5,-1
 15 416 l 1,6,-1
 427 416 l 1,7,-1
 427 348 l 1,4,-1
748 -24 m 1,8,-1
 175 562 l 1,9,-1
 205 550 l 1,10,-1
 207 0 l 1,11,-1
 106 0 l 1,12,-1
 106 763 l 1,13,-1
 112 763 l 1,14,-1
 678 175 l 1,15,-1
 653 185 l 1,16,-1
 651 740 l 1,17,-1
 751 740 l 1,18,-1
 751 -24 l 1,19,-1
 748 -24 l 1,8,-1
EndSplineSet
Validated: 1048581
EndChar

StartChar: peseta
Encoding: 8359 8359 495
Width: 635
GlyphClass: 1
Flags: W
LayerCount: 2
Fore
SplineSet
520 540 m 1,0,-1
 623 540 l 1,1,-1
 623 472 l 1,2,-1
 520 472 l 1,3,-1
 520 540 l 1,0,-1
132 472 m 1,4,-1
 27 472 l 1,5,-1
 27 540 l 1,6,-1
 132 540 l 1,7,-1
 132 472 l 1,4,-1
304 740 m 2,8,9
 385 740 385 740 442.5 713 c 128,-1,10
 500 686 500 686 531 635 c 128,-1,11
 562 584 562 584 562 510 c 0,12,13
 562 467 562 467 549 424.5 c 128,-1,14
 536 382 536 382 506.5 347.5 c 128,-1,15
 477 313 477 313 430 292.5 c 128,-1,16
 383 272 383 272 315 272 c 2,17,-1
 206 272 l 1,18,-1
 206 0 l 1,19,-1
 106 0 l 1,20,-1
 106 740 l 1,21,-1
 304 740 l 2,8,9
314 368 m 2,22,23
 358 368 358 368 387.5 382 c 128,-1,24
 417 396 417 396 433 418 c 128,-1,25
 449 440 449 440 456 464.5 c 128,-1,26
 463 489 463 489 463 509 c 0,27,28
 463 532 463 532 456 556 c 128,-1,29
 449 580 449 580 432 600 c 128,-1,30
 415 620 415 620 387.5 632.5 c 128,-1,31
 360 645 360 645 321 645 c 2,32,-1
 206 645 l 1,33,-1
 206 368 l 1,34,-1
 314 368 l 2,22,23
EndSplineSet
Validated: 5
EndChar

StartChar: uni20B1
Encoding: 8369 8369 496
Width: 626
GlyphClass: 1
Flags: W
LayerCount: 2
Fore
SplineSet
470 602 m 1,0,-1
 620 602 l 1,1,-1
 620 535 l 1,2,-1
 470 535 l 1,3,-1
 470 602 l 1,0,-1
482 468 m 1,4,-1
 620 468 l 1,5,-1
 620 400 l 1,6,-1
 482 400 l 1,7,-1
 482 468 l 1,4,-1
152 400 m 1,8,-1
 15 400 l 1,9,-1
 15 468 l 1,10,-1
 152 468 l 1,11,-1
 152 400 l 1,8,-1
152 535 m 1,12,-1
 15 535 l 1,13,-1
 15 602 l 1,14,-1
 152 602 l 1,15,-1
 152 535 l 1,12,-1
304 740 m 2,16,17
 385 740 385 740 442.5 713 c 128,-1,18
 500 686 500 686 531 635 c 128,-1,19
 562 584 562 584 562 510 c 0,20,21
 562 467 562 467 549 424.5 c 128,-1,22
 536 382 536 382 506.5 347.5 c 128,-1,23
 477 313 477 313 430 292.5 c 128,-1,24
 383 272 383 272 315 272 c 2,25,-1
 206 272 l 1,26,-1
 206 0 l 1,27,-1
 106 0 l 1,28,-1
 106 740 l 1,29,-1
 304 740 l 2,16,17
314 368 m 2,30,31
 358 368 358 368 387.5 382 c 128,-1,32
 417 396 417 396 433 418 c 128,-1,33
 449 440 449 440 456 464.5 c 128,-1,34
 463 489 463 489 463 509 c 0,35,36
 463 532 463 532 456 556 c 128,-1,37
 449 580 449 580 432 600 c 128,-1,38
 415 620 415 620 387.5 632.5 c 128,-1,39
 360 645 360 645 321 645 c 2,40,-1
 206 645 l 1,41,-1
 206 368 l 1,42,-1
 314 368 l 2,30,31
EndSplineSet
Validated: 5
EndChar

StartChar: uni20BD
Encoding: 8381 8381 497
Width: 604
GlyphClass: 1
Flags: W
LayerCount: 2
Fore
SplineSet
15 191 m 1,0,-1
 307 191 l 1,1,-1
 307 103 l 1,2,-1
 15 103 l 1,3,-1
 15 191 l 1,0,-1
15 362 m 1,4,-1
 253 362 l 1,5,-1
 253 274 l 1,6,-1
 15 274 l 1,7,-1
 15 362 l 1,4,-1
304 740 m 2,8,9
 385 740 385 740 442.5 713 c 128,-1,10
 500 686 500 686 531 635 c 128,-1,11
 562 584 562 584 562 510 c 0,12,13
 562 467 562 467 549 424.5 c 128,-1,14
 536 382 536 382 506.5 347.5 c 128,-1,15
 477 313 477 313 430 292.5 c 128,-1,16
 383 272 383 272 315 272 c 2,17,-1
 206 272 l 1,18,-1
 206 0 l 1,19,-1
 106 0 l 1,20,-1
 106 740 l 1,21,-1
 304 740 l 2,8,9
314 368 m 2,22,23
 358 368 358 368 387.5 382 c 128,-1,24
 417 396 417 396 433 418 c 128,-1,25
 449 440 449 440 456 464.5 c 128,-1,26
 463 489 463 489 463 509 c 0,27,28
 463 532 463 532 456 556 c 128,-1,29
 449 580 449 580 432 600 c 128,-1,30
 415 620 415 620 387.5 632.5 c 128,-1,31
 360 645 360 645 321 645 c 2,32,-1
 206 645 l 1,33,-1
 206 368 l 1,34,-1
 314 368 l 2,22,23
EndSplineSet
Validated: 5
EndChar

StartChar: uni20B9
Encoding: 8377 8377 498
Width: 560
GlyphClass: 1
Flags: W
LayerCount: 2
Fore
SplineSet
106 272 m 1,0,-1
 106 368 l 1,1,-1
 194 368 l 2,2,3
 238 368 238 368 267 381 c 128,-1,4
 296 394 296 394 312.5 415 c 128,-1,5
 329 436 329 436 336 460.5 c 128,-1,6
 343 485 343 485 343 507 c 0,7,8
 343 530 343 530 335.5 554 c 128,-1,9
 328 578 328 578 311 598 c 128,-1,10
 294 618 294 618 267 631.5 c 128,-1,11
 240 645 240 645 201 645 c 2,12,-1
 106 645 l 1,13,-1
 106 740 l 1,14,-1
 520 740 l 1,15,-1
 520 645 l 1,16,-1
 273 645 l 1,17,-1
 183 714 l 1,18,19
 239 714 239 714 287 703 c 128,-1,20
 335 692 335 692 370.5 668 c 128,-1,21
 406 644 406 644 425.5 605.5 c 128,-1,22
 445 567 445 567 445 511 c 0,23,24
 445 467 445 467 432 425 c 128,-1,25
 419 383 419 383 389.5 348.5 c 128,-1,26
 360 314 360 314 312.5 293 c 128,-1,27
 265 272 265 272 196 272 c 2,28,-1
 106 272 l 1,0,-1
393 0 m 1,29,-1
 197 308 l 1,30,-1
 315 311 l 1,31,-1
 509 0 l 1,32,-1
 393 0 l 1,29,-1
109 465 m 1,33,-1
 109 548 l 1,34,-1
 524 548 l 1,35,-1
 524 465 l 1,36,-1
 109 465 l 1,33,-1
EndSplineSet
Validated: 5
EndChar

StartChar: sterling
Encoding: 163 163 499
Width: 647
GlyphClass: 1
Flags: W
LayerCount: 2
Fore
SplineSet
398 393 m 1,0,-1
 398 297 l 1,1,-1
 90 297 l 1,2,-1
 90 393 l 1,3,-1
 398 393 l 1,0,-1
158 551 m 2,4,5
 158 599 158 599 184.5 636.5 c 128,-1,6
 211 674 211 674 259 695 c 128,-1,7
 307 716 307 716 372 716 c 0,8,9
 445 716 445 716 493 687.5 c 128,-1,10
 541 659 541 659 566 611 c 1,11,-1
 495 562 l 1,12,13
 485 577 485 577 470.5 590.5 c 128,-1,14
 456 604 456 604 433.5 612.5 c 128,-1,15
 411 621 411 621 373 621 c 0,16,17
 331 621 331 621 305.5 608.5 c 128,-1,18
 280 596 280 596 268 572.5 c 128,-1,19
 256 549 256 549 256 516 c 2,20,-1
 256 204 l 1,21,-1
 256 181 l 2,22,23
 256 167 256 167 254.5 149 c 128,-1,24
 253 131 253 131 247.5 115 c 128,-1,25
 242 99 242 99 230 89 c 1,26,-1
 216 95 l 1,27,-1
 437 95 l 2,28,29
 474 95 474 95 491 105.5 c 128,-1,30
 508 116 508 116 508 140 c 2,31,-1
 508 183 l 1,32,-1
 595 184 l 1,33,-1
 595 118 l 2,34,35
 595 92 595 92 588.5 70.5 c 128,-1,36
 582 49 582 49 566.5 33 c 128,-1,37
 551 17 551 17 525 8.5 c 128,-1,38
 499 0 499 0 459 0 c 2,39,-1
 57 0 l 1,40,-1
 57 95 l 1,41,-1
 103 95 l 2,42,43
 126 95 126 95 137 103 c 128,-1,44
 148 111 148 111 153 133.5 c 128,-1,45
 158 156 158 156 158 200 c 2,46,-1
 158 551 l 2,4,5
EndSplineSet
Validated: 5
EndChar

StartChar: uni20A9
Encoding: 8361 8361 500
Width: 1032
GlyphClass: 1
Flags: W
LayerCount: 2
Fore
SplineSet
67 462 m 1,0,-1
 981 462 l 1,1,-1
 981 394 l 1,2,-1
 67 394 l 1,3,-1
 67 462 l 1,0,-1
42 736 m 1,4,-1
 157 736 l 1,5,-1
 357 171 l 1,6,-1
 340 178 l 1,7,-1
 486 557 l 1,8,-1
 532 423 l 1,9,-1
 337 -34 l 1,10,-1
 42 736 l 1,4,-1
397 736 m 1,11,-1
 497 736 l 1,12,-1
 714 179 l 1,13,-1
 693 183 l 1,14,-1
 885 736 l 1,15,-1
 990 736 l 1,16,-1
 699 -33 l 1,17,-1
 397 736 l 1,11,-1
EndSplineSet
Validated: 5
EndChar

StartChar: yen
Encoding: 165 165 501
Width: 707
GlyphClass: 2
Flags: W
AnchorPoint: "Anchor-2" 352 0 basechar 0
AnchorPoint: "Anchor-0" 365 740 basechar 0
LayerCount: 2
Fore
SplineSet
169 308 m 1,0,-1
 546 308 l 1,1,-1
 546 230 l 1,2,-1
 169 230 l 1,3,-1
 169 308 l 1,0,-1
170 158 m 1,4,-1
 545 158 l 1,5,-1
 545 79 l 1,6,-1
 170 79 l 1,7,-1
 170 158 l 1,4,-1
303 310 m 1,8,-1
 29 740 l 1,9,-1
 151 740 l 1,10,-1
 371 395 l 1,11,-1
 340 392 l 1,12,-1
 558 740 l 1,13,-1
 679 740 l 1,14,-1
 402 310 l 1,15,-1
 402 0 l 1,16,-1
 303 0 l 1,17,-1
 303 310 l 1,8,-1
EndSplineSet
Validated: 1048581
EndChar

StartChar: uni2219
Encoding: 8729 8729 502
Width: 222
GlyphClass: 1
Flags: W
LayerCount: 2
Fore
SplineSet
112 243 m 0,0,1
 77 243 77 243 53.5 266.5 c 128,-1,2
 30 290 30 290 30 324 c 256,3,4
 30 358 30 358 53.5 381 c 128,-1,5
 77 404 77 404 112 404 c 0,6,7
 146 404 146 404 169.5 380.5 c 128,-1,8
 193 357 193 357 193 324 c 256,9,10
 193 290 193 290 169.5 266.5 c 128,-1,11
 146 243 146 243 112 243 c 0,0,1
EndSplineSet
Validated: 1
EndChar

StartChar: plus
Encoding: 43 43 504
Width: 563
GlyphClass: 1
Flags: W
LayerCount: 2
Fore
SplineSet
232 426 m 1,0,-1
 319 426 l 1,1,-1
 319 281 l 1,2,-1
 462 281 l 1,3,-1
 462 198 l 1,4,-1
 319 198 l 1,5,-1
 319 52 l 1,6,-1
 232 52 l 1,7,-1
 232 198 l 1,8,-1
 89 198 l 1,9,-1
 89 281 l 1,10,-1
 232 281 l 1,11,-1
 232 426 l 1,0,-1
EndSplineSet
Validated: 1
EndChar

StartChar: minus
Encoding: 8722 8722 505
Width: 657
GlyphClass: 1
Flags: W
LayerCount: 2
Fore
SplineSet
86 252 m 1,0,-1
 459 252 l 1,1,-1
 459 168 l 1,2,-1
 86 168 l 1,3,-1
 86 252 l 1,0,-1
EndSplineSet
Validated: 1
EndChar

StartChar: multiply
Encoding: 215 215 506
Width: 529
GlyphClass: 1
Flags: W
LayerCount: 2
Fore
SplineSet
285 246 m 1,0,1
 310 271 310 271 333.5 294 c 128,-1,2
 357 317 357 317 382 343 c 1,3,4
 399 326 399 326 417 306.5 c 128,-1,5
 435 287 435 287 453 269 c 1,6,7
 429 245 429 245 405 221.5 c 128,-1,8
 381 198 381 198 358 173 c 1,9,10
 383 148 383 148 406.5 123.5 c 128,-1,11
 430 99 430 99 456 74 c 1,12,-1
 380 0 l 1,13,14
 356 25 356 25 331 49 c 128,-1,15
 306 73 306 73 281 97 c 1,16,17
 258 73 258 73 233.5 49.5 c 128,-1,18
 209 26 209 26 185 1 c 1,19,20
 167 19 167 19 148.5 37 c 128,-1,21
 130 55 130 55 113 74 c 1,22,23
 138 99 138 99 161.5 122 c 128,-1,24
 185 145 185 145 210 171 c 1,25,-1
 111 269 l 1,26,-1
 184 345 l 1,27,-1
 285 246 l 1,0,1
EndSplineSet
Validated: 1
EndChar

StartChar: divide
Encoding: 247 247 507
Width: 518
GlyphClass: 1
Flags: W
LayerCount: 2
Fore
SplineSet
207 406 m 1,0,1
 207 430 207 430 223.5 445.5 c 128,-1,2
 240 461 240 461 260 461 c 0,3,4
 279 461 279 461 296 445 c 128,-1,5
 313 429 313 429 313 406 c 256,6,7
 313 382 313 382 296.5 367 c 128,-1,8
 280 352 280 352 260 352 c 0,9,10
 240 352 240 352 223.5 367 c 128,-1,11
 207 382 207 382 207 406 c 1,12,-1
 207 406 l 1,0,1
207 108 m 1,13,14
 207 132 207 132 223.5 147.5 c 128,-1,15
 240 163 240 163 260 163 c 0,16,17
 279 163 279 163 296 147 c 128,-1,18
 313 131 313 131 313 108 c 256,19,20
 313 84 313 84 296.5 69 c 128,-1,21
 280 54 280 54 260 54 c 0,22,23
 240 54 240 54 223.5 69 c 128,-1,24
 207 84 207 84 207 108 c 1,25,-1
 207 108 l 1,13,14
70 297 m 1,26,-1
 443 297 l 1,27,-1
 443 214 l 1,28,-1
 70 214 l 1,29,-1
 70 297 l 1,26,-1
EndSplineSet
Validated: 5
EndChar

StartChar: equal
Encoding: 61 61 508
Width: 734
GlyphClass: 1
Flags: W
LayerCount: 2
Fore
SplineSet
103 401 m 1,0,-1
 628 401 l 1,1,-1
 628 317 l 1,2,-1
 103 317 l 1,3,-1
 103 401 l 1,0,-1
103 200 m 1,4,-1
 628 200 l 1,5,-1
 628 117 l 1,6,-1
 103 117 l 1,7,-1
 103 200 l 1,4,-1
EndSplineSet
Validated: 1
EndChar

StartChar: notequal
Encoding: 8800 8800 509
Width: 734
GlyphClass: 1
Flags: W
LayerCount: 2
Fore
SplineSet
601 510 m 1,0,1
 564 467 564 467 519 414 c 128,-1,2
 474 361 474 361 426 304.5 c 128,-1,3
 378 248 378 248 329.5 191 c 128,-1,4
 281 134 281 134 236 81.5 c 128,-1,5
 191 29 191 29 154 -14 c 1,6,-1
 104 29 l 1,7,8
 142 72 142 72 186.5 124.5 c 128,-1,9
 231 177 231 177 280 234 c 128,-1,10
 329 291 329 291 377.5 348.5 c 128,-1,11
 426 406 426 406 471 458.5 c 128,-1,12
 516 511 516 511 554 554 c 1,13,-1
 601 510 l 1,0,1
103 401 m 1,14,-1
 628 401 l 1,15,-1
 628 317 l 1,16,-1
 103 317 l 1,17,-1
 103 401 l 1,14,-1
103 200 m 1,18,-1
 628 200 l 1,19,-1
 628 117 l 1,20,-1
 103 117 l 1,21,-1
 103 200 l 1,18,-1
EndSplineSet
Validated: 5
EndChar

StartChar: greater
Encoding: 62 62 510
Width: 604
GlyphClass: 1
Flags: W
LayerCount: 2
Fore
SplineSet
95 89 m 1,0,-1
 366 247 l 1,1,-1
 95 404 l 1,2,-1
 95 508 l 1,3,-1
 549 247 l 1,4,-1
 95 -15 l 1,5,-1
 95 -15 l 1,6,-1
 95 89 l 1,0,-1
EndSplineSet
Validated: 5
EndChar

StartChar: less
Encoding: 60 60 511
Width: 615
GlyphClass: 1
Flags: W
LayerCount: 2
Fore
SplineSet
516 403 m 1,0,-1
 246 246 l 1,1,-1
 516 89 l 1,2,-1
 516 -15 l 1,3,-1
 63 246 l 1,4,-1
 516 508 l 1,5,-1
 516 403 l 1,0,-1
EndSplineSet
Validated: 1
EndChar

StartChar: greaterequal
Encoding: 8805 8805 512
Width: 569
GlyphClass: 1
Flags: W
LayerCount: 2
Fore
SplineSet
75 745 m 1,0,-1
 528 484 l 1,1,-1
 75 223 l 1,2,-1
 75 327 l 1,3,-1
 357 480 l 1,4,-1
 75 642 l 1,5,-1
 75 745 l 1,0,-1
74 146 m 1,6,-1
 486 146 l 1,7,-1
 486 62 l 1,8,-1
 74 62 l 1,9,-1
 74 146 l 1,6,-1
EndSplineSet
Validated: 1
EndChar

StartChar: lessequal
Encoding: 8804 8804 513
Width: 569
GlyphClass: 1
Flags: W
LayerCount: 2
Fore
SplineSet
480 223 m 1,0,-1
 27 484 l 1,1,-1
 480 745 l 1,2,-1
 480 642 l 1,3,-1
 211 483 l 1,4,-1
 480 327 l 1,5,-1
 480 327 l 1,6,-1
 480 223 l 1,0,-1
67 146 m 1,7,-1
 466 146 l 1,8,-1
 466 62 l 1,9,-1
 67 62 l 1,10,-1
 67 146 l 1,7,-1
EndSplineSet
Validated: 5
EndChar

StartChar: plusminus
Encoding: 177 177 514
Width: 543
GlyphClass: 1
Flags: W
LayerCount: 2
Fore
SplineSet
232 592 m 1,0,-1
 319 592 l 1,1,-1
 319 446 l 1,2,-1
 462 446 l 1,3,-1
 462 364 l 1,4,-1
 319 364 l 1,5,-1
 319 218 l 1,6,-1
 232 218 l 1,7,-1
 232 364 l 1,8,-1
 89 364 l 1,9,-1
 89 446 l 1,10,-1
 232 446 l 1,11,-1
 232 592 l 1,0,-1
89 175 m 1,12,-1
 462 175 l 1,13,-1
 462 91 l 1,14,-1
 89 91 l 1,15,-1
 89 175 l 1,12,-1
EndSplineSet
Validated: 1
EndChar

StartChar: asciitilde
Encoding: 126 126 516
Width: 436
GlyphClass: 1
Flags: W
LayerCount: 2
Fore
SplineSet
304 446 m 0,0,1
 266 446 266 446 242 463 c 128,-1,2
 218 480 218 480 198 498 c 0,3,4
 185 511 185 511 171 521 c 128,-1,5
 157 531 157 531 139 531 c 0,6,7
 125 531 125 531 114 521 c 128,-1,8
 103 511 103 511 97.5 491 c 128,-1,9
 92 471 92 471 93 445 c 1,10,-1
 34 445 l 1,11,12
 31 490 31 490 43.5 526.5 c 128,-1,13
 56 563 56 563 83 584 c 128,-1,14
 110 605 110 605 145 605 c 0,15,16
 175 605 175 605 197 588.5 c 128,-1,17
 219 572 219 572 239 555 c 0,18,19
 254 540 254 540 269.5 528 c 128,-1,20
 285 516 285 516 301 516 c 0,21,22
 316 516 316 516 325.5 527.5 c 128,-1,23
 335 539 335 539 339 559.5 c 128,-1,24
 343 580 343 580 343 606 c 1,25,-1
 402 605 l 1,26,27
 407 557 407 557 395 521 c 128,-1,28
 383 485 383 485 359 465.5 c 128,-1,29
 335 446 335 446 304 446 c 0,0,1
EndSplineSet
Validated: 33
EndChar

StartChar: logicalnot
Encoding: 172 172 517
Width: 513
GlyphClass: 1
Flags: W
LayerCount: 2
Fore
SplineSet
71 303 m 1,0,-1
 443 303 l 1,1,-1
 443 115 l 1,2,-1
 344 115 l 1,3,-1
 344 208 l 1,4,-1
 71 208 l 1,5,-1
 71 303 l 1,0,-1
EndSplineSet
Validated: 1
EndChar

StartChar: infinity
Encoding: 8734 8734 518
Width: 476
GlyphClass: 1
Flags: W
LayerCount: 2
Fore
SplineSet
264 314 m 1,0,1
 264 287 264 287 246 267 c 128,-1,2
 228 247 228 247 200 235 c 128,-1,3
 172 223 172 223 141 223 c 0,4,5
 106 223 106 223 83.5 237.5 c 128,-1,6
 61 252 61 252 50.5 273 c 128,-1,7
 40 294 40 294 40 314 c 0,8,9
 40 333 40 333 50.5 354.5 c 128,-1,10
 61 376 61 376 83.5 390 c 128,-1,11
 106 404 106 404 140 404 c 0,12,13
 172 404 172 404 200 392.5 c 128,-1,14
 228 381 228 381 246 360.5 c 128,-1,15
 264 340 264 340 264 314 c 1,16,-1
 264 314 l 1,0,1
212 314 m 1,17,18
 212 340 212 340 230 360.5 c 128,-1,19
 248 381 248 381 276.5 392.5 c 128,-1,20
 305 404 305 404 336 404 c 0,21,22
 371 404 371 404 392.5 390 c 128,-1,23
 414 376 414 376 424.5 355.5 c 128,-1,24
 435 335 435 335 435 314 c 256,25,26
 435 294 435 294 425 273 c 128,-1,27
 415 252 415 252 393 237.5 c 128,-1,28
 371 223 371 223 335 223 c 0,29,30
 304 223 304 223 276 235.5 c 128,-1,31
 248 248 248 248 230 268.5 c 128,-1,32
 212 289 212 289 212 314 c 1,33,-1
 212 314 l 1,17,18
212 313 m 1,34,35
 212 330 212 330 190 341.5 c 128,-1,36
 168 353 168 353 141 353 c 0,37,38
 115 353 115 353 103.5 341.5 c 128,-1,39
 92 330 92 330 92 313 c 0,40,41
 92 299 92 299 103 286.5 c 128,-1,42
 114 274 114 274 141 274 c 0,43,44
 167 274 167 274 189.5 285 c 128,-1,45
 212 296 212 296 212 313 c 1,46,-1
 212 313 l 1,34,35
264 313 m 1,47,48
 264 295 264 295 287 284.5 c 128,-1,49
 310 274 310 274 335 274 c 0,50,51
 363 274 363 274 373.5 286.5 c 128,-1,52
 384 299 384 299 384 313 c 0,53,54
 384 329 384 329 372 341 c 128,-1,55
 360 353 360 353 335 353 c 256,56,57
 309 353 309 353 286.5 342 c 128,-1,58
 264 331 264 331 264 313 c 1,59,-1
 264 313 l 1,47,48
EndSplineSet
Validated: 5
EndChar

StartChar: integral
Encoding: 8747 8747 519
Width: 387
GlyphClass: 1
Flags: W
LayerCount: 2
Fore
SplineSet
255 689 m 2,0,1
 235 689 235 689 223 681.5 c 128,-1,2
 211 674 211 674 206 651.5 c 128,-1,3
 201 629 201 629 201 584 c 2,4,-1
 201 -32 l 2,5,6
 201 -80 201 -80 191 -106 c 128,-1,7
 181 -132 181 -132 163.5 -142 c 128,-1,8
 146 -152 146 -152 124 -153.5 c 128,-1,9
 102 -155 102 -155 79 -155 c 2,10,-1
 13 -155 l 1,11,-1
 13 -71 l 1,12,-1
 58 -71 l 2,13,14
 80 -71 80 -71 92 -62.5 c 128,-1,15
 104 -54 104 -54 109 -31 c 128,-1,16
 114 -8 114 -8 114 36 c 2,17,-1
 114 651 l 1,18,-1
 114 651 l 1,19,20
 114 699 114 699 123 725 c 128,-1,21
 132 751 132 751 149.5 761 c 128,-1,22
 167 771 167 771 189 772 c 128,-1,23
 211 773 211 773 236 773 c 2,24,-1
 301 773 l 1,25,-1
 301 689 l 1,26,-1
 255 689 l 2,0,1
EndSplineSet
Validated: 5
EndChar

StartChar: uni2126
Encoding: 8486 8486 520
Width: 852
GlyphClass: 1
Flags: W
LayerCount: 2
Fore
SplineSet
504 83 m 1,0,1
 543 100 543 100 572 132.5 c 128,-1,2
 601 165 601 165 617.5 211 c 128,-1,3
 634 257 634 257 634 311 c 0,4,5
 634 354 634 354 623.5 395 c 128,-1,6
 613 436 613 436 590.5 468.5 c 128,-1,7
 568 501 568 501 532.5 520.5 c 128,-1,8
 497 540 497 540 445 540 c 0,9,10
 392 540 392 540 354.5 520 c 128,-1,11
 317 500 317 500 294.5 466.5 c 128,-1,12
 272 433 272 433 262 394 c 128,-1,13
 252 355 252 355 252 316 c 0,14,15
 251 258 251 258 270 211.5 c 128,-1,16
 289 165 289 165 321 133 c 128,-1,17
 353 101 353 101 391 83 c 1,18,-1
 391 42 l 1,19,20
 362 50 362 50 331 63 c 128,-1,21
 300 76 300 76 270.5 96 c 128,-1,22
 241 116 241 116 217.5 147 c 128,-1,23
 194 178 194 178 179.5 222.5 c 128,-1,24
 165 267 165 267 165 330 c 0,25,26
 165 402 165 402 185.5 456 c 128,-1,27
 206 510 206 510 243.5 547.5 c 128,-1,28
 281 585 281 585 331 604 c 128,-1,29
 381 623 381 623 441 623 c 0,30,31
 514 623 514 623 568 598 c 128,-1,32
 622 573 622 573 656.5 530.5 c 128,-1,33
 691 488 691 488 707 432 c 128,-1,34
 723 376 723 376 720 313 c 0,35,36
 718 253 718 253 702.5 210 c 128,-1,37
 687 167 687 167 663 137.5 c 128,-1,38
 639 108 639 108 611 89 c 128,-1,39
 583 70 583 70 555 58 c 128,-1,40
 527 46 527 46 504 39 c 1,41,-1
 504 83 l 1,0,1
159 83 m 1,42,-1
 391 83 l 1,43,-1
 391 0 l 1,44,-1
 159 0 l 1,45,-1
 159 83 l 1,42,-1
504 83 m 1,46,-1
 725 83 l 1,47,-1
 725 0 l 1,48,-1
 504 0 l 1,49,-1
 504 83 l 1,46,-1
EndSplineSet
Validated: 37
EndChar

StartChar: uni2206
Encoding: 8710 8710 521
Width: 519
GlyphClass: 1
Flags: W
LayerCount: 2
Fore
SplineSet
242 756 m 1,0,-1
 414 266 l 1,1,-1
 353 266 l 1,2,-1
 242 597 l 1,3,-1
 131 266 l 1,4,-1
 70 266 l 1,5,-1
 242 756 l 1,6,-1
 242 756 l 1,0,-1
119 317 m 1,7,-1
 371 317 l 1,8,-1
 371 266 l 1,9,-1
 119 266 l 1,10,-1
 119 317 l 1,7,-1
EndSplineSet
Validated: 5
EndChar

StartChar: product
Encoding: 8719 8719 522
Width: 738
GlyphClass: 1
Flags: W
LayerCount: 2
Fore
SplineSet
208 777 m 1,0,-1
 502 777 l 1,1,-1
 502 -77 l 1,2,-1
 417 -77 l 1,3,-1
 417 694 l 1,4,-1
 294 694 l 1,5,-1
 294 -77 l 1,6,-1
 208 -77 l 1,7,-1
 208 777 l 1,0,-1
EndSplineSet
Validated: 1
EndChar

StartChar: summation
Encoding: 8721 8721 523
Width: 563
GlyphClass: 1
Flags: W
LayerCount: 2
Fore
SplineSet
79 777 m 1,0,-1
 487 777 l 1,1,-1
 460 694 l 1,2,-1
 193 694 l 1,3,-1
 290 347 l 1,4,-1
 193 -1 l 1,5,-1
 460 -1 l 1,6,-1
 487 -84 l 1,7,-1
 79 -84 l 1,8,-1
 198 347 l 1,9,-1
 79 777 l 1,0,-1
EndSplineSet
Validated: 1
EndChar

StartChar: radical
Encoding: 8730 8730 524
Width: 573
GlyphClass: 1
Flags: W
LayerCount: 2
Fore
SplineSet
463 629 m 1,0,-1
 523 629 l 1,1,-1
 242 2 l 1,2,-1
 101 310 l 1,3,-1
 16 310 l 1,4,-1
 17 361 l 1,5,-1
 139 361 l 1,6,-1
 242 135 l 1,7,-1
 463 629 l 1,0,-1
EndSplineSet
Validated: 1
EndChar

StartChar: uni00B5
Encoding: 181 181 525
Width: 559
GlyphClass: 2
Flags: W
AnchorPoint: "Anchor-3" 555 10 basechar 0
AnchorPoint: "Anchor-2" 280 0 basechar 0
AnchorPoint: "Anchor-1" 484 424 basechar 0
AnchorPoint: "Anchor-0" 281 437 basechar 0
LayerCount: 2
Fore
SplineSet
217 -16 m 0,0,1
 164 -16 164 -16 128.5 16 c 128,-1,2
 93 48 93 48 87 98 c 1,3,-1
 178 89 l 1,4,-1
 178 -206 l 1,5,-1
 83 -206 l 1,6,-1
 83 112 l 1,7,-1
 83 424 l 1,8,-1
 178 424 l 1,9,-1
 178 144 l 2,10,11
 180 109 180 109 198 88 c 128,-1,12
 216 67 216 67 255 66 c 0,13,14
 291 66 291 66 319 87 c 128,-1,15
 347 108 347 108 364.5 144 c 128,-1,16
 382 180 382 180 382 226 c 2,17,-1
 382 424 l 1,18,-1
 477 424 l 1,19,-1
 477 0 l 1,20,-1
 390 0 l 1,21,-1
 382 109 l 1,22,-1
 386 86 l 1,23,24
 374 57 374 57 349.5 33.5 c 128,-1,25
 325 10 325 10 291 -3 c 128,-1,26
 257 -16 257 -16 217 -16 c 0,0,1
EndSplineSet
Validated: 1048581
EndChar

StartChar: percent
Encoding: 37 37 526
Width: 798
GlyphClass: 1
Flags: W
LayerCount: 2
Fore
SplineSet
210 273 m 0,0,1
 163 273 163 273 130 295 c 128,-1,2
 97 317 97 317 81 356.5 c 128,-1,3
 65 396 65 396 65 449 c 0,4,5
 65 500 65 500 81 539.5 c 128,-1,6
 97 579 97 579 130 601 c 128,-1,7
 163 623 163 623 210 623 c 0,8,9
 256 623 256 623 288.5 601 c 128,-1,10
 321 579 321 579 338 539.5 c 128,-1,11
 355 500 355 500 355 449 c 0,12,13
 355 397 355 397 338 357 c 128,-1,14
 321 317 321 317 288.5 295 c 128,-1,15
 256 273 256 273 210 273 c 0,0,1
148 447 m 0,16,17
 148 398 148 398 164 369.5 c 128,-1,18
 180 341 180 341 210 341 c 256,19,20
 240 341 240 341 255 369.5 c 128,-1,21
 270 398 270 398 270 447 c 0,22,23
 270 500 270 500 255 527 c 128,-1,24
 240 554 240 554 210 554 c 256,25,26
 180 554 180 554 164 527.5 c 128,-1,27
 148 501 148 501 148 447 c 0,16,17
594 -16 m 256,28,29
 547 -16 547 -16 514.5 6.5 c 128,-1,30
 482 29 482 29 465.5 67.5 c 128,-1,31
 449 106 449 106 449 159 c 0,32,33
 449 210 449 210 465.5 249.5 c 128,-1,34
 482 289 482 289 514.5 311 c 128,-1,35
 547 333 547 333 594 333 c 256,36,37
 641 333 641 333 673.5 311 c 128,-1,38
 706 289 706 289 723 249.5 c 128,-1,39
 740 210 740 210 740 159 c 0,40,41
 740 107 740 107 723 67.5 c 128,-1,42
 706 28 706 28 673.5 6 c 128,-1,43
 641 -16 641 -16 594 -16 c 256,28,29
532 158 m 0,44,45
 532 109 532 109 548 80 c 128,-1,46
 564 51 564 51 594 51 c 256,47,48
 624 51 624 51 639.5 80 c 128,-1,49
 655 109 655 109 655 158 c 0,50,51
 655 211 655 211 639.5 237.5 c 128,-1,52
 624 264 624 264 594 264 c 256,53,54
 564 264 564 264 548 238 c 128,-1,55
 532 212 532 212 532 158 c 0,44,45
669 624 m 1,56,-1
 242 -1 l 1,57,-1
 147 0 l 1,58,-1
 572 624 l 1,59,-1
 669 624 l 1,56,-1
EndSplineSet
Validated: 1
EndChar

StartChar: perthousand
Encoding: 8240 8240 527
Width: 1131
GlyphClass: 1
Flags: W
LayerCount: 2
Fore
SplineSet
210 273 m 0,0,1
 163 273 163 273 130 295 c 128,-1,2
 97 317 97 317 81 356.5 c 128,-1,3
 65 396 65 396 65 449 c 0,4,5
 65 500 65 500 81 539.5 c 128,-1,6
 97 579 97 579 130 601 c 128,-1,7
 163 623 163 623 210 623 c 0,8,9
 256 623 256 623 288.5 601 c 128,-1,10
 321 579 321 579 338 539.5 c 128,-1,11
 355 500 355 500 355 449 c 0,12,13
 355 397 355 397 338 357 c 128,-1,14
 321 317 321 317 288.5 295 c 128,-1,15
 256 273 256 273 210 273 c 0,0,1
148 447 m 0,16,17
 148 398 148 398 164 369.5 c 128,-1,18
 180 341 180 341 210 341 c 256,19,20
 240 341 240 341 255 369.5 c 128,-1,21
 270 398 270 398 270 447 c 0,22,23
 270 500 270 500 255 527 c 128,-1,24
 240 554 240 554 210 554 c 256,25,26
 180 554 180 554 164 527.5 c 128,-1,27
 148 501 148 501 148 447 c 0,16,17
594 -16 m 256,28,29
 547 -16 547 -16 514.5 6.5 c 128,-1,30
 482 29 482 29 465.5 67.5 c 128,-1,31
 449 106 449 106 449 159 c 0,32,33
 449 210 449 210 465.5 249.5 c 128,-1,34
 482 289 482 289 514.5 311 c 128,-1,35
 547 333 547 333 594 333 c 256,36,37
 641 333 641 333 673.5 311 c 128,-1,38
 706 289 706 289 723 249.5 c 128,-1,39
 740 210 740 210 740 159 c 0,40,41
 740 107 740 107 723 67.5 c 128,-1,42
 706 28 706 28 673.5 6 c 128,-1,43
 641 -16 641 -16 594 -16 c 256,28,29
532 158 m 0,44,45
 532 109 532 109 548 80 c 128,-1,46
 564 51 564 51 594 51 c 256,47,48
 624 51 624 51 639.5 80 c 128,-1,49
 655 109 655 109 655 158 c 0,50,51
 655 211 655 211 639.5 237.5 c 128,-1,52
 624 264 624 264 594 264 c 256,53,54
 564 264 564 264 548 238 c 128,-1,55
 532 212 532 212 532 158 c 0,44,45
669 624 m 1,56,-1
 242 -1 l 1,57,-1
 147 0 l 1,58,-1
 572 624 l 1,59,-1
 669 624 l 1,56,-1
929 -16 m 0,60,61
 883 -16 883 -16 850 6.5 c 128,-1,62
 817 29 817 29 800 67.5 c 128,-1,63
 783 106 783 106 783 159 c 0,64,65
 783 210 783 210 800 249.5 c 128,-1,66
 817 289 817 289 850 311 c 128,-1,67
 883 333 883 333 929 333 c 0,68,69
 976 333 976 333 1008 311 c 128,-1,70
 1040 289 1040 289 1057.5 249.5 c 128,-1,71
 1075 210 1075 210 1075 159 c 0,72,73
 1075 107 1075 107 1057.5 67.5 c 128,-1,74
 1040 28 1040 28 1008 6 c 128,-1,75
 976 -16 976 -16 929 -16 c 0,60,61
867 158 m 0,76,77
 867 109 867 109 883 80 c 128,-1,78
 899 51 899 51 929 51 c 256,79,80
 959 51 959 51 974.5 80 c 128,-1,81
 990 109 990 109 990 158 c 0,82,83
 990 211 990 211 974 237.5 c 128,-1,84
 958 264 958 264 929 264 c 256,85,86
 899 264 899 264 883 238 c 128,-1,87
 867 212 867 212 867 158 c 0,76,77
EndSplineSet
Validated: 1
EndChar

StartChar: lozenge
Encoding: 9674 9674 528
Width: 473
GlyphClass: 1
Flags: W
LayerCount: 2
Fore
SplineSet
242 756 m 1,0,-1
 414 379 l 1,1,-1
 242 2 l 1,2,-1
 70 379 l 1,3,-1
 242 756 l 1,0,-1
242 623 m 1,4,-1
 131 379 l 1,5,-1
 242 135 l 1,6,-1
 353 379 l 1,7,-1
 242 623 l 1,4,-1
EndSplineSet
Validated: 1
EndChar

StartChar: at
Encoding: 64 64 529
Width: 1051
GlyphClass: 1
Flags: W
LayerCount: 2
Fore
SplineSet
447 -224 m 0,0,1
 363 -224 363 -224 290 -199.5 c 128,-1,2
 217 -175 217 -175 161.5 -126.5 c 128,-1,3
 106 -78 106 -78 76 -5 c 128,-1,4
 46 68 46 68 46 165 c 0,5,6
 46 227 46 227 65.5 295.5 c 128,-1,7
 85 364 85 364 126.5 429 c 128,-1,8
 168 494 168 494 234 546 c 128,-1,9
 300 598 300 598 393 629 c 128,-1,10
 486 660 486 660 608 660 c 0,11,12
 702 660 702 660 775.5 632.5 c 128,-1,13
 849 605 849 605 900.5 555.5 c 128,-1,14
 952 506 952 506 979 440.5 c 128,-1,15
 1006 375 1006 375 1006 299 c 0,16,17
 1006 238 1006 238 987.5 182 c 128,-1,18
 969 126 969 126 935.5 83.5 c 128,-1,19
 902 41 902 41 856 16 c 128,-1,20
 810 -9 810 -9 755 -9 c 0,21,22
 714 -9 714 -9 684.5 11 c 128,-1,23
 655 31 655 31 643 66.5 c 128,-1,24
 631 102 631 102 639 148 c 1,25,-1
 655 104 l 1,26,27
 639 77 639 77 608 51 c 128,-1,28
 577 25 577 25 538 7.5 c 128,-1,29
 499 -10 499 -10 457 -10 c 0,30,31
 402 -10 402 -10 357.5 14 c 128,-1,32
 313 38 313 38 288 82 c 128,-1,33
 263 126 263 126 264 186 c 0,34,35
 264 257 264 257 295.5 315 c 128,-1,36
 327 373 327 373 382 407 c 128,-1,37
 437 441 437 441 508 441 c 0,38,39
 553 441 553 441 583.5 429 c 128,-1,40
 614 417 614 417 634 396.5 c 128,-1,41
 654 376 654 376 666 350 c 1,42,-1
 684 424 l 1,43,-1
 774 424 l 1,44,-1
 735 147 l 2,45,46
 733 129 733 129 735.5 113 c 128,-1,47
 738 97 738 97 748.5 88 c 128,-1,48
 759 79 759 79 778 79 c 0,49,50
 804 79 804 79 828.5 96 c 128,-1,51
 853 113 853 113 873 143 c 128,-1,52
 893 173 893 173 904.5 213 c 128,-1,53
 916 253 916 253 916 299 c 0,54,55
 916 378 916 378 879 442.5 c 128,-1,56
 842 507 842 507 770 546 c 128,-1,57
 698 585 698 585 595 585 c 0,58,59
 485 585 485 585 406.5 554.5 c 128,-1,60
 328 524 328 524 275 475.5 c 128,-1,61
 222 427 222 427 191 370.5 c 128,-1,62
 160 314 160 314 146 261 c 128,-1,63
 132 208 132 208 132 168 c 0,64,65
 132 87 132 87 156.5 27 c 128,-1,66
 181 -33 181 -33 225.5 -72 c 128,-1,67
 270 -111 270 -111 330.5 -130.5 c 128,-1,68
 391 -150 391 -150 462 -150 c 0,69,70
 522 -150 522 -150 580 -131 c 128,-1,71
 638 -112 638 -112 689 -80 c 1,72,-1
 728 -135 l 1,73,74
 689 -165 689 -165 641 -185 c 128,-1,75
 593 -205 593 -205 543 -214.5 c 128,-1,76
 493 -224 493 -224 447 -224 c 0,0,1
494 69 m 0,77,78
 528 69 528 69 557 82 c 128,-1,79
 586 95 586 95 608 119 c 128,-1,80
 630 143 630 143 641 177 c 1,81,-1
 652 260 l 1,82,83
 649 291 649 291 631 314 c 128,-1,84
 613 337 613 337 585.5 349.5 c 128,-1,85
 558 362 558 362 523 362 c 0,86,87
 479 362 479 362 443.5 339.5 c 128,-1,88
 408 317 408 317 387 280 c 128,-1,89
 366 243 366 243 366 199 c 0,90,91
 366 162 366 162 381.5 132 c 128,-1,92
 397 102 397 102 426.5 85.5 c 128,-1,93
 456 69 456 69 494 69 c 0,77,78
EndSplineSet
Validated: 37
EndChar

StartChar: ampersand
Encoding: 38 38 530
Width: 742
GlyphClass: 1
Flags: W
LayerCount: 2
Fore
SplineSet
688 0 m 1,0,1
 680 0 680 0 661 0 c 128,-1,2
 642 0 642 0 622 0 c 128,-1,3
 602 0 602 0 587.5 0 c 128,-1,4
 573 0 573 0 573 0 c 1,5,-1
 218 470 l 2,6,7
 209 484 209 484 196.5 505.5 c 128,-1,8
 184 527 184 527 175.5 553.5 c 128,-1,9
 167 580 167 580 167 607 c 0,10,11
 167 651 167 651 188.5 689.5 c 128,-1,12
 210 728 210 728 250.5 751.5 c 128,-1,13
 291 775 291 775 349 775 c 0,14,15
 409 775 409 775 457 751.5 c 128,-1,16
 505 728 505 728 536 696 c 1,17,-1
 485 630 l 1,18,19
 454 659 454 659 424 675.5 c 128,-1,20
 394 692 394 692 365 692 c 0,21,22
 320 692 320 692 294.5 665 c 128,-1,23
 269 638 269 638 269 600 c 0,24,25
 269 582 269 582 277 562.5 c 128,-1,26
 285 543 285 543 292.5 529.5 c 128,-1,27
 300 516 300 516 302 512 c 2,28,-1
 688 0 l 1,0,1
313 356 m 1,29,30
 284 356 284 356 256.5 345 c 128,-1,31
 229 334 229 334 207.5 314.5 c 128,-1,32
 186 295 186 295 173.5 269 c 128,-1,33
 161 243 161 243 161 213 c 0,34,35
 161 173 161 173 182 143 c 128,-1,36
 203 113 203 113 238 96 c 128,-1,37
 273 79 273 79 315 79 c 0,38,39
 354 79 354 79 384 90.5 c 128,-1,40
 414 102 414 102 435.5 122 c 128,-1,41
 457 142 457 142 467 166 c 1,42,-1
 530 111 l 1,43,44
 502 60 502 60 444.5 25 c 128,-1,45
 387 -10 387 -10 303 -10 c 0,46,47
 233 -10 233 -10 178 18.5 c 128,-1,48
 123 47 123 47 90.5 96 c 128,-1,49
 58 145 58 145 58 208 c 0,50,51
 58 256 58 256 79.5 297 c 128,-1,52
 101 338 101 338 137.5 368 c 128,-1,53
 174 398 174 398 218.5 415.5 c 128,-1,54
 263 433 263 433 311 434 c 1,55,-1
 313 356 l 1,29,30
570 434 m 1,56,-1
 662 434 l 1,57,-1
 542 127 l 1,58,-1
 470 172 l 1,59,-1
 570 434 l 1,56,-1
EndSplineSet
Validated: 5
EndChar

StartChar: paragraph
Encoding: 182 182 531
Width: 567
GlyphClass: 1
Flags: W
LayerCount: 2
Fore
SplineSet
208 438 m 1,0,1
 162 438 162 438 123.5 461 c 128,-1,2
 85 484 85 484 62 522.5 c 128,-1,3
 39 561 39 561 39 607 c 0,4,5
 39 655 39 655 62 693.5 c 128,-1,6
 85 732 85 732 123.5 754.5 c 128,-1,7
 162 777 162 777 208 777 c 2,8,-1
 463 777 l 1,9,-1
 463 0 l 1,10,-1
 378 0 l 1,11,-1
 378 694 l 1,12,-1
 294 694 l 1,13,-1
 294 0 l 1,14,-1
 208 0 l 1,15,-1
 208 438 l 1,0,1
EndSplineSet
Validated: 1
EndChar

StartChar: section
Encoding: 167 167 532
Width: 584
GlyphClass: 1
Flags: W
LayerCount: 2
Fore
SplineSet
379 140 m 1,0,-1
 344 176 l 1,1,2
 389 172 389 172 426.5 153.5 c 128,-1,3
 464 135 464 135 486.5 103 c 128,-1,4
 509 71 509 71 509 23 c 0,5,6
 509 -31 509 -31 480 -76.5 c 128,-1,7
 451 -122 451 -122 399.5 -148.5 c 128,-1,8
 348 -175 348 -175 283 -175 c 0,9,10
 237 -175 237 -175 194.5 -165.5 c 128,-1,11
 152 -156 152 -156 115.5 -138.5 c 128,-1,12
 79 -121 79 -121 51 -99 c 1,13,-1
 100 -17 l 1,14,15
 129 -39 129 -39 158 -55 c 128,-1,16
 187 -71 187 -71 217 -79 c 128,-1,17
 247 -87 247 -87 276 -87 c 0,18,19
 311 -87 311 -87 340.5 -76 c 128,-1,20
 370 -65 370 -65 388 -42.5 c 128,-1,21
 406 -20 406 -20 406 9 c 0,22,23
 406 41 406 41 386 59.5 c 128,-1,24
 366 78 366 78 334 89.5 c 128,-1,25
 302 101 302 101 266 110 c 0,26,27
 232 119 232 119 197.5 131.5 c 128,-1,28
 163 144 163 144 134 164 c 128,-1,29
 105 184 105 184 88 213 c 128,-1,30
 71 242 71 242 71 283 c 0,31,32
 71 336 71 336 97.5 371.5 c 128,-1,33
 124 407 124 407 166 423.5 c 128,-1,34
 208 440 208 440 253 438 c 1,35,-1
 245 403 l 1,36,37
 194 419 194 419 160 443.5 c 128,-1,38
 126 468 126 468 110 500 c 128,-1,39
 94 532 94 532 94 570 c 0,40,41
 94 603 94 603 107 635 c 128,-1,42
 120 667 120 667 146.5 693 c 128,-1,43
 173 719 173 719 213 734 c 128,-1,44
 253 749 253 749 307 749 c 0,45,46
 363 749 363 749 414.5 731.5 c 128,-1,47
 466 714 466 714 505 685 c 1,48,-1
 463 611 l 1,49,50
 426 638 426 638 390 650.5 c 128,-1,51
 354 663 354 663 317 664 c 0,52,53
 277 664 277 664 250.5 652.5 c 128,-1,54
 224 641 224 641 211 622.5 c 128,-1,55
 198 604 198 604 198 583 c 0,56,57
 198 554 198 554 217.5 535 c 128,-1,58
 237 516 237 516 269.5 504 c 128,-1,59
 302 492 302 492 342 481 c 0,60,61
 376 473 376 473 409.5 461 c 128,-1,62
 443 449 443 449 471.5 429.5 c 128,-1,63
 500 410 500 410 517 380.5 c 128,-1,64
 534 351 534 351 534 308 c 0,65,66
 534 249 534 249 494 202 c 128,-1,67
 454 155 454 155 379 140 c 1,0,-1
437 291 m 256,68,69
 438 321 438 321 417 340.5 c 128,-1,70
 396 360 396 360 365 373 c 128,-1,71
 334 386 334 386 301 392 c 1,72,73
 241 394 241 394 205 368.5 c 128,-1,74
 169 343 169 343 167 306 c 0,75,76
 167 273 167 273 186 251.5 c 128,-1,77
 205 230 205 230 237.5 216.5 c 128,-1,78
 270 203 270 203 311 191 c 1,79,80
 340 194 340 194 368.5 206 c 128,-1,81
 397 218 397 218 416.5 239.5 c 128,-1,82
 436 261 436 261 437 291 c 256,68,69
EndSplineSet
Validated: 37
EndChar

StartChar: copyright
Encoding: 169 169 533
Width: 867
GlyphClass: 1
Flags: W
LayerCount: 2
Fore
SplineSet
580 207 m 1,0,1
 557 185 557 185 520 167.5 c 128,-1,2
 483 150 483 150 436 151 c 0,3,4
 384 152 384 152 341.5 178.5 c 128,-1,5
 299 205 299 205 275 248.5 c 128,-1,6
 251 292 251 292 251 343 c 0,7,8
 251 400 251 400 275 444 c 128,-1,9
 299 488 299 488 343 514 c 128,-1,10
 387 540 387 540 444 540 c 0,11,12
 464 540 464 540 486 536 c 128,-1,13
 508 532 508 532 529 524.5 c 128,-1,14
 550 517 550 517 564 504 c 1,15,-1
 526 431 l 1,16,17
 510 445 510 445 491 450.5 c 128,-1,18
 472 456 472 456 452 456 c 0,19,20
 422 456 422 456 399 440.5 c 128,-1,21
 376 425 376 425 362.5 400.5 c 128,-1,22
 349 376 349 376 349 346 c 256,23,24
 349 316 349 316 362 291.5 c 128,-1,25
 375 267 375 267 398 252 c 128,-1,26
 421 237 421 237 452 237 c 0,27,28
 475 237 475 237 496.5 245.5 c 128,-1,29
 518 254 518 254 536 272 c 1,30,-1
 580 207 l 1,0,1
433 -1 m 0,31,32
 361 -1 361 -1 298.5 24.5 c 128,-1,33
 236 50 236 50 187.5 96.5 c 128,-1,34
 139 143 139 143 112 205.5 c 128,-1,35
 85 268 85 268 85 342 c 0,36,37
 85 417 85 417 112 480 c 128,-1,38
 139 543 139 543 187.5 589 c 128,-1,39
 236 635 236 635 298.5 660.5 c 128,-1,40
 361 686 361 686 434 686 c 0,41,42
 506 686 506 686 569 660.5 c 128,-1,43
 632 635 632 635 680 589 c 128,-1,44
 728 543 728 543 755 480 c 128,-1,45
 782 417 782 417 782 342 c 0,46,47
 782 268 782 268 755.5 205.5 c 128,-1,48
 729 143 729 143 681.5 96.5 c 128,-1,49
 634 50 634 50 571 24.5 c 128,-1,50
 508 -1 508 -1 433 -1 c 0,31,32
433 77 m 0,51,52
 508 77 508 77 568 111 c 128,-1,53
 628 145 628 145 663 205.5 c 128,-1,54
 698 266 698 266 698 341 c 0,55,56
 698 420 698 420 663 480 c 128,-1,57
 628 540 628 540 568 574.5 c 128,-1,58
 508 609 508 609 433 609 c 0,59,60
 359 609 359 609 299 574.5 c 128,-1,61
 239 540 239 540 203.5 479.5 c 128,-1,62
 168 419 168 419 168 341 c 0,63,64
 168 265 168 265 201 205 c 128,-1,65
 234 145 234 145 294 111 c 128,-1,66
 354 77 354 77 433 77 c 0,51,52
EndSplineSet
Validated: 33
EndChar

StartChar: registered
Encoding: 174 174 534
Width: 497
GlyphClass: 1
Flags: W
LayerCount: 2
Fore
SplineSet
249 310 m 0,0,1
 190 310 190 310 140 338 c 128,-1,2
 90 366 90 366 61 414.5 c 128,-1,3
 32 463 32 463 32 524 c 256,4,5
 32 585 32 585 61 633.5 c 128,-1,6
 90 682 90 682 139.5 709.5 c 128,-1,7
 189 737 189 737 249 737 c 0,8,9
 309 737 309 737 358.5 709.5 c 128,-1,10
 408 682 408 682 437 634 c 128,-1,11
 466 586 466 586 466 524 c 256,12,13
 466 463 466 463 437 415 c 128,-1,14
 408 367 408 367 358.5 338.5 c 128,-1,15
 309 310 309 310 249 310 c 0,0,1
248 365 m 0,16,17
 293 365 293 365 329.5 385.5 c 128,-1,18
 366 406 366 406 387 442 c 128,-1,19
 408 478 408 478 408 524 c 256,20,21
 408 570 408 570 387 606.5 c 128,-1,22
 366 643 366 643 329.5 664 c 128,-1,23
 293 685 293 685 248 685 c 0,24,25
 204 685 204 685 167.5 664 c 128,-1,26
 131 643 131 643 110 606.5 c 128,-1,27
 89 570 89 570 89 524 c 256,28,29
 89 478 89 478 110 442 c 128,-1,30
 131 406 131 406 167.5 385.5 c 128,-1,31
 204 365 204 365 248 365 c 0,16,17
171 636 m 1,32,-1
 257 636 l 2,33,34
 294 636 294 636 314.5 618 c 128,-1,35
 335 600 335 600 335 566 c 0,36,37
 335 538 335 538 317 516 c 128,-1,38
 299 494 299 494 260 494 c 2,39,-1
 225 494 l 1,40,-1
 225 418 l 1,41,-1
 171 418 l 1,42,-1
 171 636 l 1,32,-1
246 536 m 2,43,44
 264 536 264 536 271 544 c 128,-1,45
 278 552 278 552 278 564 c 0,46,47
 278 577 278 577 270 586 c 128,-1,48
 262 595 262 595 248 595 c 2,49,-1
 225 595 l 1,50,-1
 225 536 l 1,51,-1
 246 536 l 2,43,44
295 506 m 1,52,-1
 336 418 l 1,53,-1
 274 418 l 1,54,-1
 240 505 l 1,55,-1
 295 506 l 1,52,-1
EndSplineSet
Validated: 5
EndChar

StartChar: trademark
Encoding: 8482 8482 535
Width: 590
GlyphClass: 1
Flags: W
LayerCount: 2
Fore
SplineSet
471 656 m 1,0,-1
 496 639 l 1,1,-1
 400 508 l 1,2,-1
 303 639 l 1,3,-1
 328 654 l 1,4,-1
 328 473 l 1,5,-1
 269 473 l 1,6,-1
 269 750 l 1,7,-1
 404 591 l 1,8,-1
 395 591 l 1,9,-1
 532 750 l 1,10,-1
 532 473 l 1,11,-1
 471 473 l 1,12,-1
 471 656 l 1,0,-1
45 738 m 1,13,-1
 226 738 l 1,14,-1
 226 683 l 1,15,-1
 167 683 l 1,16,-1
 167 473 l 1,17,-1
 103 473 l 1,18,-1
 103 683 l 1,19,-1
 45 683 l 1,20,-1
 45 738 l 1,13,-1
EndSplineSet
Validated: 5
EndChar

StartChar: degree
Encoding: 176 176 536
Width: 291
GlyphClass: 1
Flags: W
LayerCount: 2
Fore
SplineSet
38 581 m 1,0,1
 38 610 38 610 52 633.5 c 128,-1,2
 66 657 66 657 90 670.5 c 128,-1,3
 114 684 114 684 143 684 c 0,4,5
 172 684 172 684 195 670 c 128,-1,6
 218 656 218 656 232 632.5 c 128,-1,7
 246 609 246 609 246 581 c 256,8,9
 246 552 246 552 232 528 c 128,-1,10
 218 504 218 504 195 490.5 c 128,-1,11
 172 477 172 477 143 477 c 0,12,13
 113 477 113 477 89.5 490.5 c 128,-1,14
 66 504 66 504 52 528 c 128,-1,15
 38 552 38 552 38 581 c 1,16,-1
 38 581 l 1,0,1
143 529 m 1,17,18
 163 529 163 529 179 544 c 128,-1,19
 195 559 195 559 195 581 c 0,20,21
 195 600 195 600 179.5 615.5 c 128,-1,22
 164 631 164 631 143 631 c 0,23,24
 121 631 121 631 107 616 c 128,-1,25
 93 601 93 601 93 580 c 0,26,27
 93 560 93 560 108 544.5 c 128,-1,28
 123 529 123 529 143 529 c 1,29,-1
 143 529 l 1,17,18
EndSplineSet
Validated: 5
EndChar

StartChar: bar
Encoding: 124 124 537
Width: 280
GlyphClass: 1
Flags: W
LayerCount: 2
Fore
SplineSet
94 726 m 1,0,-1
 181 726 l 1,1,-1
 181 -241 l 1,2,-1
 94 -241 l 1,3,-1
 94 726 l 1,0,-1
EndSplineSet
Validated: 1
EndChar

StartChar: brokenbar
Encoding: 166 166 538
Width: 222
GlyphClass: 1
Flags: W
LayerCount: 2
Fore
SplineSet
72 726 m 1,0,-1
 158 726 l 1,1,-1
 158 362 l 1,2,-1
 72 362 l 1,3,-1
 72 726 l 1,0,-1
72 121 m 1,4,-1
 158 121 l 1,5,-1
 158 -242 l 1,6,-1
 72 -242 l 1,7,-1
 72 121 l 1,4,-1
EndSplineSet
Validated: 1
EndChar

StartChar: dagger
Encoding: 8224 8224 539
Width: 307
GlyphClass: 1
Flags: W
LayerCount: 2
Fore
SplineSet
34 477 m 1,0,-1
 272 477 l 1,1,-1
 272 393 l 1,2,-1
 34 393 l 1,3,-1
 34 477 l 1,0,-1
111 626 m 1,4,-1
 197 626 l 1,5,-1
 197 9 l 1,6,-1
 111 9 l 1,7,-1
 111 626 l 1,4,-1
EndSplineSet
Validated: 5
EndChar

StartChar: daggerdbl
Encoding: 8225 8225 540
Width: 312
GlyphClass: 1
Flags: W
LayerCount: 2
Fore
SplineSet
23 307 m 1,0,-1
 289 307 l 1,1,-1
 289 223 l 1,2,-1
 23 223 l 1,3,-1
 23 307 l 1,0,-1
38 477 m 1,4,-1
 276 477 l 1,5,-1
 276 393 l 1,6,-1
 38 393 l 1,7,-1
 38 477 l 1,4,-1
115 626 m 1,8,-1
 201 626 l 1,9,-1
 201 9 l 1,10,-1
 115 9 l 1,11,-1
 115 626 l 1,8,-1
EndSplineSet
Validated: 5
EndChar

StartChar: uni2116
Encoding: 8470 8470 541
Width: 1351
GlyphClass: 1
Flags: W
LayerCount: 2
Fore
SplineSet
881 240 m 1,0,-1
 1282 240 l 1,1,-1
 1282 156 l 1,2,-1
 881 156 l 1,3,-1
 881 240 l 1,0,-1
748 -24 m 1,4,-1
 175 557 l 1,5,-1
 204 550 l 1,6,-1
 206 0 l 1,7,-1
 106 0 l 1,8,-1
 106 763 l 1,9,-1
 112 763 l 1,10,-1
 678 180 l 1,11,-1
 654 185 l 1,12,-1
 652 740 l 1,13,-1
 751 740 l 1,14,-1
 751 -24 l 1,15,-1
 748 -24 l 1,4,-1
839 523 m 0,16,17
 839 586 839 586 869 637.5 c 128,-1,18
 899 689 899 689 953 719 c 128,-1,19
 1007 749 1007 749 1074 749 c 0,20,21
 1144 749 1144 749 1196 719 c 128,-1,22
 1248 689 1248 689 1277 638 c 128,-1,23
 1306 587 1306 587 1306 523 c 256,24,25
 1306 460 1306 460 1277 408.5 c 128,-1,26
 1248 357 1248 357 1195.5 327.5 c 128,-1,27
 1143 298 1143 298 1073 298 c 0,28,29
 1005 298 1005 298 952.5 325.5 c 128,-1,30
 900 353 900 353 869.5 404 c 128,-1,31
 839 455 839 455 839 523 c 0,16,17
935 522 m 0,32,33
 935 481 935 481 953.5 448 c 128,-1,34
 972 415 972 415 1002.5 395.5 c 128,-1,35
 1033 376 1033 376 1072 376 c 0,36,37
 1112 376 1112 376 1143 395.5 c 128,-1,38
 1174 415 1174 415 1191.5 448 c 128,-1,39
 1209 481 1209 481 1209 522 c 0,40,41
 1209 564 1209 564 1191.5 597.5 c 128,-1,42
 1174 631 1174 631 1143 650.5 c 128,-1,43
 1112 670 1112 670 1072 670 c 0,44,45
 1033 670 1033 670 1002 650 c 128,-1,46
 971 630 971 630 953 596 c 128,-1,47
 935 562 935 562 935 522 c 0,32,33
EndSplineSet
Validated: 5
Ligature2: "'ordn' Ordinals in Latin lookup 23 subtable" N o period
EndChar

StartChar: asciicircum
Encoding: 94 94 542
Width: 486
GlyphClass: 1
Flags: W
LayerCount: 2
Fore
SplineSet
304 497 m 1,0,1
 298 507 298 507 285 524 c 128,-1,2
 272 541 272 541 259.5 557.5 c 128,-1,3
 247 574 247 574 240 585 c 1,4,5
 234 575 234 575 221.5 558 c 128,-1,6
 209 541 209 541 196 524 c 128,-1,7
 183 507 183 507 177 497 c 1,8,-1
 116 497 l 1,9,10
 148 544 148 544 178.5 590.5 c 128,-1,11
 209 637 209 637 240 684 c 1,12,-1
 240 684 l 1,13,14
 272 637 272 637 303 590.5 c 128,-1,15
 334 544 334 544 365 497 c 1,16,-1
 304 497 l 1,0,1
EndSplineSet
Validated: 5
EndChar

StartChar: tildecomb
Encoding: 771 771 552
Width: 0
GlyphClass: 4
Flags: W
AnchorPoint: "Anchor-6" 237 614 basemark 0
AnchorPoint: "Anchor-6" 227 424 mark 0
AnchorPoint: "Anchor-0" 227 424 mark 0
LayerCount: 2
Fore
SplineSet
306 470 m 0,0,1
 273 470 273 470 252 485 c 128,-1,2
 231 500 231 500 213 516 c 0,3,4
 201 527 201 527 188.5 537 c 128,-1,5
 176 547 176 547 161 547 c 0,6,7
 149 547 149 547 139 537 c 128,-1,8
 129 527 129 527 124 510 c 128,-1,9
 119 493 119 493 119 469 c 1,10,-1
 68 469 l 1,11,12
 65 509 65 509 76.5 541 c 128,-1,13
 88 573 88 573 111 591.5 c 128,-1,14
 134 610 134 610 166 610 c 0,15,16
 193 610 193 610 212 595.5 c 128,-1,17
 231 581 231 581 248 565 c 0,18,19
 262 552 262 552 275.5 541 c 128,-1,20
 289 530 289 530 304 530 c 0,21,22
 324 530 324 530 333 551.5 c 128,-1,23
 342 573 342 573 342 610 c 1,24,-1
 393 610 l 1,25,26
 397 567 397 567 386.5 535.5 c 128,-1,27
 376 504 376 504 354.5 487 c 128,-1,28
 333 470 333 470 306 470 c 0,0,1
EndSplineSet
Validated: 33
Substitution2: "'case' Case-Sensitive Forms in Latin lookup 24 subtable" tildecomb.case
Substitution2: "Single Substitution lookup 7 subtable" tildecomb.case
Substitution2: "Single Substitution lookup 6 subtable" tildecomb.case
Substitution2: "Single Substitution lookup 4 subtable" tildecomb.case
Substitution2: "Single Substitution lookup 3 subtable" tildecomb.case
Substitution2: "'aalt' Access All Alternates in Latin lookup 0 subtable" tildecomb.case
EndChar

StartChar: hookabovecomb
Encoding: 777 777 554
Width: 0
GlyphClass: 4
Flags: W
AnchorPoint: "Anchor-6" 164 767 basemark 0
AnchorPoint: "Anchor-6" 175 519 mark 0
AnchorPoint: "Anchor-0" 175 519 mark 0
LayerCount: 2
Fore
SplineSet
155 598 m 1,0,1
 174 613 174 613 187 627 c 128,-1,2
 200 641 200 641 200 660 c 0,3,4
 200 675 200 675 191.5 685.5 c 128,-1,5
 183 696 183 696 167 696 c 256,6,7
 151 696 151 696 139.5 687.5 c 128,-1,8
 128 679 128 679 119 665 c 1,9,-1
 83 688 l 1,10,11
 100 721 100 721 125.5 736.5 c 128,-1,12
 151 752 151 752 179 752 c 0,13,14
 205 752 205 752 222 741 c 128,-1,15
 239 730 239 730 247.5 711.5 c 128,-1,16
 256 693 256 693 256 672 c 0,17,18
 256 636 256 636 233 612 c 128,-1,19
 210 588 210 588 178 568 c 1,20,-1
 155 598 l 1,0,1
EndSplineSet
Validated: 1
Substitution2: "'case' Case-Sensitive Forms in Latin lookup 24 subtable" hookabovecomb.case
Substitution2: "Single Substitution lookup 7 subtable" hookabovecomb.case
Substitution2: "Single Substitution lookup 6 subtable" hookabovecomb.case
Substitution2: "Single Substitution lookup 4 subtable" hookabovecomb.case
Substitution2: "Single Substitution lookup 3 subtable" hookabovecomb.case
Substitution2: "'aalt' Access All Alternates in Latin lookup 0 subtable" hookabovecomb.case
EndChar

StartChar: uni0311
Encoding: 785 785 556
Width: 0
GlyphClass: 4
Flags: W
AnchorPoint: "Anchor-6" 201 692 basemark 0
AnchorPoint: "Anchor-6" 201 466 mark 0
AnchorPoint: "Anchor-0" 201 466 mark 0
LayerCount: 2
Fore
SplineSet
205 692 m 256,0,1
 248 692 248 692 280 671 c 128,-1,2
 312 650 312 650 332 609.5 c 128,-1,3
 352 569 352 569 359 512 c 1,4,-1
 295 512 l 1,5,6
 291 546 291 546 279.5 571.5 c 128,-1,7
 268 597 268 597 249.5 612 c 128,-1,8
 231 627 231 627 205 627 c 256,9,10
 178 627 178 627 159.5 612 c 128,-1,11
 141 597 141 597 131 571.5 c 128,-1,12
 121 546 121 546 117 512 c 1,13,-1
 51 512 l 1,14,15
 58 570 58 570 78 610.5 c 128,-1,16
 98 651 98 651 130 671.5 c 128,-1,17
 162 692 162 692 205 692 c 256,0,1
EndSplineSet
Validated: 1
Substitution2: "'case' Case-Sensitive Forms in Latin lookup 24 subtable" uni0311.case
Substitution2: "Single Substitution lookup 7 subtable" uni0311.case
Substitution2: "Single Substitution lookup 6 subtable" uni0311.case
Substitution2: "Single Substitution lookup 4 subtable" uni0311.case
Substitution2: "Single Substitution lookup 3 subtable" uni0311.case
Substitution2: "'aalt' Access All Alternates in Latin lookup 0 subtable" uni0311.case
EndChar

StartChar: uni0312
Encoding: 786 786 557
Width: 0
GlyphClass: 4
Flags: W
AnchorPoint: "Anchor-6" 117 708 basemark 0
AnchorPoint: "Anchor-6" 117 424 mark 0
AnchorPoint: "Anchor-0" 117 424 mark 0
LayerCount: 2
Fore
SplineSet
131 676 m 1,0,-1
 180 642 l 1,1,2
 155 622 155 622 145 583.5 c 128,-1,3
 135 545 135 545 141 506 c 1,4,-1
 56 506 l 1,5,6
 52 535 52 535 59 567.5 c 128,-1,7
 66 600 66 600 84 629.5 c 128,-1,8
 102 659 102 659 131 676 c 1,0,-1
EndSplineSet
Validated: 33
EndChar

StartChar: uni031B
Encoding: 795 795 558
Width: 0
GlyphClass: 4
Flags: W
AnchorPoint: "Anchor-7" 83 445 basemark 0
AnchorPoint: "Anchor-7" 132 740 mark 0
AnchorPoint: "Anchor-1" 132 740 mark 0
LayerCount: 2
Fore
SplineSet
71 740 m 1,0,1
 114 740 114 740 136.5 762 c 128,-1,2
 159 784 159 784 165 836 c 1,3,-1
 237 836 l 1,4,5
 230 774 230 774 206.5 740.5 c 128,-1,6
 183 707 183 707 149 694.5 c 128,-1,7
 115 682 115 682 71 682 c 1,8,-1
 71 740 l 1,0,1
EndSplineSet
Validated: 1
Substitution2: "'case' Case-Sensitive Forms in Latin lookup 24 subtable" uni031B.case
Substitution2: "Single Substitution lookup 7 subtable" uni031B.case
Substitution2: "Single Substitution lookup 6 subtable" uni031B.case
Substitution2: "Single Substitution lookup 4 subtable" uni031B.case
Substitution2: "Single Substitution lookup 3 subtable" uni031B.case
Substitution2: "'aalt' Access All Alternates in Latin lookup 0 subtable" uni031B.case
EndChar

StartChar: dotbelowcomb
Encoding: 803 803 559
Width: 0
GlyphClass: 4
Flags: W
AnchorPoint: "Anchor-5" 112 -161 basemark 0
AnchorPoint: "Anchor-5" 112 0 mark 0
AnchorPoint: "Anchor-2" 112 0 mark 0
LayerCount: 2
Fore
SplineSet
61 -106 m 256,0,1
 61 -87 61 -87 76.5 -73.5 c 128,-1,2
 92 -60 92 -60 112 -60 c 0,3,4
 129 -60 129 -60 144.5 -73.5 c 128,-1,5
 160 -87 160 -87 160 -106 c 0,6,7
 160 -126 160 -126 144.5 -139.5 c 128,-1,8
 129 -153 129 -153 112 -153 c 0,9,10
 93 -153 93 -153 77 -139 c 128,-1,11
 61 -125 61 -125 61 -106 c 256,0,1
EndSplineSet
Validated: 1
Substitution2: "'case' Case-Sensitive Forms in Latin lookup 24 subtable" dotbelowcomb.case
Substitution2: "Single Substitution lookup 7 subtable" dotbelowcomb.case
Substitution2: "Single Substitution lookup 6 subtable" dotbelowcomb.case
Substitution2: "Single Substitution lookup 4 subtable" dotbelowcomb.case
Substitution2: "Single Substitution lookup 3 subtable" dotbelowcomb.case
Substitution2: "'aalt' Access All Alternates in Latin lookup 0 subtable" dotbelowcomb.case
EndChar

StartChar: uni0326
Encoding: 806 806 561
Width: 0
GlyphClass: 4
Flags: W
AnchorPoint: "Anchor-5" 121 -193 basemark 0
AnchorPoint: "Anchor-5" 136 0 mark 0
AnchorPoint: "Anchor-2" 136 0 mark 0
LayerCount: 2
Fore
SplineSet
103 -207 m 1,0,-1
 54 -173 l 1,1,2
 80 -153 80 -153 90 -114 c 128,-1,3
 100 -75 100 -75 94 -37 c 1,4,-1
 179 -37 l 1,5,6
 183 -65 183 -65 176 -97.5 c 128,-1,7
 169 -130 169 -130 151 -159.5 c 128,-1,8
 133 -189 133 -189 103 -207 c 1,0,-1
EndSplineSet
Validated: 33
Substitution2: "'case' Case-Sensitive Forms in Latin lookup 24 subtable" uni0326.case
Substitution2: "Single Substitution lookup 7 subtable" uni0326.case
Substitution2: "Single Substitution lookup 6 subtable" uni0326.case
Substitution2: "Single Substitution lookup 4 subtable" uni0326.case
Substitution2: "Single Substitution lookup 3 subtable" uni0326.case
Substitution2: "'aalt' Access All Alternates in Latin lookup 0 subtable" uni0326.case
EndChar

StartChar: uni0335
Encoding: 821 821 566
Width: 0
GlyphClass: 4
Flags: W
AnchorPoint: "Anchor-4" 195 332 mark 0
LayerCount: 2
Fore
SplineSet
49 374 m 1,0,-1
 333 374 l 1,1,-1
 333 285 l 1,2,-1
 49 285 l 1,3,-1
 49 374 l 1,0,-1
EndSplineSet
Validated: 1
EndChar

StartChar: tildecomb.case
Encoding: 65554 -1 576
Width: 0
GlyphClass: 4
Flags: W
AnchorPoint: "Anchor-6" 238 899 basemark 0
AnchorPoint: "Anchor-6" 238 673 mark 0
AnchorPoint: "Anchor-0" 238 673 mark 0
LayerCount: 2
Fore
SplineSet
315 740 m 0,0,1
 282 740 282 740 261.5 755 c 128,-1,2
 241 770 241 770 222 786 c 0,3,4
 210 797 210 797 197.5 807 c 128,-1,5
 185 817 185 817 170 817 c 0,6,7
 158 817 158 817 148 807.5 c 128,-1,8
 138 798 138 798 133 781 c 128,-1,9
 128 764 128 764 128 739 c 1,10,-1
 77 740 l 1,11,12
 74 780 74 780 85.5 812 c 128,-1,13
 97 844 97 844 120 862.5 c 128,-1,14
 143 881 143 881 175 881 c 0,15,16
 202 881 202 881 221.5 866.5 c 128,-1,17
 241 852 241 852 257 837 c 0,18,19
 271 823 271 823 284.5 812 c 128,-1,20
 298 801 298 801 313 801 c 0,21,22
 333 801 333 801 342 823 c 128,-1,23
 351 845 351 845 351 882 c 1,24,-1
 402 881 l 1,25,26
 406 839 406 839 395.5 807 c 128,-1,27
 385 775 385 775 363.5 757.5 c 128,-1,28
 342 740 342 740 315 740 c 0,0,1
EndSplineSet
Validated: 33
EndChar

StartChar: uni0311.case
Encoding: 65558 -1 580
Width: 0
GlyphClass: 4
Flags: W
AnchorPoint: "Anchor-6" 244 699 basemark 0
AnchorPoint: "Anchor-6" 244 486 mark 0
AnchorPoint: "Anchor-0" 244 486 mark 0
LayerCount: 2
Fore
SplineSet
239 681 m 0,0,1
 283 681 283 681 314.5 660 c 128,-1,2
 346 639 346 639 366.5 598.5 c 128,-1,3
 387 558 387 558 393 501 c 1,4,-1
 329 501 l 1,5,6
 325 534 325 534 313.5 560 c 128,-1,7
 302 586 302 586 284 600.5 c 128,-1,8
 266 615 266 615 239 615 c 0,9,10
 213 615 213 615 194.5 600.5 c 128,-1,11
 176 586 176 586 165.5 560 c 128,-1,12
 155 534 155 534 151 501 c 1,13,-1
 85 501 l 1,14,15
 92 559 92 559 112 599.5 c 128,-1,16
 132 640 132 640 164.5 660.5 c 128,-1,17
 197 681 197 681 239 681 c 0,0,1
EndSplineSet
Validated: 1
EndChar

StartChar: uni031B.case
Encoding: 65559 -1 581
Width: 0
GlyphClass: 4
Flags: W
AnchorPoint: "Anchor-7" 83 445 basemark 0
AnchorPoint: "Anchor-7" 65 653 mark 0
AnchorPoint: "Anchor-1" 65 653 mark 0
LayerCount: 2
Fore
SplineSet
51 540 m 1,0,1
 94 540 94 540 112 560 c 128,-1,2
 130 580 130 580 135 633 c 1,3,-1
 207 633 l 1,4,5
 200 568 200 568 179.5 535.5 c 128,-1,6
 159 503 159 503 126.5 492 c 128,-1,7
 94 481 94 481 51 481 c 1,8,-1
 51 540 l 1,0,1
EndSplineSet
Validated: 1
EndChar

StartChar: acute
Encoding: 180 180 591
Width: 282
GlyphClass: 1
Flags: W
LayerCount: 2
Fore
SplineSet
237 634 m 1,0,-1
 106 497 l 1,1,-1
 46 497 l 1,2,-1
 131 634 l 1,3,-1
 237 634 l 1,0,-1
EndSplineSet
Validated: 1
EndChar

StartChar: breve
Encoding: 728 728 592
Width: 410
GlyphClass: 1
Flags: W
LayerCount: 2
Fore
SplineSet
206 493 m 256,0,1
 163 493 163 493 130.5 514 c 128,-1,2
 98 535 98 535 78 575 c 128,-1,3
 58 615 58 615 51 673 c 1,4,-1
 116 673 l 1,5,6
 121 640 121 640 131.5 614 c 128,-1,7
 142 588 142 588 161 573 c 128,-1,8
 180 558 180 558 206 558 c 0,9,10
 234 558 234 558 251.5 573 c 128,-1,11
 269 588 269 588 279.5 614 c 128,-1,12
 290 640 290 640 294 673 c 1,13,-1
 359 673 l 1,14,15
 352 615 352 615 332 574.5 c 128,-1,16
 312 534 312 534 280.5 513.5 c 128,-1,17
 249 493 249 493 206 493 c 256,0,1
EndSplineSet
Validated: 1
EndChar

StartChar: caron
Encoding: 711 711 593
Width: 430
GlyphClass: 1
Flags: W
LayerCount: 2
Fore
SplineSet
132 673 m 1,0,-1
 229 571 l 1,1,-1
 201 565 l 1,2,-1
 298 673 l 1,3,-1
 386 673 l 1,4,-1
 217 497 l 1,5,-1
 216 497 l 1,6,-1
 44 673 l 1,7,-1
 132 673 l 1,0,-1
EndSplineSet
Validated: 5
EndChar

StartChar: cedilla
Encoding: 184 184 594
Width: 411
GlyphClass: 1
Flags: W
LayerCount: 2
Fore
SplineSet
115 -158 m 1,0,1
 126 -169 126 -169 143.5 -176.5 c 128,-1,2
 161 -184 161 -184 183 -184 c 0,3,4
 210 -184 210 -184 231.5 -172.5 c 128,-1,5
 253 -161 253 -161 253 -138 c 0,6,7
 253 -121 253 -121 238.5 -106 c 128,-1,8
 224 -91 224 -91 186 -91 c 0,9,10
 170 -91 170 -91 151.5 -95 c 128,-1,11
 133 -99 133 -99 120 -104 c 1,12,-1
 102 -58 l 1,13,-1
 174 8 l 1,14,-1
 247 4 l 1,15,-1
 173 -82 l 1,16,-1
 151 -58 l 1,17,18
 162 -53 162 -53 178.5 -50.5 c 128,-1,19
 195 -48 195 -48 210 -47 c 0,20,21
 264 -46 264 -46 299 -68.5 c 128,-1,22
 334 -91 334 -91 334 -136 c 0,23,24
 334 -171 334 -171 314 -193 c 128,-1,25
 294 -215 294 -215 262 -226 c 128,-1,26
 230 -237 230 -237 193 -237 c 256,27,28
 155 -237 155 -237 127.5 -225 c 128,-1,29
 100 -213 100 -213 84 -198 c 1,30,-1
 115 -158 l 1,0,1
EndSplineSet
Validated: 37
EndChar

StartChar: circumflex
Encoding: 710 710 595
Width: 432
GlyphClass: 1
Flags: W
LayerCount: 2
Fore
SplineSet
298 509 m 1,0,-1
 203 609 l 1,1,-1
 230 615 l 1,2,-1
 133 509 l 1,3,-1
 45 509 l 1,4,-1
 214 684 l 1,5,-1
 215 684 l 1,6,-1
 386 509 l 1,7,-1
 298 509 l 1,0,-1
EndSplineSet
Validated: 5
EndChar

StartChar: dieresis
Encoding: 168 168 596
Width: 424
GlyphClass: 1
Flags: W
LayerCount: 2
Fore
SplineSet
63 540 m 1,0,1
 63 563 63 563 79.5 578.5 c 128,-1,2
 96 594 96 594 117 594 c 0,3,4
 136 594 136 594 153 578 c 128,-1,5
 170 562 170 562 170 539 c 256,6,7
 170 515 170 515 153 500 c 128,-1,8
 136 485 136 485 117 485 c 0,9,10
 97 485 97 485 80 500.5 c 128,-1,11
 63 516 63 516 63 540 c 1,12,-1
 63 540 l 1,0,1
255 540 m 1,13,14
 255 563 255 563 272 578.5 c 128,-1,15
 289 594 289 594 309 594 c 0,16,17
 327 594 327 594 344 578 c 128,-1,18
 361 562 361 562 361 539 c 256,19,20
 361 515 361 515 344.5 500 c 128,-1,21
 328 485 328 485 309 485 c 0,22,23
 289 485 289 485 272 500.5 c 128,-1,24
 255 516 255 516 255 540 c 1,25,-1
 255 540 l 1,13,14
EndSplineSet
Validated: 5
EndChar

StartChar: dotaccent
Encoding: 729 729 597
Width: 223
GlyphClass: 1
Flags: W
LayerCount: 2
Fore
SplineSet
53 585 m 256,0,1
 53 608 53 608 71 623 c 128,-1,2
 89 638 89 638 111 638 c 256,3,4
 133 638 133 638 149.5 622.5 c 128,-1,5
 166 607 166 607 166 585 c 0,6,7
 166 561 166 561 149 546 c 128,-1,8
 132 531 132 531 111 531 c 256,9,10
 89 531 89 531 71 546.5 c 128,-1,11
 53 562 53 562 53 585 c 256,0,1
EndSplineSet
Validated: 1
EndChar

StartChar: grave
Encoding: 96 96 598
Width: 280
GlyphClass: 1
Flags: W
LayerCount: 2
Fore
SplineSet
14 634 m 1,0,-1
 120 634 l 1,1,-1
 195 497 l 1,2,-1
 133 497 l 1,3,-1
 14 634 l 1,0,-1
EndSplineSet
Validated: 1
EndChar

StartChar: macron
Encoding: 175 175 600
Width: 379
GlyphClass: 1
Flags: W
LayerCount: 2
Fore
SplineSet
65 550 m 1,0,-1
 316 550 l 1,1,-1
 316 482 l 1,2,-1
 65 482 l 1,3,-1
 65 550 l 1,0,-1
EndSplineSet
Validated: 1
EndChar

StartChar: ogonek
Encoding: 731 731 601
Width: 348
GlyphClass: 1
Flags: W
LayerCount: 2
Fore
SplineSet
180 -220 m 0,0,1
 130 -220 130 -220 95 -189.5 c 128,-1,2
 60 -159 60 -159 60 -109 c 0,3,4
 60 -73 60 -73 85.5 -40 c 128,-1,5
 111 -7 111 -7 153 11 c 1,6,-1
 257 0 l 1,7,8
 204 -25 204 -25 171.5 -48.5 c 128,-1,9
 139 -72 139 -72 139 -101 c 0,10,11
 139 -128 139 -128 154.5 -140 c 128,-1,12
 170 -152 170 -152 188 -152 c 0,13,14
 208 -152 208 -152 226 -139 c 128,-1,15
 244 -126 244 -126 258 -103 c 1,16,-1
 295 -152 l 1,17,18
 278 -182 278 -182 245 -201 c 128,-1,19
 212 -220 212 -220 180 -220 c 0,0,1
EndSplineSet
Validated: 1
EndChar

StartChar: ring
Encoding: 730 730 602
Width: 347
GlyphClass: 1
Flags: W
LayerCount: 2
Fore
SplineSet
79 543 m 0,0,1
 79 584 79 584 106 609 c 128,-1,2
 133 634 133 634 175 634 c 0,3,4
 215 634 215 634 242.5 609 c 128,-1,5
 270 584 270 584 270 543 c 0,6,7
 270 503 270 503 242.5 477.5 c 128,-1,8
 215 452 215 452 174 452 c 256,9,10
 133 452 133 452 106 477.5 c 128,-1,11
 79 503 79 503 79 543 c 0,0,1
131 542 m 0,12,13
 131 523 131 523 143.5 510 c 128,-1,14
 156 497 156 497 175 497 c 0,15,16
 193 497 193 497 205.5 509.5 c 128,-1,17
 218 522 218 522 218 542 c 0,18,19
 218 562 218 562 206 574.5 c 128,-1,20
 194 587 194 587 175 587 c 0,21,22
 156 587 156 587 143.5 574.5 c 128,-1,23
 131 562 131 562 131 542 c 0,12,13
EndSplineSet
Validated: 1
EndChar

